<?xml version="1.0" encoding="utf-8"?>
<svg xmlns="http://www.w3.org/2000/svg" viewBox="0 0 24 24" width="96" height="96">
  <polygon points="11.947,3 3,7.286 3,9 20,9 20,7.286" opacity=".3" fill="#D503FF" />
  <path d="M12,2.5l-9,4V9h2v8h2V9h2v8h2V9h2v8h2V9h2v4.42c0.52-0.6,1.21-1.04,2-1.24V9h2V6.5L12,2.5z M6.8,7L12,4.69L17.2,7H6.8z M18,16c0,0.36,0.1,0.71,0.27,1H19v-2.73C18.4,14.62,18,15.26,18,16z M3,19v2h11.42c0.03-0.83,0.74-1.51,1.71-2H3z" fill="#D503FF" />
  <path fill="#D503FF" d="M22,16c0,0.93-0.65,1.72-1.52,1.94C20.33,17.98,20.17,18,20,18c-0.09,0-0.18-0.01-0.26-0.02 c-0.63-0.08-1.16-0.46-1.47-0.98C18.1,16.71,18,16.36,18,16c0-0.74,0.4-1.38,1-1.73C19.29,14.1,19.64,14,20,14 C21.1,14,22,14.9,22,16z" />
  <path fill="#D503FF" d="M20,18c-0.09,0-0.18-0.01-0.26-0.02c0.27-0.03,0.52-0.04,0.74-0.04C20.33,17.98,20.17,18,20,18z" />
  <rect width="6" height="3" x="17" y="21" fill="#D503FF" />
  <path d="M20,14c-0.36,0-0.71,0.1-1,0.27c-0.6,0.35-1,0.99-1,1.73c0,0.36,0.1,0.71,0.27,1c0.31,0.52,0.84,0.9,1.47,0.98 C19.82,17.99,19.91,18,20,18c0.17,0,0.33-0.02,0.48-0.06C21.35,17.72,22,16.93,22,16C22,14.9,21.1,14,20,14z" fill="#D503FF" />
  <rect width="6" height="3" x="17" y="21" opacity=".3" fill="#D503FF" />
  <path d="M24,24h-2v-1.708C21.8,22.189,21.26,22,20,22s-1.8,0.189-2,0.292V24h-2v-2c0-0.469,0.289-2,4-2s4,1.531,4,2V24z" fill="#D503FF" />
</svg>