<?xml version="1.0" encoding="utf-8"?>
<svg xmlns="http://www.w3.org/2000/svg" viewBox="0 0 24 24" width="96" height="96">
  <path d="M20 17H7.942c-.754 0-1.45-.41-1.816-1.069s-.345-1.467.055-2.107l1.197-1.916L4.084 4.003l-2.071.01-.009-2 3.411-.016 4.206 10.095-1.744 2.791L7.942 15H20V17zM18 18A2 2 0 1 0 18 22 2 2 0 1 0 18 18zM8 18A2 2 0 1 0 8 22 2 2 0 1 0 8 18z" fill="#FFFFFF" />
  <path d="M16.521,13H8.348v-2h8.173l4.113-7.405l1.748,0.972l-4.113,7.405C17.917,12.606,17.248,13,16.521,13z" fill="#FFFFFF" />
  <path d="M15.075,3C14.062,3,13.5,4,13.5,4s-0.562-1-1.575-1C10.862,3,10,3.821,10,4.833C10,6.333,13.5,9,13.5,9S17,6.333,17,4.833 C17,3.821,16.138,3,15.075,3z" fill="#FFFFFF" />
  <path d="M6,4h14.762l-3.603,7.486C16.982,11.803,16.647,12,16.284,12H8.111L6,4z" opacity=".3" fill="#FFFFFF" />
</svg>