<?xml version="1.0" encoding="utf-8"?>
<svg xmlns="http://www.w3.org/2000/svg" viewBox="0 0 24 24" width="96" height="96">
  <path d="M3 5H21V19H3z" opacity=".3" fill="#FFFFFF" />
  <path d="M14,4c-0.772,0-1.468,0.3-2,0.779C11.468,4.3,10.772,4,10,4H2v14c0,1.105,0.895,2,2,2h7h2h7c1.105,0,2-0.895,2-2V4H14z M11,18H4V6h6c0.551,0,1,0.449,1,1V18z M20,18h-7V7c0-0.551,0.449-1,1-1h6V18z" fill="#FFFFFF" />
  <path d="M10 19c0 1.105.895 2 2 2s2-.895 2-2H10zM18.989 13.84c0 1.873-1.684 2.126-1.982 2.16l-.883 0C15.849 15.965 14 15.78 14 13.453h1.665c0 1.374.776 1.317.894 1.317.129 0 .765-.022.765-.92 0-1.794-3.047-.998-3.047-3.686 0-1.843 1.672-2.13 1.971-2.165l.888.023C17.418 8.072 19 8.402 19 10.515h-1.665c0-1.105-.514-1.279-.729-1.279-.118 0-.665.028-.665.935C15.942 11.755 18.989 11.261 18.989 13.84z" fill="#FFFFFF" />
  <path d="M16 7H17V9H16zM16 16H17V17H16z" fill="#FFFFFF" />
</svg>