<?xml version="1.0" encoding="utf-8"?>
<svg xmlns="http://www.w3.org/2000/svg" viewBox="0 0 24 24" width="96" height="96">
  <path d="M7 11H17V13H7z" fill="#D503FF" />
  <path d="M18 7c-.712 0-3.288 0-4 0v2c.772 0 3.228 0 4 0 1.657 0 3 1.343 3 3s-1.343 3-3 3c-.772 0-3.228 0-4 0v2c.712 0 3.288 0 4 0 2.761 0 5-2.239 5-5S20.761 7 18 7zM6 17c.712 0 3.288 0 4 0v-2c-.772 0-3.228 0-4 0-1.657 0-3-1.343-3-3s1.343-3 3-3c.772 0 3.228 0 4 0V7C9.288 7 6.712 7 6 7c-2.761 0-5 2.239-5 5S3.239 17 6 17z" fill="#D503FF" />
</svg>