<?xml version="1.0" encoding="utf-8"?>
<svg xmlns="http://www.w3.org/2000/svg" viewBox="0 0 24 24" width="96" height="96">
  <path d="M6 10H8V14H6zM16 10H18V14H16zM10 10H14V17H10zM17 22c-1.7 0-3-1.3-3-3 0-1.7 1.3-3 3-3 1.7 0 3 1.3 3 3C20 20.7 18.7 22 17 22zM17 18c-.6 0-1 .4-1 1 0 .6.4 1 1 1 .6 0 1-.4 1-1C18 18.4 17.6 18 17 18zM7 22c-1.7 0-3-1.3-3-3 0-1.7 1.3-3 3-3 1.7 0 3 1.3 3 3C10 20.7 8.7 22 7 22zM7 18c-.6 0-1 .4-1 1 0 .6.4 1 1 1 .6 0 1-.4 1-1C8 18.4 7.6 18 7 18z" fill="#D503FF" />
  <path d="M20,18H4c-1.1,0-2-0.9-2-2V7.7c0-0.8,0.5-1.5,1.2-1.8L12,1.9l8.8,3.9c0.7,0.3,1.2,1,1.2,1.8V16C22,17.1,21.1,18,20,18z M12,4.1L4,7.6L4,16h16V7.7L12,4.1z" fill="#D503FF" />
  <path d="M19,17h1c0.6,0,1-0.4,1-1V7.7c0-0.4-0.2-0.8-0.6-0.9L12,3L3.6,6.7 C3.2,6.9,3,7.3,3,7.7V16c0,0.6,0.4,1,1,1h1H19z" opacity=".3" fill="#D503FF" />
</svg>