<?xml version="1.0" encoding="utf-8"?>
<svg xmlns="http://www.w3.org/2000/svg" viewBox="0 0 24 24" width="96" height="96">
  <path d="M10.1,19H5V9h14v1.1c0.7,0.1,1.4,0.3,2,0.5V9h1V4.5C22,3.7,21.3,3,20.5,3h-17C2.7,3,2,3.7,2,4.5V9h1v10c0,1.1,0.9,2,2,2 h5.6C10.3,20.4,10.2,19.7,10.1,19z M4,7V5h16v2H4z" fill="#FFFFFF" />
  <path d="M14.1,11H9v2h2.8C12.4,12.2,13.2,11.5,14.1,11z" fill="#FFFFFF" />
  <path d="M10,18c0-4.4,3.6-8,8-8c0.7,0,1.4,0.1,2,0.3V4H4v16h6.3 C10.1,19.4,10,18.7,10,18z" opacity=".3" fill="#FFFFFF" />
  <path d="M18,24c-3.3,0-6-2.7-6-6s2.7-6,6-6s6,2.7,6,6S21.3,24,18,24z M18,14c-2.2,0-4,1.8-4,4s1.8,4,4,4s4-1.8,4-4S20.2,14,18,14z" fill="#FFFFFF" />
  <path d="M17 12.3H19V23.6H17z" transform="rotate(-45.001 17.965 17.964)" fill="#FFFFFF" />
</svg>