<?xml version="1.0" encoding="utf-8"?>
<svg xmlns="http://www.w3.org/2000/svg" viewBox="0 0 24 24" width="96" height="96">
  <path d="M5.237,4h14.762l-3.603,7.486C16.219,11.803,15.884,12,15.521,12H7.348L5.237,4z" opacity=".3" fill="#FFFFFF" />
  <path d="M19 17H6.942c-.754 0-1.45-.409-1.816-1.069-.366-.659-.345-1.467.054-2.107l1.198-1.915L3.084 4.003l-2.071.01-.009-2 3.411-.016 4.206 10.095-1.744 2.791L6.942 15H19V17zM17 18A2 2 0 1 0 17 22 2 2 0 1 0 17 18zM7 18A2 2 0 1 0 7 22 2 2 0 1 0 7 18z" fill="#FFFFFF" />
  <path d="M15.521,13H7.348v-2h8.173l4.113-7.404l1.748,0.971l-4.113,7.404C16.917,12.605,16.247,13,15.521,13z" fill="#FFFFFF" />
  <path d="M11 9L11 5 8 5 12 1 16 5 13 5 13 9z" fill="#FFFFFF" />
</svg>