<?xml version="1.0" encoding="utf-8"?>
<svg xmlns="http://www.w3.org/2000/svg" viewBox="0 0 24 24" width="96" height="96">
  <path d="M20,11.414l-9.293,9.293C10.518,20.896,10.267,21,10,21s-0.518-0.104-0.707-0.293l-6-6C3.104,14.518,3,14.267,3,14c0-0.267,0.104-0.518,0.293-0.707L12.586,4H20V11.414z" opacity=".3" fill="#FFFFFF" />
  <path d="M16.011,10.729c-0.054-0.138-0.231-0.52-0.527-0.816c-0.898-0.898-1.855-0.182-2.339,0.248l1.163,1.163l-0.685,0.685l-1.172-1.172l-0.559,0.559l1.172,1.172l-0.69,0.69l-1.172-1.172c-0.243,0.255-1.323,1.309-0.288,2.344c0.354,0.354,0.685,0.502,0.838,0.559l-0.937,1.262c-0.198-0.114-0.676-0.415-1.127-0.865c-1.751-1.751-0.766-3.679,0.185-4.629l-0.617-0.617l0.69-0.69l0.617,0.617l0.559-0.559L10.504,8.89l0.685-0.685l0.622,0.622c0.491-0.44,2.649-2.137,4.701-0.086c0.376,0.376,0.658,0.853,0.766,1.046L16.011,10.729z" fill="#FFFFFF" />
  <path d="M10,22c-0.533,0-1.035-0.208-1.413-0.585l-6.001-6.001C2.208,15.038,2,14.535,2,14s0.208-1.038,0.587-1.415L12.172,3H21v8.828l-9.586,9.586C11.038,21.792,10.535,22,10,22z M13,5l-9,9l6,6l9-9V5H13z" fill="#FFFFFF" />
</svg>