<?xml version="1.0" encoding="utf-8"?>
<svg xmlns="http://www.w3.org/2000/svg" viewBox="0 0 24 24" width="96" height="96">
  <path d="M16 19H8v-4h8V19zM18 13H6v8h12V13L18 13zM6 3H8V8H6zM16 3H18V8H16zM18 10A1 1 0 1 0 18 12 1 1 0 1 0 18 10z" fill="#FFFFFF" />
  <path d="M19 7H5c-1.65 0-3 1.35-3 3v7h5v-2H4v-5c0-.552.448-1 1-1h14c.552 0 1 .448 1 1v5h-3v2h5v-7C22 8.35 20.65 7 19 7zM9 3L12 6 15 3z" fill="#FFFFFF" />
  <path d="M19,8H5c-1.105,0-2,0.895-2,2v6h4v-2h10v2h4v-6C21,8.895,20.105,8,19,8z" opacity=".3" fill="#FFFFFF" />
</svg>