<?xml version="1.0" encoding="utf-8"?>
<svg xmlns="http://www.w3.org/2000/svg" viewBox="0 0 24 24" width="96" height="96">
  <path d="M9 7H15V9H9zM22.923 19.76C22.971 19.513 23 19.26 23 19s-.029-.513-.077-.76l.806-.599c.103-.077.133-.219.068-.33l-.936-1.621c-.064-.112-.202-.157-.32-.106l-.936.405c-.379-.328-.817-.584-1.301-.752l-.117-1.012C20.173 14.096 20.065 14 19.936 14h-1.872c-.129 0-.237.096-.252.224l-.117 1.012c-.484.168-.921.423-1.301.752l-.936-.405c-.118-.051-.256-.006-.32.106l-.936 1.621c-.064.112-.035.254.068.33l.806.599C15.029 18.487 15 18.74 15 19s.029.513.077.76l-.806.599c-.103.077-.133.219-.068.33l.936 1.621c.064.112.202.157.32.106l.936-.405c.379.328.817.584 1.301.752l.117 1.012C17.827 23.904 17.935 24 18.064 24h1.872c.129 0 .237-.096.252-.224l.117-1.012c.484-.168.921-.423 1.301-.752l.936.405c.118.051.256.005.32-.106l.936-1.621c.064-.112.035-.254-.068-.33L22.923 19.76zM19 20.75c-.966 0-1.75-.784-1.75-1.75 0-.967.784-1.75 1.75-1.75s1.75.783 1.75 1.75C20.75 19.966 19.966 20.75 19 20.75z" fill="#FFFFFF" />
  <path d="M12,19H5V5h14l0,7c0,0,0,0,0,0c0.695,0,1.366,0.105,2,0.294V5c0-1.103-0.897-2-2-2H5C3.897,3,3,3.897,3,5v14 c0,1.103,0.897,2,2,2h7.294C12.105,20.366,12,19.695,12,19z" fill="#FFFFFF" />
  <path d="M12,19c0-3.866,3.134-7,7-7c0.34,0,0.673,0.033,1,0.08V4H4v16h8.08C12.033,19.673,12,19.34,12,19z" opacity=".3" fill="#FFFFFF" />
</svg>