<?xml version="1.0" encoding="utf-8"?>
<svg xmlns="http://www.w3.org/2000/svg" viewBox="0 0 24 24" width="96" height="96">
  <path d="M19 20H5c-.552 0-1-.448-1-1V8h16v11C20 19.552 19.552 20 19 20zM21 8H3V4.5C3 4.224 3.224 4 3.5 4h17C20.776 4 21 4.224 21 4.5V8z" opacity=".3" fill="#FFFFFF" />
  <path d="M19,21H5c-1.103,0-2-0.897-2-2V7h18v12C21,20.103,20.103,21,19,21z M5,9v10h14.001L19,9H5z" fill="#FFFFFF" />
  <path d="M22 9H2V4.5C2 3.673 2.673 3 3.5 3h17C21.327 3 22 3.673 22 4.5V9zM4 7h16V5H4V7zM13 15H17V17H13z" fill="#FFFFFF" />
</svg>