<?xml version="1.0" encoding="utf-8"?>
<svg xmlns="http://www.w3.org/2000/svg" viewBox="0 0 24 24" width="96" height="96">
  <path d="M12,15c2.689,0,5.15,0.968,7.061,2.57C20.272,16.037,21,14.105,21,12c0-4.971-4.029-9-9-9s-9,4.029-9,9c0,2.105,0.728,4.037,1.939,5.57C6.85,15.968,9.311,15,12,15z M12,7c1.105,0,2,0.895,2,2c0,1.105-0.895,2-2,2s-2-0.895-2-2C10,7.895,10.895,7,12,7z" opacity=".3" fill="#FFFFFF" />
  <path d="M12,12.25c1.792,0,3.25-1.458,3.25-3.25S13.792,5.75,12,5.75S8.75,7.208,8.75,9S10.208,12.25,12,12.25z M12,7.75c0.689,0,1.25,0.561,1.25,1.25s-0.561,1.25-1.25,1.25S10.75,9.689,10.75,9S11.311,7.75,12,7.75z" fill="#FFFFFF" />
  <path d="M12,2C6.477,2,2,6.477,2,12c0,5.523,4.477,10,10,10s10-4.477,10-10C22,6.477,17.523,2,12,2z M12,20c-4.418,0-8-3.582-8-8s3.582-8,8-8s8,3.582,8,8S16.418,20,12,20z" fill="#FFFFFF" />
  <path d="M6.449,17.755C7.229,17.17,8.897,16,12,16s4.771,1.17,5.551,1.755c0.191-0.184,0.376-0.376,0.55-0.58l0.678-0.799l-0.829-0.641C16.398,14.538,13.537,14,12,14s-4.398,0.538-5.949,1.735l-0.829,0.641l0.678,0.799C6.073,17.379,6.258,17.571,6.449,17.755z" fill="#FFFFFF" />
</svg>