<?xml version="1.0" encoding="utf-8"?>
<svg xmlns="http://www.w3.org/2000/svg" viewBox="0 0 48 48" width="144" height="144">
  <path d="M14.5 4C12.032499 4 10 6.0324991 10 8.5L10 39.5C10 41.967501 12.032499 44 14.5 44L33.5 44C35.967501 44 38 41.967501 38 39.5L38 8.5C38 6.0324991 35.967501 4 33.5 4L14.5 4 z M 14.5 7L33.5 7C34.346499 7 35 7.6535009 35 8.5L35 39.5C35 40.346499 34.346499 41 33.5 41L14.5 41C13.653501 41 13 40.346499 13 39.5L13 8.5C13 7.6535009 13.653501 7 14.5 7 z M 17.5 11 A 1.5 1.5 0 0 0 17.5 14 A 1.5 1.5 0 0 0 17.5 11 z M 22.5 11 A 1.50015 1.50015 0 1 0 22.5 14L30.5 14 A 1.50015 1.50015 0 1 0 30.5 11L22.5 11 z M 17.5 17 A 1.5 1.5 0 0 0 17.5 20 A 1.5 1.5 0 0 0 17.5 17 z M 22.5 17 A 1.50015 1.50015 0 1 0 22.5 20L30.5 20 A 1.50015 1.50015 0 1 0 30.5 17L22.5 17 z M 17.5 23 A 1.5 1.5 0 0 0 17.5 26 A 1.5 1.5 0 0 0 17.5 23 z M 22.5 23 A 1.50015 1.50015 0 1 0 22.5 26L30.5 26 A 1.50015 1.50015 0 1 0 30.5 23L22.5 23 z M 17.5 34 A 1.5 1.5 0 0 0 17.5 37 A 1.5 1.5 0 0 0 17.5 34 z M 22.5 34 A 1.50015 1.50015 0 1 0 22.5 37L30.5 37 A 1.50015 1.50015 0 1 0 30.5 34L22.5 34 z" fill="#FFFFFF" />
</svg>