<?xml version="1.0" encoding="utf-8"?>
<svg xmlns="http://www.w3.org/2000/svg" viewBox="0 0 24 24" width="96" height="96">
  <path d="M20,20H4V8.2c0-0.4,0.2-0.8,0.6-0.9L12,4l7.4,3.3C19.8,7.5,20,7.8,20,8.2 V20z" opacity=".3" fill="#FFFFFF" />
  <path d="M21,21H3V8.2c0-0.8,0.5-1.5,1.2-1.8L12,2.9l7.8,3.5c0.7,0.3,1.2,1,1.2,1.8V21z M5,19h14V8.2l-7-3.1L5,8.2L5,19z" fill="#FFFFFF" />
  <path d="M16,21c-0.6,0-1-0.4-1-1v-8H9v8c0,0.6-0.4,1-1,1s-1-0.4-1-1V10h10v10C17,20.6,16.6,21,16,21z" fill="#FFFFFF" />
  <path d="M11 18H13V20H11z" fill="#FFFFFF" />
</svg>