<?xml version="1.0" encoding="utf-8"?>
<svg xmlns="http://www.w3.org/2000/svg" viewBox="0 0 24 24" width="96" height="96">
  <path d="M12 11c-2.2 0-4-1.8-4-4s1.8-4 4-4 4 1.8 4 4S14.2 11 12 11zM12 5c-1.1 0-2 .9-2 2s.9 2 2 2 2-.9 2-2S13.1 5 12 5zM22.9 19.8c0-.2.1-.5.1-.8s0-.5-.1-.8l.8-.6c.1-.1.1-.2.1-.3l-.9-1.6c-.1-.1-.2-.2-.3-.1l-1 .4c-.4-.3-.8-.6-1.3-.8l-.1-1c0-.1-.1-.2-.3-.2H18c-.1 0-.2.1-.3.2l-.1 1c-.5.2-.9.4-1.3.8l-.9-.4c-.1-.1-.3 0-.3.1l-.9 1.6c-.1.1 0 .3.1.3l.8.6c0 .2-.1.5-.1.8s0 .5.1.8l-.8.6c-.1.1-.1.2-.1.3l.9 1.6c.1.1.2.2.3.1l.9-.4c.4.3.8.6 1.3.8l.1 1c0 .1.1.2.3.2h1.9c.1 0 .2-.1.3-.2l.1-1c.5-.2.9-.4 1.3-.8l.9.4c.1.1.3 0 .3-.1l.9-1.6c.1-.1 0-.3-.1-.3L22.9 19.8zM19 20.7c-1 0-1.8-.8-1.8-1.8s.8-1.8 1.8-1.8 1.8.8 1.8 1.8C20.8 20 20 20.7 19 20.7z" fill="#D503FF" />
  <path d="M12 4A3 3 0 1 0 12 10A3 3 0 1 0 12 4Z" opacity=".3" fill="#D503FF" />
  <path d="M12,19H5v-0.5c0-0.9,3.7-2.5,7-2.5c0.2,0,0.4,0,0.7,0c0.3-0.7,0.8-1.3,1.3-1.9c-0.7-0.1-1.4-0.2-2-0.2c-3.1,0-9,1.5-9,4.5 V21h9.3C12.1,20.4,12,19.7,12,19z" fill="#D503FF" />
  <path d="M12,19c0-1.5,0.5-2.9,1.3-4c-0.1,0-0.2,0-0.3,0c-8,0-9,3-9,3v2h8.1 C12,19.7,12,19.3,12,19z" opacity=".3" fill="#D503FF" />
</svg>