<svg xmlns="http://www.w3.org/2000/svg" xmlns:xlink="http://www.w3.org/1999/xlink" width="439.889" height="53.212" viewBox="0 0 439.889 53.212">
  <defs>
    <clipPath id="clip-path">
      <rect id="Rectangle_3" data-name="Rectangle 3" width="439.889" height="53.212" transform="translate(0 0)" fill="none"/>
    </clipPath>
    <clipPath id="clip-path-2">
      <rect id="Rectangle_2" data-name="Rectangle 2" width="377.948" height="19.503" transform="translate(1.018 24.921)" fill="none"/>
    </clipPath>
    <clipPath id="clip-path-5">
      <rect id="Rectangle_5" data-name="Rectangle 5" width="40.402" height="40.4" transform="translate(394.141 5.611)" fill="none"/>
    </clipPath>
    <clipPath id="clip-path-6">
      <path id="Path_7" data-name="Path 7" d="M411.031,5.71a12.225,12.225,0,0,0-1.33.238q-.952.224-1.876.541a20.164,20.164,0,0,0-5.6,2.983,20.558,20.558,0,0,0-7.982,14.215c-.066.674-.1,1.347-.1,2.023a20.279,20.279,0,0,0,5.166,13.557,17.892,17.892,0,0,0,23.874-5.66,11.966,11.966,0,1,1-10.872-19.756,5.2,5.2,0,0,0,1.537-.375,4.909,4.909,0,0,0,1.223-.852,3.028,3.028,0,0,0,.6-.809,2.184,2.184,0,0,1,.576-.793.861.861,0,0,1,.1-.062,1.052,1.052,0,0,1,1.44.391,7.742,7.742,0,0,1,.346,1.5,4.281,4.281,0,0,0,.657,1.249,4.2,4.2,0,0,0,2.26,1.537,3.991,3.991,0,0,0,1.082.127,4.191,4.191,0,0,0,2.382-7.6h0a4.142,4.142,0,0,0-4.937.094c-.227.178-.439.379-.676.538a2.2,2.2,0,0,1-1.271.37,1.917,1.917,0,0,1-1.225-.485,5.566,5.566,0,0,1-.864-1.269,3.7,3.7,0,0,0-1.128-1.122,4.08,4.08,0,0,0-2.065-.673c-.045,0-.091,0-.137,0a10.384,10.384,0,0,0-1.173.1" fill="none"/>
    </clipPath>
    <linearGradient id="linear-gradient" x1="-7.819" y1="1.104" x2="-7.799" y2="1.104" gradientUnits="objectBoundingBox">
      <stop offset="0" stop-color="#5f189f"/>
      <stop offset="0.394" stop-color="#5f189f"/>
      <stop offset="1" stop-color="#581799"/>
    </linearGradient>
  </defs>
  <g id="homescreen" transform="translate(0 0)">
    <g id="Group_8" data-name="Group 8">
      <g id="Group_7" data-name="Group 7" clip-path="url(#clip-path)">
        <path id="Path_1" data-name="Path 1" d="M314.743,50.547H3.525a1.3,1.3,0,1,1,0-2.56H314.743a1.3,1.3,0,1,1,0,2.56" fill="#c824ff"/>
        <g id="Group_6" data-name="Group 6" style="isolation: isolate">
          <g id="Group_5" data-name="Group 5">
            <g id="Group_4" data-name="Group 4" clip-path="url(#clip-path-2)">
              <g id="Group_3" data-name="Group 3" style="isolation: isolate">
                <g id="Group_2" data-name="Group 2">
                  <g id="Group_1" data-name="Group 1" clip-path="url(#clip-path-2)">
                    <text id="EXTRA_SERVICES_SYSTEM_OF_GENIUS_SYSTEMS" data-name="EXTRA SERVICES SYSTEM OF GENIUS SYSTEMS" transform="translate(1.018 38.477)" fill="#c824ff" font-size="15.8" font-family="Arial-BoldMT, Arial" font-weight="700"><tspan x="0" y="0">EXTR</tspan><tspan y="0" letter-spacing="-0.037em">A</tspan><tspan y="0" xml:space="preserve"> SE</tspan><tspan y="0" letter-spacing="-0.018em">R</tspan><tspan y="0">VICES SYSTEM OF GENIUS SYSTEMS</tspan></text>
                  </g>
                </g>
              </g>
            </g>
          </g>
        </g>
        <path id="Path_2" data-name="Path 2" d="M9.54,19.36H6.447c-.459,2.195-2.256,3.293-5.429,3.293V20.4q2.754,0,2.754-2.635V10.319H6.586v6.366H9.54ZM6.407,8.8H3.932v-2.3H6.407ZM22.556,19.36H19.362a4.312,4.312,0,0,1-3.732,1.716,4.4,4.4,0,0,1-3.792-1.716H8.784V16.685H11.02c0-2.874,1.636-4.67,4.53-4.67a4.292,4.292,0,0,1,4.67,4.67h2.336Zm-5.11-2.734c0-1.577-.6-2.375-1.776-2.375h-.2c-1.018,0-1.7.958-1.7,2.255,0,1.337.678,2.3,1.856,2.3C16.768,18.8,17.446,17.963,17.446,16.626ZM24.036,8.8H21.561v-2.3h2.475ZM30.942,19.36h-9V16.685h1.837c.938,0,1.417-.638,1.417-1.916v-4.45h2.814V14.67a5.915,5.915,0,0,1-.34,2.015h3.274ZM27.788,8.8H25.313v-2.3h2.475ZM51.062,19.36H30.5V16.685H32.62c.918,0,1.417-.5,1.417-1.9v-4.47h2.815V14.67a5.831,5.831,0,0,1-.34,2.015h1.777c.938,0,1.417-.6,1.417-1.8v-4.57H42.5V14.67a5.855,5.855,0,0,1-.339,2.015h1.776c.938,0,1.417-.6,1.417-1.8v-4.57h2.814V14.65a5.6,5.6,0,0,1-.359,2.035h3.253Zm1.622,3.313H50.209V20.358h2.475ZM59.65,19.36H50.668V16.685h1.837c.938,0,1.4-.638,1.4-1.916v-4.45h2.814V14.67a5.916,5.916,0,0,1-.32,2.015H59.65Zm-3.214,3.313H53.962V20.358h2.474Zm2.378-3.313V16.685h2.515a1.279,1.279,0,0,0,1.3-.878,2.776,2.776,0,0,0,.12-1.038v-4.45H65.56V14.67a5.831,5.831,0,0,1-.34,2.015H67c.938,0,1.417-.6,1.417-1.8v-4.57h2.794V14.67a5.855,5.855,0,0,1-.339,2.015h1.776c.938,0,1.417-.6,1.417-1.8v-4.57h2.814V14.65A4.651,4.651,0,0,1,75.419,18.3a3.908,3.908,0,0,1-2.674,1.058Zm50.521,0H94.266a9.02,9.02,0,0,1-.9,1.257,6.12,6.12,0,0,1-9.061.1,6.755,6.755,0,0,1-1.817-4.83V10.3h2.8v5.329a5.369,5.369,0,0,0,.818,3.033A3.038,3.038,0,0,0,88.8,20.078a3.084,3.084,0,0,0,2.695-1.417,5.363,5.363,0,0,0,.8-3.033V10.3H95.1v.02h.02V14.67a5.2,5.2,0,0,1-.02.558v.659c0,.28-.02.539-.04.8h1.5c.938,0,1.417-.6,1.417-1.8v-4.57h2.794V14.67a5.832,5.832,0,0,1-.339,2.015h1.776c.939,0,1.418-.6,1.418-1.8v-4.57h2.814V14.65a5.578,5.578,0,0,1-.36,2.035h3.254Zm1.6,3.313h-2.475V20.358h2.475ZM117.9,19.36h-8.981V16.685h1.836c.938,0,1.4-.638,1.4-1.916v-4.45h2.814V14.67a5.916,5.916,0,0,1-.319,2.015H117.9Zm-3.213,3.313h-2.475V20.358h2.475Zm11.8-3.313h-9V16.685h1.836c.938,0,1.417-.638,1.417-1.916v-4.45h2.814V14.67a5.939,5.939,0,0,1-.339,2.015h3.273ZM123.335,8.8h-2.494v-2.3h2.494Zm4.833,13.871h-2.475V20.358h2.475Zm6.965-3.313h-8.981V16.685h1.836c.938,0,1.4-.638,1.4-1.916v-4.45H132.2V14.67a5.94,5.94,0,0,1-.319,2.015h3.253Zm-3.213,3.313h-2.475V20.358h2.475Zm16.907-3.313h-14.27V16.685h11.3a4.124,4.124,0,0,0-4.171-4.011,5.048,5.048,0,0,0-3.353,1.437c-.28-.379-.739-1-1.4-1.9a6.6,6.6,0,0,1,4.949-2.116c4.571.02,6.946,3.134,6.946,8.343Zm-5.409,3.313h-2.495V20.358h2.495Zm26.65-3.313h-4.092a6.06,6.06,0,0,1-5.448,3.313,6.488,6.488,0,0,1-6.307-6.786V10.319h2.814v5.309c0,2.634,1.337,4.45,3.513,4.45,2.155,0,3.492-1.876,3.492-4.45V10.319h2.8v6.366h3.233ZM161.9,8.8H159.43v-2.3H161.9Zm19.2,7.724a4.326,4.326,0,0,1-4.59,4.55,4.377,4.377,0,0,1-3.792-1.716h-3.593V16.685h2.774c0-2.854,1.637-4.67,4.511-4.67S181.109,13.791,181.109,16.526Zm-2.774.1c0-1.577-.6-2.375-1.776-2.375h-.2c-1.018,0-1.716.938-1.716,2.255,0,1.357.678,2.3,1.876,2.3C177.617,18.8,178.335,17.923,178.335,16.626Zm25.352-.559a3.037,3.037,0,0,1-3.373,3.293h-7.225q-6.617,0-6.607-5.588V10.3h2.755v3.473a2.552,2.552,0,0,0,1.117,2.415,5.762,5.762,0,0,0,2.795.5H198.3a4.37,4.37,0,0,0,1.636-.2,1.785,1.785,0,0,0,1-1.836V10.319h2.755Zm-9.1-5.748h-2.495V8h2.495Zm3.772,0h-2.495V8h2.495Zm13.377,9.041H209.1a3.056,3.056,0,0,1-3.373-3.293V6.487h2.794V14.61c0,1.357.34,2.075,2.4,2.075h.818Zm11.338-2.834a4.326,4.326,0,0,1-4.59,4.55,4.377,4.377,0,0,1-3.792-1.716H211.1V16.685h2.774c0-2.854,1.637-4.67,4.511-4.67S223.073,13.791,223.073,16.526Zm-2.774.1c0-1.577-.6-2.375-1.776-2.375h-.2c-1.018,0-1.716.938-1.716,2.255,0,1.357.678,2.3,1.876,2.3C219.58,18.8,220.3,17.923,220.3,16.626Zm17.587,2.734H224.952V16.685H232.2c0-2.794-1.516-4.031-5.069-4.031V10.319a12.543,12.543,0,0,1,3.732.379,5.772,5.772,0,0,1,4.132,5.968h2.894Zm13.535,0h-14.27V16.685h11.3a4.123,4.123,0,0,0-4.171-4.011,5.05,5.05,0,0,0-3.353,1.437c-.279-.379-.738-1-1.4-1.9a6.6,6.6,0,0,1,4.95-2.116c4.57.02,6.945,3.134,6.945,8.343ZM245.653,8.8h-2.495v-2.3h2.495ZM260.368,19.36h-2.794V6.487h2.794Zm10.459,0h-3.093c-.459,2.195-2.256,3.293-5.429,3.293V20.4q2.754,0,2.754-2.635V10.319h2.814v6.366h2.954Zm3.675,0h-4.271V16.685H274.5Zm3.953,0h-4.271V16.685h4.271ZM280.192,8.8h-2.474v-2.3h2.474ZM287.1,19.36h-9V16.685h1.836c.938,0,1.417-.638,1.417-1.916v-4.45h2.814V14.67a5.939,5.939,0,0,1-.339,2.015H287.1ZM283.945,8.8H281.47v-2.3h2.475ZM307.218,19.36H286.661V16.685h2.116c.918,0,1.417-.5,1.417-1.9v-4.47h2.814V14.67a5.855,5.855,0,0,1-.339,2.015h1.776c.938,0,1.417-.6,1.417-1.8v-4.57h2.794V14.67a5.855,5.855,0,0,1-.339,2.015h1.776c.938,0,1.417-.6,1.417-1.8v-4.57h2.814V14.65a5.578,5.578,0,0,1-.359,2.035h3.253Zm13.4,0h-14.53V16.685h11.5a4.161,4.161,0,0,0-4.051-3.812H308.5l3.992-6.366h3.313L313.291,10.3h1.537c3.812.4,5.788,3.333,5.788,8.023Zm5.053,3.972h-3.592V22.314h.8a1.934,1.934,0,0,1-.1-.539,1.527,1.527,0,0,1,1.536-1.6,1.383,1.383,0,0,1,1.338.938l-.9.419c-.1-.259-.259-.4-.459-.4-.3,0-.459.2-.459.6,0,.3.08.5.26.559h1.576Zm-.219-3.972h-2.794V6.487h2.794Zm20.879-4.471a4.374,4.374,0,0,1-1.3,3.333,4.742,4.742,0,0,1-3.373,1.2,4.23,4.23,0,0,1-4.511-4.531,5.048,5.048,0,0,1,.319-1.856H336.19c-1.557,0-2.335,1.018-2.335,3.034v6.606H331.1V15.628a5.286,5.286,0,0,1,1.477-3.992,4.772,4.772,0,0,1,3.492-1.317h5.689a4.318,4.318,0,0,1,4.57,4.57Zm-2.754-.08a2.5,2.5,0,0,0-.439-1.536,1.767,1.767,0,0,0-2.814.039,2.667,2.667,0,0,0-.44,1.577,2.831,2.831,0,0,0,.4,1.537,1.478,1.478,0,0,0,1.317.738h.2C342.976,17.164,343.575,16.386,343.575,14.809Zm10.8,4.551h-2.635a3.056,3.056,0,0,1-3.373-3.293V6.487h2.794V14.61c0,1.357.34,2.075,2.4,2.075h.819Zm18.6,0H354.039V16.685h3.194V6.507h2.774l-.26,6.526a7.6,7.6,0,0,1,5.589-2.754c3.293,0,5.169,2.315,5.468,6.406h2.176Zm-5.109-2.675a2.662,2.662,0,0,0,.02-.4c0-2.075-1.038-3.572-2.775-3.572-2.055,0-3.892,1.337-5.428,3.971Zm-2-7.883H363.4v-2.3h2.475Zm0,0v-2.3H363.4V8.8Zm0,0H363.4v-2.3h2.475Zm12.7,6.706a3.993,3.993,0,0,1-.878,2.634,3.315,3.315,0,0,1-2.734,1.218h-2.375V16.685h1.776c.938,0,1.417-.658,1.417-1.955V10.319h2.794ZM378.394,8.8h-2.5v-2.3h2.5Z" fill="#5c189c"/>
      </g>
    </g>
    <path id="Path_3" data-name="Path 3" d="M320.607,45.505h1.085v2.053c0,1,.5,1.715,1.353,1.715s1.338-.715,1.338-1.715V45.505h1.085v2.153a2.437,2.437,0,1,1-4.861,0Zm2.9-.577h-.954v-.884h.954ZM328.57,49h-1.015a1.177,1.177,0,0,1-1.3-1.269V44.036h1.076v3.13c0,.523.131.8.923.8h.315Zm4.893,0h-.623a5.724,5.724,0,0,1-1.922-.285,5.734,5.734,0,0,1-1.923.285h-.7V47.966h.7a1.978,1.978,0,0,0,.631-.061,1.874,1.874,0,0,1-.5-1.262,1.945,1.945,0,0,1,.092-.584,1.734,1.734,0,0,1,1.7-1.215,1.713,1.713,0,0,1,1.7,1.215,1.916,1.916,0,0,1,.093.584,1.879,1.879,0,0,1-.5,1.262,2.043,2.043,0,0,0,.63.061h.623Zm-2.791-4.822h-.954V43.29h.954Zm.623,3.276a1.026,1.026,0,0,0,.446-.885.821.821,0,0,0-.823-.884.79.79,0,0,0-.615.269.982.982,0,0,0-.2.615,1.026,1.026,0,0,0,.446.885,2.487,2.487,0,0,0,.369.231A3.047,3.047,0,0,0,331.3,47.451Zm.83-3.276h-.953V43.29h.953Zm1.888.753h-.954v-.884h.954Zm1.522,2.584a1.538,1.538,0,0,1-.338,1.015,1.278,1.278,0,0,1-1.054.47h-.915V47.966h.685c.361,0,.546-.254.546-.754v-1.7h1.076Zm-.069-2.584h-.961v-.884h.961Zm2.017,5.6H336.1v-.392h.308a.752.752,0,0,1-.039-.208.589.589,0,0,1,.593-.615.532.532,0,0,1,.515.361l-.346.162c-.039-.1-.1-.154-.177-.154-.115,0-.177.077-.177.231,0,.115.031.192.1.215h.608ZM337.4,49h-1.077V44.036H337.4Z" fill="#5f189f"/>
    <text id="_" data-name="," transform="translate(339.33 48.997)" fill="#5f189f" font-size="7.695" font-family="MVBoli, MV Boli"><tspan x="0" y="0">,</tspan></text>
    <path id="Path_4" data-name="Path 4" d="M346.247,48.289a1.927,1.927,0,0,1-.538,1.53,2.363,2.363,0,0,1-1.608.447V49.4q1.062,0,1.062-1.016V45.513h1.084Zm5.178.708h-1.016q-.184,1.269-1.753,1.269h-.115V49.4h.092c.415,0,.661-.154.746-.454a2.638,2.638,0,0,1-.662.047,1.691,1.691,0,0,1-1.745-1.754,1.661,1.661,0,0,1,1.745-1.738,1.679,1.679,0,0,1,1.708,1.761v.7h1Zm-2.077-1.031V47.22a.667.667,0,0,0-.661-.746c-.408,0-.623.315-.623.723a.691.691,0,0,0,.661.769ZM358.541,49h-7.3V47.966h1.231V44.044h1.068l-.1,2.515A2.927,2.927,0,0,1,355.6,45.5c1.269,0,1.992.893,2.107,2.469h.838Zm-1.968-1.031a1.136,1.136,0,0,0,.007-.154c0-.8-.4-1.376-1.069-1.376a2.533,2.533,0,0,0-2.092,1.53Zm2.6-3.038h-.954v-.884h.954Zm1.522,2.584a1.538,1.538,0,0,1-.338,1.015,1.278,1.278,0,0,1-1.054.47h-.915V47.966h.685c.361,0,.546-.254.546-.754v-1.7H360.7Zm-.069-2.584h-.961v-.884h.961Z" fill="#5f189f"/>
    <g id="Group_10" data-name="Group 10">
      <g id="Group_9" data-name="Group 9" clip-path="url(#clip-path)">
        <text id="_2" data-name=" " transform="translate(360.945 48.997)" fill="#5f189f" font-size="7.695" font-family="SegoeUI, Segoe UI"><tspan x="0" y="0"> </tspan></text>
      </g>
    </g>
    <text id="_3" data-name="," transform="translate(362.448 48.997)" fill="#5f189f" font-size="7.695" font-family="MVBoli, MV Boli"><tspan x="0" y="0">,</tspan></text>
    <path id="Path_5" data-name="Path 5" d="M372.056,49h-1.084a1.312,1.312,0,0,1-1.292-.946,1.208,1.208,0,0,1-1.092.461c-.923,0-1.515-.8-1.515-1.861,0-1.146.577-1.884,1.592-1.884,0-.008.684-.008,2.053-.008v2.423a.7.7,0,0,0,.785.784h.553Zm-3.168-4.953h-.954v-.892h.954Zm.723,2.522V45.551H368.9c-.438,0-.761.485-.761,1.085,0,.538.308.984.738.984C369.334,47.62,369.611,47.2,369.611,46.566Zm.723-2.522h-.954v-.892h.954ZM376.9,49h-.623a6.627,6.627,0,0,0-3.845,0h-.7V47.966h.7a1.97,1.97,0,0,0,.63-.061,1.878,1.878,0,0,1-.5-1.262,1.913,1.913,0,0,1,.092-.584,1.733,1.733,0,0,1,1.7-1.215,1.714,1.714,0,0,1,1.7,1.215,1.913,1.913,0,0,1,.092.584,1.874,1.874,0,0,1-.5,1.262,2.051,2.051,0,0,0,.631.061h.623Zm-2.792-4.822h-.953V43.29h.953Zm.623,3.276a1.026,1.026,0,0,0,.446-.885.82.82,0,0,0-.823-.884.793.793,0,0,0-.615.269.982.982,0,0,0-.2.615,1.026,1.026,0,0,0,.446.885,2.488,2.488,0,0,0,.369.231A2.974,2.974,0,0,0,374.728,47.451Zm.831-3.276h-.954V43.29h.954Zm1.887.753h-.953v-.884h.953Zm1.523,2.584a1.534,1.534,0,0,1-.339,1.015,1.275,1.275,0,0,1-1.053.47h-.915V47.966h.684c.362,0,.546-.254.546-.754v-1.7h1.077Zm-.808-3.853h-.953v-.884h.953Zm.739,1.269h-.962v-.884h.962Z" fill="#5f189f"/>
    <g id="Group_12" data-name="Group 12">
      <g id="Group_11" data-name="Group 11" clip-path="url(#clip-path-5)">
        <path id="Path_6" data-name="Path 6" d="M434.544,25.967v.152a20.183,20.183,0,0,1-35.237,13.152,17.893,17.893,0,0,0,23.874-5.663c.169-.256.4-.482.589-.731a5.784,5.784,0,0,0,1.493-3.179,3.1,3.1,0,0,0-5.865-1.457,5.716,5.716,0,1,1-.311-5.725c.065.115.133.226.2.336a5.03,5.03,0,0,0,5.681,2,4.618,4.618,0,0,0,1.6-.872c.661-.561,1.141-1.37,1.932-1.76a4.177,4.177,0,0,1,6.037,3.75Z" fill="#c824ff"/>
      </g>
    </g>
    <g id="Group_14" data-name="Group 14">
      <g id="Group_13" data-name="Group 13" clip-path="url(#clip-path-6)">
        <rect id="Rectangle_6" data-name="Rectangle 6" width="49.308" height="47.02" transform="translate(377.514 34.399) rotate(-60.001)" fill="url(#linear-gradient)"/>
      </g>
    </g>
    <path id="Path_8" data-name="Path 8" d="M393.076,17.22l-.41,1.29-.358-.143.03-.1a.751.751,0,0,0,.026-.245.72.72,0,0,0-.052-.234.59.59,0,0,0-.124-.19.463.463,0,0,0-.193-.118.572.572,0,0,0-.238-.024.612.612,0,0,0-.223.07.652.652,0,0,0-.182.15.6.6,0,0,0-.118.214.632.632,0,0,0,.035.472.581.581,0,0,0,.141.186.565.565,0,0,0,.208.118l.567.237c-.084.363-.011.582.22.655a.85.85,0,0,0,.263.033,1.842,1.842,0,0,0,.354-.043l.066.389a2.387,2.387,0,0,1-.453.049,1.2,1.2,0,0,1-.354-.051.713.713,0,0,1-.3-.184.65.65,0,0,1-.156-.265,1.119,1.119,0,0,1-.046-.342l-.276-.1a.926.926,0,0,1-.341-.192,1,1,0,0,1-.335-.675,1.015,1.015,0,0,1,.047-.4,1.04,1.04,0,0,1,.283-.449.991.991,0,0,1,.208-.15.968.968,0,0,1,.238-.091.957.957,0,0,1,.256-.027.923.923,0,0,1,.261.045.827.827,0,0,1,.275.147.909.909,0,0,1,.2.228l.12-.379Z" fill="#8b33be"/>
    <path id="Path_9" data-name="Path 9" d="M393.106,17.246l-.354-.15.176-.415,0-.032a.467.467,0,0,0-.221-.334.648.648,0,0,0-.232-.077,1.079,1.079,0,0,0-.3,0l-.062.009c-.021,0-.043.008-.066.014l-.069-.387q.039-.009.078-.015l.076-.012a1.447,1.447,0,0,1,.431,0,.985.985,0,0,1,.346.12.78.78,0,0,1,.239.212l.144-.34.354.151Zm1.172-.489-.309.11.113.353-.421.149-.12-.373.309-.11-.112-.353.42-.151Z" fill="#8b33be"/>
    <path id="Path_10" data-name="Path 10" d="M394.817,13.716l-.8,1.5-.34-.18.252-.475a.642.642,0,0,0,.062-.225.585.585,0,0,0-.02-.218.532.532,0,0,0-.1-.19.547.547,0,0,0-.173-.141.554.554,0,0,0-.227-.065.618.618,0,0,0-.231.029.64.64,0,0,0-.207.114.589.589,0,0,0-.156.192l-.012.019a.706.706,0,0,0-.056.239.607.607,0,0,0,.027.21.645.645,0,0,0,.094.187,1.23,1.23,0,0,0,.142.168,2.188,2.188,0,0,0,.173.155l.186.147c.053.04.105.08.155.12s.1.082.15.127a.184.184,0,0,1,.061.112.2.2,0,0,1-.022.127l-.191.365-.338-.18.115-.222-.031-.025-.052-.04-.052-.04L393.2,15.5c-.082-.062-.163-.126-.243-.191a2.32,2.32,0,0,1-.224-.2,1.571,1.571,0,0,1-.18-.23.907.907,0,0,1-.113-.265.891.891,0,0,1-.02-.308,1.307,1.307,0,0,1,.1-.365.154.154,0,0,1,.009-.025l.019-.034a1.009,1.009,0,0,1,.253-.313,1.07,1.07,0,0,1,.339-.188,1.007,1.007,0,0,1,.379-.048.951.951,0,0,1,.622.3.978.978,0,0,1,.165.245l.178-.336Z" fill="#8b33be"/>
    <path id="Path_11" data-name="Path 11" d="M394.827,12.989a.379.379,0,0,0-.049-.049l-.057-.042a.947.947,0,0,0-.359-.145,2.069,2.069,0,0,0-.539-.024l-.015-.391a2.823,2.823,0,0,1,.4,0,1.833,1.833,0,0,1,.334.055,3.368,3.368,0,0,1-.149-.48,2.264,2.264,0,0,1-.053-.417,1.616,1.616,0,0,1,.03-.352,1.221,1.221,0,0,1,.1-.29,1.034,1.034,0,0,1,.093-.157.921.921,0,0,1,.194-.2,1.036,1.036,0,0,1,.74-.216.976.976,0,0,1,.246.055.9.9,0,0,1,.22.115.832.832,0,0,1,.206.212.813.813,0,0,1,.12.291l.234-.326.312.224L394.793,13.7l-.313-.224Zm.844-1.179a1.613,1.613,0,0,0,.194-.364.888.888,0,0,0,.056-.3.474.474,0,0,0-.054-.226.46.46,0,0,0-.137-.156.553.553,0,0,0-.207-.09.657.657,0,0,0-.234-.007.673.673,0,0,0-.229.08.589.589,0,0,0-.19.173c-.01.014-.019.029-.028.044l-.027.048a.913.913,0,0,0-.08.276,1.365,1.365,0,0,0,.006.359,2.427,2.427,0,0,0,.109.445,3.8,3.8,0,0,0,.233.535Z" fill="#8b33be"/>
    <path id="Path_12" data-name="Path 12" d="M396.069,9.008l-.329.006-.005.37-.447.008L395.294,9l.328-.006.005-.37.447-.01Zm1.685.891-.9,1.018-.288-.255.3-.337.007-.032a.465.465,0,0,0-.1-.387.65.65,0,0,0-.2-.147,1.1,1.1,0,0,0-.289-.092l-.062-.011-.067-.008.057-.388a.682.682,0,0,1,.079.01l.076.013a1.425,1.425,0,0,1,.409.136.984.984,0,0,1,.29.224.791.791,0,0,1,.159.277l.245-.276Z" fill="#8b33be"/>
    <path id="Path_13" data-name="Path 13" d="M396.545,7.547c.135.059.263.122.385.188a2.9,2.9,0,0,1,.354.226c.059.045.116.09.17.135s.106.092.154.14a2.18,2.18,0,0,1,.239.277,1.871,1.871,0,0,1,.176.292,1.454,1.454,0,0,1,.108.3,1.2,1.2,0,0,1,.035.3v.082l-.447.451-.273-.271.326-.33a1.046,1.046,0,0,0-.131-.413,1.759,1.759,0,0,0-.311-.4,2.646,2.646,0,0,0-.283-.241,3.436,3.436,0,0,0-.666-.37l.164-.36Z" fill="#8b33be"/>
    <path id="Path_14" data-name="Path 14" d="M397.29,6.84a4.1,4.1,0,0,1,.65.383,2.725,2.725,0,0,1,.492.457,2.611,2.611,0,0,1,.354.547,3.22,3.22,0,0,1,.224.645l-.381.1a2.74,2.74,0,0,0-.2-.565,2.243,2.243,0,0,0-.3-.473,2.446,2.446,0,0,0-.436-.4,3.794,3.794,0,0,0-.584-.341Z" fill="#8b33be"/>
    <path id="Path_15" data-name="Path 15" d="M398.941,6.2a1,1,0,0,1,.358-.187,1.024,1.024,0,0,1,.384-.037,1.01,1.01,0,0,1,.366.108.933.933,0,0,1,.3.25,2.635,2.635,0,0,1,.259.386,1.893,1.893,0,0,1,.154.365,1.431,1.431,0,0,1,.06.342,1.324,1.324,0,0,1-.023.318,1.287,1.287,0,0,1-.1.3,1.659,1.659,0,0,1-.155.266,1.855,1.855,0,0,1-.2.242,2.818,2.818,0,0,1-.243.218l-.24-.3a2.479,2.479,0,0,0,.194-.172,1.5,1.5,0,0,0,.163-.187,1.193,1.193,0,0,0,.123-.2.962.962,0,0,0,.073-.22.835.835,0,0,0,.015-.255,1.047,1.047,0,0,1-.115.166.968.968,0,0,1-.148.145,1.041,1.041,0,0,1-.359.188,1.016,1.016,0,0,1-.386.037.981.981,0,0,1-.365-.108.97.97,0,0,1-.478-.6.975.975,0,0,1-.025-.38,1.033,1.033,0,0,1,.122-.367A1.045,1.045,0,0,1,398.941,6.2Zm.239.3a.615.615,0,0,0-.161.189.641.641,0,0,0-.074.225.6.6,0,0,0,.015.232.539.539,0,0,0,.108.213.576.576,0,0,0,.182.152.591.591,0,0,0,.224.066.613.613,0,0,0,.236-.023.656.656,0,0,0,.378-.3.61.61,0,0,0,.073-.223.618.618,0,0,0-.014-.234.567.567,0,0,0-.107-.212.557.557,0,0,0-.184-.152.608.608,0,0,0-.224-.065.621.621,0,0,0-.234.021A.606.606,0,0,0,399.18,6.494Z" fill="#8b33be"/>
    <text id="_4" data-name=" " transform="matrix(0.821, -0.571, 0.571, 0.821, 401.31, 7.445)" fill="#8b33be" font-size="3.665" font-family="HacenSudan, Hacen Sudan"><tspan x="0" y="0"> </tspan></text>
    <path id="Path_16" data-name="Path 16" d="M403.456,3.687a1.8,1.8,0,0,1,.278.158,1.383,1.383,0,0,1,.217.188.926.926,0,0,1,.128.175.77.77,0,0,1,.09.249.658.658,0,0,1-.006.265.842.842,0,0,1-.114.272,1.238,1.238,0,0,1-.234.269,1.4,1.4,0,0,1-.123.1c-.044.034-.09.069-.139.1s-.083.057-.126.083-.089.054-.134.079a3.472,3.472,0,0,1-.447.214,2.63,2.63,0,0,1-.464.139,1.826,1.826,0,0,1-.449.036,1.023,1.023,0,0,1-.393-.095.829.829,0,0,1-.2-.134.7.7,0,0,1-.137-.169.648.648,0,0,1-.086-.33.834.834,0,0,1,.08-.35,1.236,1.236,0,0,1,.232-.332,1.555,1.555,0,0,1,.362-.279,1.909,1.909,0,0,1,.249-.118l.136.36a1.511,1.511,0,0,0-.194.092,1.15,1.15,0,0,0-.241.178.927.927,0,0,0-.159.2.51.51,0,0,0-.068.2.281.281,0,0,0,.033.174.327.327,0,0,0,.07.085.407.407,0,0,0,.11.07.651.651,0,0,0,.293.063,1.447,1.447,0,0,0,.349-.041,2.4,2.4,0,0,0,.373-.12A3.1,3.1,0,0,0,403.1,5.3c.084-.047.163-.1.238-.149a2.212,2.212,0,0,0,.212-.169.661.661,0,0,0,.218-.3.355.355,0,0,0-.036-.277.7.7,0,0,0-.177-.2,1.505,1.505,0,0,0-.282-.171Zm-.445.216-.313-.1-.124.348-.425-.136.131-.37.313.1.124-.348.426.134Z" fill="#8b33be"/>
    <path id="Path_17" data-name="Path 17" d="M403.951,2.463c.089.1.17.186.244.272s.142.171.2.252.118.162.169.24.1.157.144.235.072.129.1.2.062.132.091.2.058.137.085.208.056.144.083.22l.267-.12.158.352-.662.3-.068-.2c-.033-.1-.065-.185-.1-.271s-.063-.168-.1-.247-.066-.154-.1-.228-.074-.145-.114-.216-.083-.143-.131-.215-.1-.145-.156-.22-.122-.154-.191-.235-.146-.166-.23-.256Z" fill="#8b33be"/>
    <path id="Path_18" data-name="Path 18" d="M405.486,4.518l-.139-.359.42-.163.02-.025a.464.464,0,0,0,.085-.392.631.631,0,0,0-.106-.219,1.064,1.064,0,0,0-.215-.215l-.05-.038-.055-.038.228-.319c.023.015.045.029.066.045l.061.046a1.461,1.461,0,0,1,.3.309,1.008,1.008,0,0,1,.155.332.786.786,0,0,1,.014.319l.344-.133.139.358Zm1.168.5-.295-.145-.174.327-.4-.2.185-.346.294.145.174-.326.4.2Z" fill="#8b33be"/>
    <g id="Group_16" data-name="Group 16">
      <g id="Group_15" data-name="Group 15" clip-path="url(#clip-path)">
        <path id="Path_19" data-name="Path 19" d="M406.612,3.633,408.7,3.04a1.278,1.278,0,0,0-.25-.386,1.15,1.15,0,0,0-.376-.258,1.607,1.607,0,0,0-.624-.119,2.848,2.848,0,0,0-.809.124l-.066.018c-.014-.1-.025-.17-.031-.222s-.011-.091-.013-.115a.287.287,0,0,1,0-.044l.005-.007a3.213,3.213,0,0,1,.949-.139,2.021,2.021,0,0,1,.755.151,1.538,1.538,0,0,1,.514.357,1.654,1.654,0,0,1,.33.531l.31-.088.1.37L406.717,4Zm1.574.877-.381-.234.215-.327.382.232Z" fill="#8b33be"/>
        <path id="Path_20" data-name="Path 20" d="M410.209,2.915l.2-.332a.68.68,0,0,0,.2.072.6.6,0,0,0,.216,0,.64.64,0,0,0,.24-.088.59.59,0,0,0,.173-.164.657.657,0,0,0,.1-.218.645.645,0,0,0,.007-.248.549.549,0,0,0-.091-.21.594.594,0,0,0-.162-.158.631.631,0,0,0-.211-.091.618.618,0,0,0-.239-.007.078.078,0,0,0-.024,0,.728.728,0,0,0-.225.1.63.63,0,0,0-.152.148.7.7,0,0,0-.093.187,1.245,1.245,0,0,0-.048.215,1.932,1.932,0,0,0-.02.231c0,.08,0,.159-.005.237s0,.132,0,.2-.005.129-.012.195a.183.183,0,0,1-.052.116.186.186,0,0,1-.113.059l-.412.068-.06-.378.25-.042V2.594c0-.1,0-.206.007-.309a2.288,2.288,0,0,1,.03-.3,1.464,1.464,0,0,1,.076-.282.9.9,0,0,1,.38-.452,1.3,1.3,0,0,1,.348-.142.077.077,0,0,1,.027-.008l.036-.006a1.038,1.038,0,0,1,.756.171,1,1,0,0,1,.266.275.952.952,0,0,1,.121.756,1,1,0,0,1-.167.344,1.022,1.022,0,0,1-.666.4,1,1,0,0,1-.354,0,1.271,1.271,0,0,1-.324-.116Z" fill="#8b33be"/>
        <path id="Path_21" data-name="Path 21" d="M413.017,1.124a4.473,4.473,0,0,1,.288.687,2.55,2.55,0,0,1,.113.556l.309-.02.025.384-.354.023a1,1,0,0,1-.273.54.974.974,0,0,1-.276.2,1.273,1.273,0,0,1-.316.1,1.407,1.407,0,0,1-.194.023,1.513,1.513,0,0,1-.191,0,1.3,1.3,0,0,1-.18-.027,1.171,1.171,0,0,1-.161-.048l.15-.358a.806.806,0,0,0,.233.051.983.983,0,0,0,.269-.014.856.856,0,0,0,.2-.067.616.616,0,0,0,.174-.124.6.6,0,0,0,.127-.193.8.8,0,0,0,.059-.276,1.425,1.425,0,0,0-.01-.248,2.025,2.025,0,0,0-.06-.292,3.337,3.337,0,0,0-.116-.339c-.048-.122-.107-.251-.177-.389Z" fill="#8b33be"/>
        <path id="Path_22" data-name="Path 22" d="M415.1,2.754l-1.361-.022.006-.385.451.007.028-.015a.469.469,0,0,0,.226-.331.625.625,0,0,0-.016-.244,1.02,1.02,0,0,0-.119-.279c-.009-.018-.02-.037-.031-.055l-.037-.056.331-.209c.016.022.031.044.044.066l.04.066a1.467,1.467,0,0,1,.163.4,1,1,0,0,1,.019.366.79.79,0,0,1-.107.3l.369.006Zm-.714.878-.3-.334.3-.252.3.333Z" fill="#8b33be"/>
        <path id="Path_23" data-name="Path 23" d="M416.06.284c.045.14.083.278.113.413a2.986,2.986,0,0,1,.064.415c.005.075.009.147.011.218s0,.14,0,.208a2.32,2.32,0,0,1-.08.475,1.73,1.73,0,0,1-.17.4l.455.028-.023.384-1.388-.084.023-.384.463.028a1.061,1.061,0,0,0,.224-.371,1.762,1.762,0,0,0,.1-.5,2.442,2.442,0,0,0-.005-.371,3.3,3.3,0,0,0-.059-.374,3.453,3.453,0,0,0-.1-.371l.378-.115Z" fill="#8b33be"/>
        <path id="Path_24" data-name="Path 24" d="M417.555.428c.037.142.067.282.09.418a2.75,2.75,0,0,1,.04.419c0,.074,0,.147,0,.217s-.007.14-.015.208a2.258,2.258,0,0,1-.072.359,1.873,1.873,0,0,1-.121.318,1.494,1.494,0,0,1-.169.269,1.171,1.171,0,0,1-.215.213l-.066.05-.63-.074.045-.382.461.054a1.05,1.05,0,0,0,.244-.358,1.719,1.719,0,0,0,.126-.494,2.622,2.622,0,0,0,.016-.371A3.256,3.256,0,0,0,417.25.9a3.5,3.5,0,0,0-.081-.376l.385-.094Z" fill="#8b33be"/>
        <text id="_5" data-name=" " transform="matrix(0.987, 0.16, -0.16, 0.987, 417.545, 3.466)" fill="#8b33be" font-size="3.665" font-family="HacenSudan, Hacen Sudan"><tspan x="0" y="0"> </tspan></text>
        <path id="Path_25" data-name="Path 25" d="M419.947,1.735a4.541,4.541,0,0,1,.084.74,2.537,2.537,0,0,1-.048.566l.3.068-.084.375-.346-.077a.99.99,0,0,1-.184.264,1.04,1.04,0,0,1-.229.178.988.988,0,0,1-.321.114,1.234,1.234,0,0,1-.332.012,1.4,1.4,0,0,1-.194-.033,1.536,1.536,0,0,1-.182-.056,1.241,1.241,0,0,1-.165-.076,1.072,1.072,0,0,1-.141-.092l.244-.3a.8.8,0,0,0,.21.114.958.958,0,0,0,.261.062.859.859,0,0,0,.215-.007.613.613,0,0,0,.378-.22.833.833,0,0,0,.135-.249,1.557,1.557,0,0,0,.059-.24,1.912,1.912,0,0,0,.024-.3,3.282,3.282,0,0,0-.016-.358c-.012-.13-.033-.271-.061-.422Zm-.467-.282-.223-.387L419.6.881l.226.386Z" fill="#8b33be"/>
      </g>
    </g>
    <path id="Path_26" data-name="Path 26" d="M422.661,4.269l-1.619-.528.12-.366.511.167a.662.662,0,0,0,.232.023.616.616,0,0,0,.212-.057.539.539,0,0,0,.17-.13.562.562,0,0,0,.134-.43.609.609,0,0,0-.067-.222.653.653,0,0,0-.148-.185.619.619,0,0,0-.216-.121l-.02-.009a.72.72,0,0,0-.245-.014.61.61,0,0,0-.2.063.675.675,0,0,0-.169.124,1.3,1.3,0,0,0-.14.169,1.824,1.824,0,0,0-.123.2c-.039.069-.076.139-.113.208s-.062.117-.093.174-.064.112-.1.169a.183.183,0,0,1-.1.079.2.2,0,0,1-.129,0l-.392-.126.119-.364.239.076.019-.035.031-.058.03-.058.02-.036c.048-.091.1-.182.147-.272a2.177,2.177,0,0,1,.164-.255,1.569,1.569,0,0,1,.2-.217.9.9,0,0,1,.241-.157.943.943,0,0,1,.3-.073,1.274,1.274,0,0,1,.376.033.087.087,0,0,1,.026,0l.037.012a1.028,1.028,0,0,1,.351.2,1.06,1.06,0,0,1,.243.3,1,1,0,0,1,.112.365.955.955,0,0,1-.184.664.979.979,0,0,1-.213.2l.361.118Z" fill="#8b33be"/>
    <path id="Path_27" data-name="Path 27" d="M423.866,4.812l-1.253-.532.151-.355.415.177.031,0a.467.467,0,0,0,.334-.222.623.623,0,0,0,.078-.232,1.072,1.072,0,0,0-.005-.3l-.009-.062c0-.021-.009-.043-.014-.066l.386-.07a.722.722,0,0,1,.016.078l.012.076a1.447,1.447,0,0,1,0,.431.991.991,0,0,1-.12.347.776.776,0,0,1-.212.238l.34.145Zm.308-1.882-.111-.309-.352.113-.149-.422.373-.119.11.309.352-.113.152.421Z" fill="#8b33be"/>
    <path id="Path_28" data-name="Path 28" d="M426.087,5.2a.786.786,0,0,1-.236.215l.467.259h.032a.462.462,0,0,0,.355-.186.63.63,0,0,0,.1-.222,1.013,1.013,0,0,0,.027-.3c0-.021,0-.042,0-.063s0-.044-.006-.067l.391-.029c0,.027.006.053.007.079l0,.077a1.445,1.445,0,0,1-.044.429,1.009,1.009,0,0,1-.156.332.774.774,0,0,1-.236.215l.281.156-.187.336-3.021-1.677.187-.336.394.219h.032a.468.468,0,0,0,.356-.185.645.645,0,0,0,.1-.223,1.084,1.084,0,0,0,.027-.3q0-.03,0-.063c0-.021,0-.043-.006-.067l.391-.028a.726.726,0,0,1,.007.079l0,.077a1.42,1.42,0,0,1-.044.429.987.987,0,0,1-.155.332.812.812,0,0,1-.236.215l.458.254h.033a.464.464,0,0,0,.355-.186.631.631,0,0,0,.1-.222,1.084,1.084,0,0,0,.027-.3q0-.031,0-.063c0-.021,0-.044-.006-.067l.391-.029c0,.027.006.053.008.079l0,.077a1.413,1.413,0,0,1-.044.429A.987.987,0,0,1,426.087,5.2Z" fill="#8b33be"/>
    <path id="Path_29" data-name="Path 29" d="M427.064,7.7l-.044-.325-.368.037-.059-.443.39-.039.044.325.368-.037.061.443Zm-.236-1.248.221-.315.369.258.032,0a.466.466,0,0,0,.373-.147.657.657,0,0,0,.124-.211,1.086,1.086,0,0,0,.058-.3c0-.02,0-.041,0-.063s0-.043,0-.067l.392.013a.689.689,0,0,1,0,.079l0,.076a1.427,1.427,0,0,1-.088.422,1.012,1.012,0,0,1-.189.315.8.8,0,0,1-.257.189l.3.212-.22.315Z" fill="#8b33be"/>
    <path id="Path_30" data-name="Path 30" d="M431.21,7.9c0,.027-.005.053-.009.079l-.012.076a1.184,1.184,0,0,1-.129.41,1.033,1.033,0,0,1-.255.315.814.814,0,0,1-.21.129.719.719,0,0,1-.237.055.779.779,0,0,1-.254-.031.922.922,0,0,1-.263-.131l-1.907-1.642.252-.292.341.295.032.006a.462.462,0,0,0,.385-.109.638.638,0,0,0,.145-.2,1.086,1.086,0,0,0,.088-.291c0-.02.007-.04.01-.061s0-.044.008-.067l.388.052c0,.026-.005.053-.009.078l-.012.076a1.428,1.428,0,0,1-.13.411,1.011,1.011,0,0,1-.22.294.8.8,0,0,1-.275.162l.4.343.032.006a.466.466,0,0,0,.385-.109.638.638,0,0,0,.145-.2,1.086,1.086,0,0,0,.088-.291c0-.02.007-.04.01-.062s.005-.043.008-.066l.388.052c0,.026-.005.053-.009.078l-.011.076a1.48,1.48,0,0,1-.131.411.993.993,0,0,1-.22.293.789.789,0,0,1-.275.163l.35.295a.239.239,0,0,0,.118.063.361.361,0,0,0,.131,0,.454.454,0,0,0,.124-.042.536.536,0,0,0,.1-.068.616.616,0,0,0,.144-.2,1.051,1.051,0,0,0,.088-.291c0-.02.008-.041.011-.062s.005-.043.007-.067Z" fill="#8b33be"/>
    <text id="_6" data-name=" " transform="matrix(0.694, 0.72, -0.72, 0.694, 430.095, 9.762)" fill="#8b33be" font-size="3.665" font-family="HacenSudan, Hacen Sudan"><tspan x="0" y="0"> </tspan></text>
    <path id="Path_31" data-name="Path 31" d="M432.317,9.814a.808.808,0,0,0-.294.05.937.937,0,0,0-.222.121.756.756,0,0,0-.214.236.617.617,0,0,0-.078.255.643.643,0,0,0,.033.253.865.865,0,0,0,.122.228,1,1,0,0,0,.217.21.837.837,0,0,0,.265.126.681.681,0,0,0,.284.018.581.581,0,0,0,.273-.118.984.984,0,0,0,.253-.3,1.936,1.936,0,0,0,.189-.515l.378.1a2.256,2.256,0,0,1-.242.637,1.363,1.363,0,0,1-.339.394q-.025.019-.051.036c-.017.011-.034.022-.052.032l.265.351.03.012a.463.463,0,0,0,.4-.025.61.61,0,0,0,.182-.162,1.039,1.039,0,0,0,.147-.266.5.5,0,0,0,.024-.058c.007-.02.014-.041.021-.064l.369.133c-.007.026-.016.051-.025.075l-.028.072a1.427,1.427,0,0,1-.214.374.988.988,0,0,1-.277.24.771.771,0,0,1-.3.1l.322.426.03.013a.463.463,0,0,0,.4-.026.611.611,0,0,0,.182-.162,1.032,1.032,0,0,0,.147-.265c.009-.019.016-.038.024-.059s.014-.041.021-.063l.369.132c-.007.026-.016.051-.025.075l-.028.072a1.411,1.411,0,0,1-.214.374.989.989,0,0,1-.277.241.787.787,0,0,1-.3.1l.194.256-.307.231-1.511-2a.975.975,0,0,1-.345-.019,1.214,1.214,0,0,1-.323-.127,1.369,1.369,0,0,1-.426-.371,1.288,1.288,0,0,1-.139-.231,1.132,1.132,0,0,1-.085-.256.991.991,0,0,1-.02-.267.95.95,0,0,1,.056-.269,1.006,1.006,0,0,1,.145-.26,1.191,1.191,0,0,1,.242-.238,1.351,1.351,0,0,1,.32-.174,1.2,1.2,0,0,1,.426-.073Z" fill="#8b33be"/>
    <path id="Path_32" data-name="Path 32" d="M433.524,14.964l.1-.313-.348-.125.138-.425.369.133-.1.312.348.125-.136.426Zm.326-1.228.335-.189.222.392.027.016a.462.462,0,0,0,.4.028.623.623,0,0,0,.2-.137,1.057,1.057,0,0,0,.18-.244c.011-.017.021-.035.031-.054s.02-.039.03-.061l.348.181a.766.766,0,0,1-.035.07l-.037.068a1.451,1.451,0,0,1-.261.343,1.007,1.007,0,0,1-.307.2.791.791,0,0,1-.313.06l.181.321-.334.189Z" fill="#8b33be"/>
    <path id="Path_33" data-name="Path 33" d="M435.11,16.13l-.6-1.222.345-.17.2.4.027.018a.468.468,0,0,0,.4.051.621.621,0,0,0,.21-.124,1.087,1.087,0,0,0,.2-.233c.011-.017.023-.034.034-.053s.022-.038.033-.058l.337.2a.765.765,0,0,1-.039.069l-.041.065a1.459,1.459,0,0,1-.281.327.992.992,0,0,1-.318.183.8.8,0,0,1-.317.042l.163.331Zm1.221-1.51.163-.416.361.154-.161.417Z" fill="#8b33be"/>
    <path id="Path_34" data-name="Path 34" d="M434.625,17.268l.136-.3-.331-.165.187-.406.351.174-.137.3.331.165-.184.407Zm.467-1.181.354-.149.175.416.025.019a.465.465,0,0,0,.394.074.625.625,0,0,0,.217-.112,1.035,1.035,0,0,0,.208-.221c.013-.016.025-.033.037-.051s.024-.036.037-.056l.325.22c-.014.023-.028.045-.043.066l-.045.063a1.458,1.458,0,0,1-.3.31,1,1,0,0,1-.328.164.788.788,0,0,1-.318.023l.143.34-.355.149Z" fill="#8b33be"/>
    <g id="Group_18" data-name="Group 18">
      <g id="Group_17" data-name="Group 17" clip-path="url(#clip-path)">
        <path id="Path_35" data-name="Path 35" d="M435.181,18.811l.224-.387.333.207-.221.388Zm.834-1.6.65,2.07a1.266,1.266,0,0,0,.379-.261,1.151,1.151,0,0,0,.248-.383,1.622,1.622,0,0,0,.1-.627,2.826,2.826,0,0,0-.146-.805l-.02-.066.221-.038c.052-.007.09-.013.114-.015a.161.161,0,0,1,.044,0l.008,0a3.211,3.211,0,0,1,.165.946,2.018,2.018,0,0,1-.13.758,1.516,1.516,0,0,1-.395.574,1.759,1.759,0,0,1-.616.35l-.217.068-.773-2.459Z" fill="#8b33be"/>
      </g>
    </g>
    <text id="G" transform="matrix(0.084, 0.996, -0.996, 0.084, 389.822, 26.31)" fill="#c824ff" font-size="3.991" font-family="Bahnschrift"><tspan x="0" y="0">G</tspan></text>
    <text id="e" transform="matrix(0.187, 0.982, -0.982, 0.187, 390.075, 29.067)" fill="#c824ff" font-size="3.991" font-family="Bahnschrift"><tspan x="0" y="0">e</tspan></text>
    <text id="n" transform="translate(390.502 31.298) rotate(73.787)" fill="#c824ff" font-size="3.991" font-family="Bahnschrift"><tspan x="0" y="0">n</tspan></text>
    <text id="i" transform="matrix(0.347, 0.938, -0.938, 0.347, 391.182, 33.542)" fill="#c824ff" font-size="3.991" font-family="Bahnschrift"><tspan x="0" y="0">i</tspan></text>
    <text id="u" transform="translate(391.55 34.59) rotate(65.672)" fill="#c824ff" font-size="3.991" font-family="Bahnschrift"><tspan x="0" y="0">u</tspan></text>
    <text id="s" transform="matrix(0.496, 0.868, -0.868, 0.496, 392.54, 36.75)" fill="#c824ff" font-size="3.991" font-family="Bahnschrift"><tspan x="0" y="0">s</tspan></text>
    <text id="S-2" data-name="S" transform="matrix(0.578, 0.816, -0.816, 0.578, 393.631, 38.668)" fill="#c824ff" font-size="3.991" font-family="Bahnschrift"><tspan x="0" y="0">S</tspan></text>
    <text id="y" transform="matrix(0.654, 0.757, -0.757, 0.654, 395.164, 40.794)" fill="#c824ff" font-size="3.991" font-family="Bahnschrift"><tspan x="0" y="0">y</tspan></text>
    <text id="s-3" data-name="s" transform="matrix(0.717, 0.698, -0.698, 0.717, 396.512, 42.351)" fill="#c824ff" font-size="3.991" font-family="Bahnschrift"><tspan x="0" y="0">s</tspan></text>
    <text id="t" transform="matrix(0.766, 0.643, -0.643, 0.766, 398.09, 43.864)" fill="#c824ff" font-size="3.991" font-family="Bahnschrift"><tspan x="0" y="0">t</tspan></text>
    <text id="e-2" data-name="e" transform="translate(399.171 44.787) rotate(35.764)" fill="#c824ff" font-size="3.991" font-family="Bahnschrift"><tspan x="0" y="0">e</tspan></text>
    <text id="m" transform="translate(401.037 46.164) rotate(28.857)" fill="#c824ff" font-size="3.991" font-family="Bahnschrift"><tspan x="0" y="0">m</tspan></text>
    <text id="s-4" data-name="s" transform="translate(404.225 47.861) rotate(21.962)" fill="#c824ff" font-size="3.991" font-family="Bahnschrift"><tspan x="0" y="0">s</tspan></text>
    <text id="_7" data-name=" " transform="translate(406.261 48.658) rotate(17.985)" fill="#c824ff" font-size="3.991" font-family="Bahnschrift"><tspan x="0" y="0"> </tspan></text>
    <text id="f" transform="translate(407.351 49.013) rotate(15.055)" fill="#c824ff" font-size="3.991" font-family="Bahnschrift"><tspan x="0" y="0">f</tspan></text>
    <text id="o" transform="translate(408.674 49.382) rotate(10.755)" fill="#c824ff" font-size="3.991" font-family="Bahnschrift"><tspan x="0" y="0">o</tspan></text>
    <text id="r" transform="matrix(0.995, 0.103, -0.103, 0.995, 410.953, 49.799)" fill="#c824ff" font-size="3.991" font-family="Bahnschrift"><tspan x="0" y="0">r</tspan></text>
    <text id="_8" data-name=" " transform="translate(412.742 49.972) rotate(2.447)" fill="#c824ff" font-size="3.991" font-family="Bahnschrift"><tspan x="0" y="0"> </tspan></text>
    <text id="s-5" data-name="s" transform="translate(413.901 50.035) rotate(-1.364)" fill="#c824ff" font-size="3.991" font-family="Bahnschrift"><tspan x="0" y="0">s</tspan></text>
    <text id="o-2" data-name="o" transform="matrix(0.993, -0.115, 0.115, 0.993, 416.114, 49.979)" fill="#c824ff" font-size="3.991" font-family="Bahnschrift"><tspan x="0" y="0">o</tspan></text>
    <text id="f-2" data-name="f" transform="translate(418.397 49.692) rotate(-10.936)" fill="#c824ff" font-size="3.991" font-family="Bahnschrift"><tspan x="0" y="0">f</tspan></text>
    <text id="t-2" data-name="t" transform="translate(419.724 49.433) rotate(-14.162)" fill="#c824ff" font-size="3.991" font-family="Bahnschrift"><tspan x="0" y="0">t</tspan></text>
    <text id="w" transform="translate(421.137 49.114) rotate(-19.666)" fill="#c824ff" font-size="3.991" font-family="Bahnschrift"><tspan x="0" y="0">w</tspan></text>
    <text id="a" transform="translate(424.212 47.973) rotate(-26.25)" fill="#c824ff" font-size="3.991" font-family="Bahnschrift"><tspan x="0" y="0">a</tspan></text>
    <text id="r-2" data-name="r" transform="translate(426.222 46.966) rotate(-31.024)" fill="#c824ff" font-size="3.991" font-family="Bahnschrift"><tspan x="0" y="0">r</tspan></text>
    <text id="e-3" data-name="e" transform="translate(427.807 46.016) rotate(-35.849)" fill="#c824ff" font-size="3.991" font-family="Bahnschrift"><tspan x="0" y="0">e</tspan></text>
    <text id="_9" data-name=" " transform="matrix(0.768, -0.64, 0.64, 0.768, 429.599, 44.695)" fill="#c824ff" font-size="3.991" font-family="Bahnschrift"><tspan x="0" y="0"> </tspan></text>
    <text id="a-2" data-name="a" transform="translate(430.533 43.936) rotate(-43.807)" fill="#c824ff" font-size="3.991" font-family="Bahnschrift"><tspan x="0" y="0">a</tspan></text>
    <text id="n-2" data-name="n" transform="matrix(0.654, -0.757, 0.757, 0.654, 432.163, 42.367)" fill="#c824ff" font-size="3.991" font-family="Bahnschrift"><tspan x="0" y="0">n</tspan></text>
    <text id="d" transform="translate(433.7 40.577) rotate(-54.586)" fill="#c824ff" font-size="3.991" font-family="Bahnschrift"><tspan x="0" y="0">d</tspan></text>
    <text id="_10" data-name=" " transform="matrix(0.521, -0.854, 0.854, 0.521, 434.997, 38.711)" fill="#c824ff" font-size="3.991" font-family="Bahnschrift"><tspan x="0" y="0"> </tspan></text>
    <text id="m-2" data-name="m" transform="translate(435.684 37.678) rotate(-64.271)" fill="#c824ff" font-size="3.991" font-family="Bahnschrift"><tspan x="0" y="0">m</tspan></text>
    <text id="e-4" data-name="e" transform="translate(437.199 34.423) rotate(-71.218)" fill="#c824ff" font-size="3.991" font-family="Bahnschrift"><tspan x="0" y="0">e</tspan></text>
    <g id="Group_20" data-name="Group 20">
      <g id="Group_19" data-name="Group 19" clip-path="url(#clip-path)">
        <text id="d-2" data-name="d" transform="matrix(0.231, -0.973, 0.973, 0.231, 437.932, 32.246)" fill="#c824ff" font-size="3.991" font-family="Bahnschrift"><tspan x="0" y="0">d</tspan></text>
        <text id="i-2" data-name="i" transform="matrix(0.163, -0.987, 0.987, 0.163, 438.43, 30.046)" fill="#c824ff" font-size="3.991" font-family="Bahnschrift"><tspan x="0" y="0">i</tspan></text>
        <text id="a-3" data-name="a" transform="translate(438.625 28.963) rotate(-84.475)" fill="#c824ff" font-size="3.991" font-family="Bahnschrift"><tspan x="0" y="0">a</tspan></text>
      </g>
    </g>
  </g>
</svg>
