<svg xmlns="http://www.w3.org/2000/svg" xmlns:xlink="http://www.w3.org/1999/xlink" width="28.114" height="35.02" viewBox="0 0 28.114 35.02">
  <defs>
    <clipPath id="clip-path">
      <rect id="Rectangle_72" data-name="Rectangle 72" width="28.114" height="35.02" transform="translate(0 0)" fill="#6f57d9"/>
    </clipPath>
  </defs>
  <g id="_4g" data-name="4g" transform="translate(0 0)">
    <g id="Group_31" data-name="Group 31" clip-path="url(#clip-path)">
      <path id="Path_542" data-name="Path 542" d="M18.677,13.93v-.01a5.868,5.868,0,0,0-9.24,0,1.253,1.253,0,1,0,1.96,1.56v-.01a3.371,3.371,0,0,1,5.32,0,1.246,1.246,0,0,0,1.96-1.54m4.62-3.57c-.02-.02-.03-.04-.05-.06a11.682,11.682,0,0,0-18.38,0,1.249,1.249,0,1,0,1.91,1.61c.02-.02.03-.04.05-.06a9.185,9.185,0,0,1,14.46,0,1.251,1.251,0,0,0,2.01-1.49m4.57-3.63c-.02-.02-.03-.04-.05-.06A17.528,17.528,0,0,0,.3,6.67a1.241,1.241,0,0,0,.15,1.76,1.251,1.251,0,0,0,1.76-.14.423.423,0,0,0,.05-.07,15.031,15.031,0,0,1,23.6,0,1.251,1.251,0,0,0,2.01-1.49" fill="#6f57d9"/>
      <path id="Path_543" data-name="Path 543" d="M11.557,19.58v8.97a1.408,1.408,0,0,1,0,.41v4.83a1.25,1.25,0,1,1-2.5-.04V30H2.807a1.25,1.25,0,0,1-1.25-1.25V19.58a1.242,1.242,0,0,1,1.23-1.26h.04a1.242,1.242,0,0,1,1.23,1.26V27.5h5V19.55a1.25,1.25,0,0,1,2.5.03" fill="#b0adff"/>
      <path id="Path_544" data-name="Path 544" d="M26.5,27.08v4.75a1.211,1.211,0,0,1-.33.85,6.963,6.963,0,0,1-5.1,2.32c-4.16,0-7.37-3.84-7.37-8.33s3.21-8.34,7.37-8.34a6.963,6.963,0,0,1,5.1,2.32.176.176,0,0,1,.04.05,1.239,1.239,0,0,1-.11,1.76,1.252,1.252,0,0,1-1.77-.11,4.374,4.374,0,0,0-3.26-1.52c-2.6,0-4.87,2.51-4.87,5.84s2.27,5.83,4.87,5.83A4.284,4.284,0,0,0,24,31.23v-2.9h-1.23a1.242,1.242,0,0,1-1.23-1.26,1.259,1.259,0,0,1,1.27-1.24h2.44a1.25,1.25,0,0,1,1.25,1.25" fill="#b0adff"/>
    </g>
  </g>
</svg>
