<?xml version="1.0" encoding="utf-8"?>
<svg xmlns="http://www.w3.org/2000/svg" viewBox="0 0 24 24" width="96" height="96">
  <path d="M18.091 2.082l-1.218 1.584C18.771 5.128 20 7.418 20 10h2C22 6.772 20.464 3.91 18.091 2.082zM5.909 2.082l1.218 1.584C5.229 5.128 4 7.418 4 10H2C2 6.772 3.536 3.91 5.909 2.082zM13.5 5h-3V3.5C10.5 2.672 11.172 2 12 2h0c.828 0 1.5.672 1.5 1.5V5z" fill="#FFFFFF" />
  <path d="M12,6c2.206,0,4,1.794,4,4v6v0.828L16.172,17H7.828L8,16.828V16v-6C8,7.794,9.794,6,12,6 M12,4c-3.314,0-6,2.686-6,6v6l-2,2v1h16v-1l-2-2v-6C18,6.686,15.314,4,12,4L12,4z" fill="#FFFFFF" />
  <path d="M12 18A2 2 0 1 0 12 22A2 2 0 1 0 12 18Z" fill="#FFFFFF" />
  <path d="M12,5L12,5c-2.761,0-5,2.239-5,5v8h10v-8C17,7.239,14.761,5,12,5z" opacity=".3" fill="#FFFFFF" />
</svg>