<svg xmlns="http://www.w3.org/2000/svg" width="40" height="36.978" viewBox="0 0 40 36.978">
  <g id="atm" transform="translate(0)">
    <path id="Path_498" data-name="Path 498" d="M38.524,21.99H1.511a1.5,1.5,0,0,0-.036,3H2.806v9.484a2.528,2.528,0,0,0,2.506,2.506H34.688a2.528,2.528,0,0,0,2.506-2.506V24.988h1.294a1.5,1.5,0,0,0,.036-3ZM34.2,30.983a3,3,0,0,0-3,3H8.8a3,3,0,0,0-3-3v-6H34.2ZM27.494,0H12.506A3.521,3.521,0,0,0,9,3.5v11.99a3.521,3.521,0,0,0,3.5,3.5H27.494a3.521,3.521,0,0,0,3.5-3.5V3.5A3.521,3.521,0,0,0,27.494,0ZM28,15.491a.478.478,0,0,1-.5.5H12.506a.478.478,0,0,1-.5-.5V3.5a.478.478,0,0,1,.5-.5H27.494a.478.478,0,0,1,.5.5Z" transform="translate(0 0)" fill="#b0adff"/>
    <path id="Path_499" data-name="Path 499" d="M6.031,16.659a1.5,1.5,0,0,1-1.523,1.475H1.474a1.5,1.5,0,0,1,.036-3H4.557A1.5,1.5,0,0,1,6.031,16.659Z" transform="translate(0 -1.144)" fill="#6f57d9"/>
    <path id="Path_500" data-name="Path 500" d="M6.031,3.689A1.5,1.5,0,0,1,4.508,5.164H1.474a1.5,1.5,0,0,1,.036-3H4.557A1.5,1.5,0,0,1,6.031,3.689Z" transform="translate(0 -0.164)" fill="#6f57d9"/>
    <path id="Path_501" data-name="Path 501" d="M6.031,10.174a1.5,1.5,0,0,1-1.523,1.475H1.474a1.5,1.5,0,0,1,.036-3H4.557A1.5,1.5,0,0,1,6.031,10.174Z" transform="translate(0 -0.654)" fill="#6f57d9"/>
    <path id="Path_502" data-name="Path 502" d="M42.776,10.174a1.49,1.49,0,0,1-1.511,1.475H38.219a1.5,1.5,0,0,1,.048-3H41.3A1.5,1.5,0,0,1,42.776,10.174Z" transform="translate(-2.776 -0.654)" fill="#6f57d9"/>
    <path id="Path_503" data-name="Path 503" d="M36.745,3.64a1.5,1.5,0,0,1,1.523-1.474H41.3a1.5,1.5,0,0,1-.036,3H38.219A1.5,1.5,0,0,1,36.745,3.64Z" transform="translate(-2.776 -0.164)" fill="#6f57d9"/>
    <path id="Path_504" data-name="Path 504" d="M42.776,16.659a1.49,1.49,0,0,1-1.511,1.475H38.219a1.5,1.5,0,0,1,.048-3H41.3A1.5,1.5,0,0,1,42.776,16.659Z" transform="translate(-2.776 -1.144)" fill="#6f57d9"/>
    <g id="Group_21" data-name="Group 21" transform="translate(9.226 25.933)">
      <path id="Path_505" data-name="Path 505" d="M11.816,31.957l-.279.691a1.394,1.394,0,0,0-.076.233,1.022,1.022,0,0,0-.027.226.457.457,0,0,0,.149.373.709.709,0,0,0,.453.122h.224v.442H9.98v-.439a.849.849,0,0,0,.558-.23A2.366,2.366,0,0,0,11,32.632l2.026-4.579h1.15l1.873,4.817a1.367,1.367,0,0,0,.343.547.857.857,0,0,0,.514.185v.442h-3.12v-.439a2.189,2.189,0,0,0,.682-.091.265.265,0,0,0,.175-.262.591.591,0,0,0-.032-.16c-.021-.073-.061-.184-.118-.336l-.3-.8Zm.22-.483h1.97l-.93-2.405Z" transform="translate(-9.98 -28.053)" fill="#6f57d9"/>
      <path id="Path_506" data-name="Path 506" d="M23.1,28.062l.04,2.372-.4-.017a4.169,4.169,0,0,0-.715-1.518,1.254,1.254,0,0,0-.983-.434c-.084,0-.137.015-.158.048a.709.709,0,0,0-.033.292v4.2a.645.645,0,0,0,.126.439.584.584,0,0,0,.415.15l.39.019v.431H18.427v-.431l.386-.019a.569.569,0,0,0,.412-.149.64.64,0,0,0,.124-.44V28.814a.8.8,0,0,0-.031-.3c-.02-.031-.074-.044-.161-.044a1.246,1.246,0,0,0-.98.434,4.258,4.258,0,0,0-.717,1.518l-.4.017.049-2.372Z" transform="translate(-10.515 -28.054)" fill="#6f57d9"/>
      <path id="Path_507" data-name="Path 507" d="M25.436,32.546a1.415,1.415,0,0,0,.171.838.863.863,0,0,0,.654.229v.431h-2.14v-.431a.864.864,0,0,0,.652-.229,1.412,1.412,0,0,0,.173-.838v-3.2a1.24,1.24,0,0,0-.116-.68.586.586,0,0,0-.423-.16l-.252-.017v-.434H26.7L28.089,31.9l1.333-3.847h2.535v.434l-.24.017a.585.585,0,0,0-.424.16,1.252,1.252,0,0,0-.116.68v3.412a1.25,1.25,0,0,0,.114.677.576.576,0,0,0,.426.161l.24.019v.431H28.971v-.431l.207-.019a.6.6,0,0,0,.431-.163,1.237,1.237,0,0,0,.114-.675V28.528l-1.934,5.516H27.4l-1.962-5.508Z" transform="translate(-11.048 -28.053)" fill="#6f57d9"/>
    </g>
  </g>
</svg>
