<?xml version="1.0" encoding="utf-8"?>
<svg xmlns="http://www.w3.org/2000/svg" viewBox="0 0 24 24" width="96" height="96">
  <path d="M10 5A7 7 0 1 0 10 19A7 7 0 1 0 10 5Z" opacity=".3" fill="#FFFFFF" />
  <path d="M14 4c-.339 0-.672.028-1 .069 3.945.493 7 3.852 7 7.931s-3.055 7.438-7 7.931C13.328 19.972 13.661 20 14 20c4.418 0 8-3.582 8-8S18.418 4 14 4zM12.825 14.286c0 2.328-1.912 2.642-2.25 2.684v1.33H9.573v-1.33c-.312-.043-2.411-.273-2.411-3.165h1.89c0 1.708.881 1.637 1.015 1.637.147 0 .868-.027.868-1.143 0-2.229-3.459-1.24-3.459-4.581 0-2.29 1.898-2.647 2.237-2.69V5.6h1.008v1.456c.321.061 2.117.471 2.117 3.098h-1.89c0-1.373-.583-1.589-.828-1.589-.134 0-.755.035-.755 1.162C9.366 11.694 12.825 11.081 12.825 14.286z" fill="#FFFFFF" />
  <path d="M10,20c-4.411,0-8-3.589-8-8s3.589-8,8-8s8,3.589,8,8S14.411,20,10,20z M10,6c-3.309,0-6,2.691-6,6s2.691,6,6,6s6-2.691,6-6S13.309,6,10,6z" fill="#FFFFFF" />
</svg>