<?xml version="1.0" encoding="utf-8"?>
<svg xmlns="http://www.w3.org/2000/svg" viewBox="0 0 24 24" width="96" height="96">
  <path d="M15,3v7.2l-2-1.4l-2,1.4V3H7C5.9,3,5,3.9,5,5v12h14V3H15z" opacity=".3" fill="#FFFFFF" />
  <path d="M20,22H7c-1.7,0-3-1.3-3-3s1.3-3,3-3h13v2H7c-0.6,0-1,0.4-1,1s0.4,1,1,1h13V22z" fill="#FFFFFF" />
  <path d="M6,19H4V5c0-1.7,1.3-3,3-3h13v15h-2V4H7C6.4,4,6,4.4,6,5V19z" fill="#FFFFFF" />
  <path d="M16,12.1L13,10l-3,2.1V2h6V12.1z M13,7.6l1,0.7V4h-2v4.3L13,7.6z" fill="#FFFFFF" />
</svg>