<?xml version="1.0" encoding="utf-8"?>
<svg xmlns="http://www.w3.org/2000/svg" viewBox="0 0 24 24" width="96" height="96">
  <path d="M4,9H2C1.448,9,1,8.552,1,8l0,0c0-0.552,0.448-1,1-1h2V9z" fill="#FFFFFF" />
  <path d="M4,13H2c-0.552,0-1-0.448-1-1l0,0c0-0.552,0.448-1,1-1h2V13z" fill="#FFFFFF" />
  <path d="M4,17H2c-0.552,0-1-0.448-1-1l0,0c0-0.552,0.448-1,1-1h2V17z" fill="#FFFFFF" />
  <path fill="none" stroke="#FFFFFF" stroke-width="2" d="M19,20H5c-0.552,0-1-0.448-1-1V5c0-0.552,0.448-1,1-1h14c0.552,0,1,0.448,1,1v14C20,19.552,19.552,20,19,20z" />
  <path fill="#FFFFFF" stroke="#FFFFFF" stroke-width="2" d="M8.5,12c0.5-0.333,1-0.667,1.5-1c0-0.667,0-1.333,0-2c0-0.333,0-0.667,0-1C9.335,8,8.671,8,8.006,8C7.944,10.53,8.315,12.315,10,14c1.685,1.685,3.47,2.056,6,1.994V14l0,0c-0.333,0-0.667,0-1,0c-0.667,0-1.333,0-2,0c-0.333,0.5-0.667,1-1,1.5" />
  <rect width="16" height="16" x="4" y="4" fill="#FFFFFF" opacity=".3" />
</svg>