<svg xmlns="http://www.w3.org/2000/svg" width="40" height="32.727" viewBox="0 0 40 32.727">
  <g id="cart" transform="translate(-60 -63.637)">
    <path id="icons8_fast_cart_2" d="M3.364,16.909a1.364,1.364,0,1,0,0,2.727H15.182a1.364,1.364,0,1,0,0-2.727Zm1.818,4.545a1.364,1.364,0,1,0,0,2.727H17a1.364,1.364,0,1,0,0-2.727Z" transform="translate(58 57.637)" fill="#6f57d9"/>
    <path id="icons8_fast_cart_2-2" data-name="icons8_fast_cart_2" d="M3.364,6a1.364,1.364,0,1,0,0,2.727H5.869A1.352,1.352,0,0,1,7.208,9.835l.268,1.406s0,.008,0,.012l.732,3.837h2.777l-.52-2.727H38.988L36.364,26.14a3.185,3.185,0,0,1-3.127,2.587H16.217A3.186,3.186,0,0,1,13.09,26.14L13.063,26H10.286l.126.652a5.915,5.915,0,0,0,5.8,4.8h17.02a5.916,5.916,0,0,0,5.806-4.8l2.933-15.4a1.365,1.365,0,0,0-1.341-1.618H9.945l-.059-.311A4.105,4.105,0,0,0,5.869,6Zm15,27.272A2.727,2.727,0,1,0,21.091,36,2.727,2.727,0,0,0,18.363,33.272Zm12.727,0A2.727,2.727,0,1,0,33.818,36,2.727,2.727,0,0,0,31.09,33.272Z" transform="translate(58 57.637)" fill="#b0adff"/>
  </g>
</svg>
