<?xml version="1.0" encoding="utf-8"?>
<svg xmlns="http://www.w3.org/2000/svg" viewBox="0 0 24 24" width="96" height="96">
  <path d="M18,18.5c0,2.864-2.201,5.246-5,5.5v-2.025c1.692-0.245,3-1.717,3-3.475c0-1.93-1.57-3.5-3.5-3.5S9,16.57,9,18.5 c0,0.698,0.221,1.348,0.591,1.909L11,19v4H7l1.146-1.146C7.411,20.905,7,19.741,7,18.5c0-3.033,2.468-5.5,5.5-5.5S18,15.467,18,18.5 z" fill="#FFFFFF" />
  <path d="M18.705,9.004C17.839,6.056,15.149,4,12,4C9.709,4,7.561,5.138,6.258,7.004C2.785,7.132,0,9.997,0,13.5 c0,3.113,2.201,5.719,5.128,6.351C5.048,19.412,5,18.962,5,18.5c0-0.258,0.013-0.513,0.039-0.765C3.277,17.125,2,15.467,2,13.5 C2,11.019,4.019,9,6.5,9l0.859,0.047l0.308-0.533C8.559,6.963,10.22,6,12,6c2.472,0,4.545,1.773,4.932,4.215l0.151,0.96l1.098-0.143 C18.286,11.018,18.391,11,18.5,11c1.93,0,3.5,1.57,3.5,3.5c0,1.41-0.843,2.621-2.048,3.175C19.982,17.946,20,18.221,20,18.5 c0,0.451-0.047,0.89-0.123,1.318C22.244,19.205,24,17.057,24,14.5C24,11.536,21.643,9.112,18.705,9.004z" fill="#FFFFFF" />
  <path d="M18.5,11c-0.11,0-0.217,0.018-0.323,0.033l-1.094,0.143l-0.151-0.96C16.545,7.772,14.471,6,12,6 c-1.78,0-3.441,0.963-4.333,2.514L7.359,9.047L6.5,9C4.019,9,2,11.019,2,13.5S4.019,18,6.5,18h1.55c0.252-2.247,2.136-4,4.45-4 s4.198,1.753,4.45,4h1.55c1.93,0,3.5-1.57,3.5-3.5S20.43,11,18.5,11z" opacity=".3" fill="#FFFFFF" />
</svg>