<svg xmlns="http://www.w3.org/2000/svg" width="40.502" height="40.74" viewBox="0 0 40.502 40.74">
  <g id="empty" transform="translate(-302.768 -308.579)">
    <g id="Group_22" data-name="Group 22">
      <path id="Path_513" data-name="Path 513" d="M318.03,312.8a1.694,1.694,0,0,1,.236-.2c.857-.5,1.715-1,2.583-1.484a.5.5,0,0,1,.4,0,11.983,11.983,0,0,1,1.16.682c.094.063.114.236.169.358a1.141,1.141,0,0,1-.4,0,1.519,1.519,0,0,1-.489-.291.923.923,0,0,0-1.3-.009c-.594.406-1.241.734-1.864,1.1C318.328,313.072,318.154,313.108,318.03,312.8Z" transform="translate(0.737 0.105)" fill="#6f57d9" stroke="#6f57d9" stroke-width="0.75"/>
      <path id="Path_514" data-name="Path 514" d="M324.842,313.463c-.1.039-.239.144-.305.11-.421-.216-.829-.459-1.234-.705-.049-.03-.093-.163-.068-.2.045-.068.175-.16.216-.139.451.237.893.493,1.334.749C324.81,313.294,324.81,313.354,324.842,313.463Z" transform="translate(0.994 0.177)" fill="#6f57d9" stroke="#6f57d9" stroke-width="0.75"/>
      <path id="Path_515" data-name="Path 515" d="M309.207,328.949c-.03.654-.055,1.309-.092,1.963-.029.5-.355.68-.787.432a1.558,1.558,0,0,1-.827-1.33c-.069-1.349-.134-2.7-.169-4.048-.006-.216.1-.557.249-.627a.928.928,0,0,1,.755.059,1.935,1.935,0,0,1,.947,1.711c.006.613-.048,1.227-.077,1.84Z" transform="translate(0.207 0.809)" fill="#6f57d9" stroke="#6f57d9" stroke-width="0.75"/>
      <path id="Path_516" data-name="Path 516" d="M309.035,333.23c.006.59-.332.813-.757.572a1.553,1.553,0,0,1-.825-1.374c-.012-.465.336-.664.749-.432A1.662,1.662,0,0,1,309.035,333.23Z" transform="translate(0.213 1.136)" fill="#6f57d9" stroke="#6f57d9" stroke-width="0.75"/>
    </g>
    <g id="Group_23" data-name="Group 23">
      <path id="Path_512" data-name="Path 512" d="M337.555,334.27c.482.531.92,1.014,1.359,1.5.2.223.408.442.607.667a1.936,1.936,0,0,1-.472,3.076c-1.61.95-3.236,1.872-4.856,2.806q-5.338,3.078-10.676,6.155a2.522,2.522,0,0,1-1.662.457,2.065,2.065,0,0,1-1.533-1.048c-.545-.931-1.082-1.866-1.65-2.782a.792.792,0,0,0-.5-.321c-1.473-.21-2.95-.388-4.426-.581a1.019,1.019,0,0,1-.97-1.068,12,12,0,0,1,0-1.229.6.6,0,0,0-.365-.642c-2.935-1.684-5.859-3.39-8.8-5.072a.738.738,0,0,1-.431-.739q-.006-7.685-.046-15.37a.714.714,0,0,1,.409-.713q8.923-5.138,17.832-10.3a.687.687,0,0,1,.787.024c2.978,1.719,5.964,3.426,8.942,5.146a.6.6,0,0,0,.734.008c1.168-.771,1.5-.589,2.366.36s1.739,1.89,2.627,2.817a1.077,1.077,0,0,0,.574.313c1.419.2,2.841.38,4.264.555a1.182,1.182,0,0,1,1.217,1.377q-.02,6.373-.048,12.746c0,.843-.305,1.2-1.134,1.312-1.245.168-2.492.318-3.737.476C337.857,334.209,337.741,334.237,337.555,334.27Zm-20-6.727.063-.055q-.826-1.406-1.652-2.814c-.436-.744-.327-1.138.424-1.57l14.048-8.09c.1-.06.2-.128.335-.211-.134-.084-.235-.152-.339-.213q-4.139-2.412-8.274-4.829a.629.629,0,0,0-.736,0q-8.51,4.91-17.031,9.8c-.087.05-.17.11-.3.193Zm-13.8-7.246v.552q.035,7.174.06,14.347a.636.636,0,0,0,.37.636q4.076,2.358,8.139,4.738c.108.063.221.118.376.2v-.4q-.024-4.981-.047-9.961c0-.15-.006-.3.005-.45a1.041,1.041,0,0,1,.948-1.013c.837-.118,1.678-.225,2.516-.34.471-.065.94-.142,1.411-.212l.007-.1Zm15.18,23.756c.19-.1.32-.166.445-.238q8.452-4.888,16.908-9.77a.629.629,0,0,0,.374-.636q-.039-7.172-.052-14.345v-.537c-.189.1-.319.165-.445.238q-8.469,4.9-16.944,9.789a.6.6,0,0,0-.338.615q.036,7.193.052,14.385Zm1.782-.344,2.475,4.184c.166-.091.3-.161.424-.235q3.229-1.856,6.455-3.714,4.291-2.468,8.584-4.938a1.333,1.333,0,0,0,.514-2.071c-.726-.883-1.53-1.7-2.314-2.563Zm10.65-28.519c-.047.02-.061.023-.072.03q-7.38,4.246-14.761,8.489c-.323.185-.273.391-.123.641l1.165,1.928,1.124,1.862,16.173-9.322Zm-13.123,13.756c-1.451.194-2.856.39-4.263.567-.645.081-.721.14-.717.781q.031,6.33.067,12.66c0,.082,0,.164,0,.246a.4.4,0,0,0,.393.437c.271.029.54.076.81.112l3.706.5Zm19.029-10.555V333.7c1.455-.2,2.846-.389,4.239-.571.646-.084.7-.13.7-.793V319.757c0-.109.037-.241-.012-.323-.092-.156-.218-.386-.358-.407C340.326,318.794,338.8,318.6,337.278,318.391Z" transform="translate(0)" fill="#b0adff" stroke="#b0adff" stroke-width="0.75"/>
      <path id="Path_517" data-name="Path 517" d="M334.429,326.634c0,1.775-.007,3.55.007,5.326a.651.651,0,0,1-.371.651q-6.884,3.955-13.762,7.923c-.5.29-.691.177-.694-.409-.017-3.564-.027-7.128-.051-10.693a.619.619,0,0,1,.354-.618q6.807-3.925,13.6-7.868c.07-.041.142-.081.216-.115.461-.209.632-.107.632.4q.006,2.7,0,5.408Zm-1,5.629c-.09-.065-.143-.108-.2-.142q-4.309-2.524-8.623-5.034a.6.6,0,0,0-.5.024c-1.188.671-2.358,1.372-3.546,2.042a.568.568,0,0,0-.323.58q.013,4.855.006,9.708c0,.129.014.257.025.447Zm.293-10.768-8.791,5.077,8.791,5.1Z" transform="translate(0.813 0.583)" fill="#b0adff" stroke="#b0adff" stroke-width="0.75"/>
    </g>
  </g>
</svg>
