<svg xmlns="http://www.w3.org/2000/svg" width="40" height="40" viewBox="0 0 40 40">
  <g id="exchange" transform="translate(-182 -288.05)">
    <path id="icons8_currency_exchange" data-name="icons8 currency exchange" d="M131.05,13.26a12,12,0,1,0,0,24,10.4,10.4,0,0,0,1.58-.11,15.156,15.156,0,0,1,1.45-3.42,9.015,9.015,0,1,1,5.44-5.44,14.9,14.9,0,0,1,3.42-1.45,9.259,9.259,0,0,0,.11-1.58A12.01,12.01,0,0,0,131.05,13.26Zm4.28,13.19a1.249,1.249,0,0,0-1.65.63c-.01.03-.02.05-.03.08a2.6,2.6,0,0,1-2.6,1.85,3,3,0,0,1-2.55-2.5h1.3a1.25,1.25,0,0,0,0-2.5h-1.3a3.013,3.013,0,0,1,2.55-2.5,2.6,2.6,0,0,1,2.6,1.85,1.253,1.253,0,0,0,2.35-.87.251.251,0,0,0-.04-.07,5.308,5.308,0,0,0-4.91-3.41c-2.65,0-4.56,2.25-5.04,5h-.71a1.25,1.25,0,0,0,0,2.5h.71c.48,2.75,2.39,5,5.04,5a5.3,5.3,0,0,0,4.91-3.41A1.241,1.241,0,0,0,135.33,26.45Zm12.54,13.56h-1.38a1.127,1.127,0,1,1-.13-2.25h1.45a1.208,1.208,0,0,1,.94.41,1.244,1.244,0,1,0,2.11-1.32,3.6,3.6,0,0,0-2.56-1.54v-.75a1.251,1.251,0,0,0-1.23-1.27h-.04a1.264,1.264,0,0,0-1.23,1.27v.77a3.617,3.617,0,0,0,.69,7.18h1.38a1.127,1.127,0,0,1,.13,2.25h-1.91a1.885,1.885,0,0,1-1.26-.46,1.247,1.247,0,0,0-2.06,1.4,4.1,4.1,0,0,0,3.03,1.54v.72a1.25,1.25,0,0,0,2.5,0v-.74a3.614,3.614,0,0,0-.43-7.21Zm0,0h-1.38a1.127,1.127,0,1,1-.13-2.25h1.45a1.208,1.208,0,0,1,.94.41,1.244,1.244,0,1,0,2.11-1.32,3.6,3.6,0,0,0-2.56-1.54v-.75a1.251,1.251,0,0,0-1.23-1.27h-.04a1.264,1.264,0,0,0-1.23,1.27v.77a3.617,3.617,0,0,0,.69,7.18h1.38a1.127,1.127,0,0,1,.13,2.25h-1.91a1.885,1.885,0,0,1-1.26-.46,1.247,1.247,0,0,0-2.06,1.4,4.1,4.1,0,0,0,3.03,1.54v.72a1.25,1.25,0,0,0,2.5,0v-.74a3.614,3.614,0,0,0-.43-7.21Zm-.82-10.75a12,12,0,1,0,12,12A12,12,0,0,0,147.05,29.26Zm0,21a9,9,0,0,1-.04-18h.04a9,9,0,0,1,0,18Zm.82-10.25h-1.38a1.127,1.127,0,1,1-.13-2.25h1.45a1.208,1.208,0,0,1,.94.41,1.244,1.244,0,1,0,2.11-1.32,3.6,3.6,0,0,0-2.56-1.54v-.75a1.251,1.251,0,0,0-1.23-1.27h-.04a1.264,1.264,0,0,0-1.23,1.27v.77a3.617,3.617,0,0,0,.69,7.18h1.38a1.127,1.127,0,0,1,.13,2.25h-1.91a1.885,1.885,0,0,1-1.26-.46,1.247,1.247,0,0,0-2.06,1.4,4.1,4.1,0,0,0,3.03,1.54v.72a1.25,1.25,0,0,0,2.5,0v-.74a3.614,3.614,0,0,0-.43-7.21Zm0,0h-1.38a1.127,1.127,0,1,1-.13-2.25h1.45a1.208,1.208,0,0,1,.94.41,1.244,1.244,0,1,0,2.11-1.32,3.6,3.6,0,0,0-2.56-1.54v-.75a1.251,1.251,0,0,0-1.23-1.27h-.04a1.264,1.264,0,0,0-1.23,1.27v.77a3.617,3.617,0,0,0,.69,7.18h1.38a1.127,1.127,0,0,1,.13,2.25h-1.91a1.885,1.885,0,0,1-1.26-.46,1.247,1.247,0,0,0-2.06,1.4,4.1,4.1,0,0,0,3.03,1.54v.72a1.25,1.25,0,0,0,2.5,0v-.74a3.614,3.614,0,0,0-.43-7.21Zm0,0h-1.38a1.127,1.127,0,1,1-.13-2.25h1.45a1.208,1.208,0,0,1,.94.41,1.244,1.244,0,1,0,2.11-1.32,3.6,3.6,0,0,0-2.56-1.54v-.75a1.251,1.251,0,0,0-1.23-1.27h-.04a1.264,1.264,0,0,0-1.23,1.27v.77a3.617,3.617,0,0,0,.69,7.18h1.38a1.127,1.127,0,0,1,.13,2.25h-1.91a1.885,1.885,0,0,1-1.26-.46,1.247,1.247,0,0,0-2.06,1.4,4.1,4.1,0,0,0,3.03,1.54v.72a1.25,1.25,0,0,0,2.5,0v-.74a3.614,3.614,0,0,0-.43-7.21Z" transform="translate(62.95 274.79)" fill="#b0adff"/>
    <path id="Path_455" data-name="Path 455" d="M131.38,50.58l-2.34,2.34a1.133,1.133,0,0,1-.82.34,1.171,1.171,0,0,1-1.17-1.17v-.83h-.5a5.529,5.529,0,0,1-5.5-5.5v-2a1.5,1.5,0,0,1,1.48-1.52h.05a1.49,1.49,0,0,1,1.47,1.52V45.8a2.492,2.492,0,0,0,2.5,2.46h.5v-.83a1.182,1.182,0,0,1,.35-.83,1.165,1.165,0,0,1,1.64,0l2.34,2.34A1.165,1.165,0,0,1,131.38,50.58Z" transform="translate(62.95 274.79)" fill="#6f57d9"/>
    <path id="Path_456" data-name="Path 456" d="M157.05,20.76v2a1.5,1.5,0,0,1-3,0V20.72a2.48,2.48,0,0,0-2.5-2.46h-.5v.83a1.132,1.132,0,0,1-.34.83,1.177,1.177,0,0,1-1.65,0l-2.33-2.34a1.156,1.156,0,0,1,0-1.64l2.33-2.34a1.167,1.167,0,0,1,1.99.83v.83h.5A5.516,5.516,0,0,1,157.05,20.76Z" transform="translate(62.95 274.79)" fill="#6f57d9"/>
  </g>
</svg>
