<?xml version="1.0" encoding="utf-8"?>
<svg xmlns="http://www.w3.org/2000/svg" baseProfile="basic" viewBox="0 0 48 48" width="240" height="240">
  <path fill="#50e6ff" d="M42,8H6c-1.1,0-2,0.9-2,2v28c0,1.1,0.9,2,2,2h36c1.1,0,2-0.9,2-2V10C44,8.9,43.1,8,42,8z" />
  <linearGradient id="18L157srCkJmLjR-inh-4a" x1="8" x2="19" y1="419.5" y2="419.5" gradientTransform="matrix(1 0 0 -1 0 436)" gradientUnits="userSpaceOnUse">
    <stop offset="0" stop-color="#3079d6" />
    <stop offset="1" stop-color="#297cd2" />
  </linearGradient>
  <path fill="url(#18L157srCkJmLjR-inh-4a)" d="M19,19.3v-5.6c0-0.9-0.7-1.7-1.6-1.7H9.6C8.7,12,8,12.8,8,13.7v5.6C8,20.2,8.7,21,9.6,21h7.9C18.3,21,19,20.2,19,19.3z" />
  <linearGradient id="18L157srCkJmLjR-inh-4b" x1="28" x2="40" y1="404.5" y2="404.5" gradientTransform="matrix(1 0 0 -1 0 436)" gradientUnits="userSpaceOnUse">
    <stop offset="0" stop-color="#3079d6" />
    <stop offset="1" stop-color="#297cd2" />
  </linearGradient>
  <path fill="url(#18L157srCkJmLjR-inh-4b)" d="M40,34.3v-5.6c0-0.9-0.7-1.7-1.6-1.7h-8.8c-0.9,0-1.6,0.8-1.6,1.7v5.6c0,0.9,0.7,1.7,1.6,1.7h8.9C39.3,36,40,35.2,40,34.3z" />
  <path fill="#35c1f1" d="M39,13v1c0,0.6-0.5,1-1.1,1h-5.8c-0.6,0-1.1-0.4-1.1-1v-1c0-0.6,0.5-1,1.1-1H38C38.5,12,39,12.4,39,13z" />
  <path fill="#35c1f1" d="M39,18v1c0,0.6-0.5,1-1.1,1h-3.8c-0.6,0-1.1-0.4-1.1-1v-1c0-0.6,0.5-1,1.1-1H38C38.5,17,39,17.4,39,18z" />
  <path fill="#35c1f1" d="M17,29v1c0,0.6-0.5,1-1.1,1h-5.8C9.5,31,9,30.6,9,30v-1c0-0.6,0.5-1,1.1-1H16C16.5,28,17,28.4,17,29z" />
  <path fill="#35c1f1" d="M17,34v1c0,0.6-0.5,1-1.1,1h-3.8c-0.6,0-1.1-0.4-1.1-1v-1c0-0.6,0.5-1,1.1-1H16C16.5,33,17,33.4,17,34z" />
</svg>