<?xml version="1.0" encoding="utf-8"?>
<svg xmlns="http://www.w3.org/2000/svg" viewBox="0 0 24 24" width="96" height="96">
  <path d="M9 7H15V9H9z" fill="#FFFFFF" />
  <path d="M15,21H5c-1.1,0-2-0.9-2-2V5c0-1.1,0.9-2,2-2h14c1.1,0,2,0.9,2,2v4h-2V5H5v14h10V21z" fill="#FFFFFF" />
  <path d="M22.7,20c0,2.3-1.9,2.6-2.3,2.7V24h-1v-1.3c-0.3,0-2.4-0.3-2.4-3.2h1.9c0,1.7,0.9,1.6,1,1.6c0.1,0,0.9,0,0.9-1.1 c0-2.2-3.5-1.2-3.5-4.6c0-2.3,1.9-2.6,2.2-2.7v-1.4h1v1.5c0.3,0.1,2.1,0.5,2.1,3.1h-1.9c0-1.4-0.6-1.6-0.8-1.6 c-0.1,0-0.8,0-0.8,1.2C19.2,17.4,22.7,16.8,22.7,20z" fill="#FFFFFF" />
  <path d="M18,9h2V4H4v16h11v-5c0-1.5,0.8-2.8,2-3.4V10C17,9.4,17.4,9,18,9z" opacity=".3" fill="#FFFFFF" />
</svg>