<svg xmlns="http://www.w3.org/2000/svg" xmlns:xlink="http://www.w3.org/1999/xlink" width="42.903" height="35" viewBox="0 0 42.903 35">
  <defs>
    <linearGradient id="linear-gradient" x1="0.5" x2="0.5" y2="1" gradientUnits="objectBoundingBox">
      <stop offset="0" stop-color="#fee100"/>
      <stop offset="1" stop-color="#f4a315"/>
      <stop offset="1" stop-color="#f39f16"/>
    </linearGradient>
    <radialGradient id="radial-gradient" cx="-0.657" cy="-0.011" r="1.118" gradientTransform="matrix(3.981, 0, 0, -1, 1.957, 49.222)" gradientUnits="objectBoundingBox">
      <stop offset="0" stop-color="#4b4b4b"/>
      <stop offset="0.531" stop-color="#393939"/>
      <stop offset="1" stop-color="#252525"/>
    </radialGradient>
  </defs>
  <g id="expiredStorage" transform="translate(-391.386 -404.114)">
    <path id="Path_49" data-name="Path 49" d="M45.53,38.515,26.25,7.81a2.043,2.043,0,0,0-3.6,0L3.374,38.515A2.16,2.16,0,0,0,3,39.694a2.042,2.042,0,0,0,2.043,2.043H43.86A2.042,2.042,0,0,0,45.9,39.694,2.16,2.16,0,0,0,45.53,38.515Z" transform="translate(388.386 397.377)" fill="url(#linear-gradient)"/>
    <path id="Path_50" data-name="Path 50" d="M24.029,37.12a2.567,2.567,0,0,1-1.823-.67,2.137,2.137,0,0,1-.718-1.623,2.067,2.067,0,0,1,.725-1.63,2.654,2.654,0,0,1,1.816-.635,2.582,2.582,0,0,1,1.809.642,2.1,2.1,0,0,1,.7,1.623,2.147,2.147,0,0,1-.7,1.643A2.56,2.56,0,0,1,24.029,37.12Zm2.235-19.394-.484,12.248a.7.7,0,0,1-.7.67H22.891a.7.7,0,0,1-.7-.672l-.458-12.247a.7.7,0,0,1,.7-.724h3.135A.7.7,0,0,1,26.264,17.725Z" transform="translate(388.823 397.971)" fill="url(#radial-gradient)"/>
  </g>
</svg>
