<?xml version="1.0" encoding="utf-8"?>
<svg xmlns="http://www.w3.org/2000/svg" viewBox="0 0 24 24" width="96" height="96">
  <polygon points="21,5 16.976,12 8,11.142 11.346,5.832" opacity=".3" fill="#FFFFFF" />
  <circle cx="7.998" cy="20.001" r="2" fill="#FFFFFF" />
  <circle cx="17.998" cy="20.001" r="2" fill="#FFFFFF" />
  <path d="M16.519,13.001c0.727,0,1.397-0.395,1.749-1.029l3.603-6.485c0.173-0.31,0.168-0.687-0.012-0.993c-0.18-0.305-0.508-0.493-0.862-0.493H6.248L5.413,1.998L2.002,2.014l0.009,2l2.071-0.01L4.914,6H5h1.235v0.001h13.062l-2.778,5H9.305L9.304,11H8.091L6.32,13.826c-0.4,0.64-0.421,1.448-0.055,2.107c0.366,0.659,1.062,1.069,1.816,1.069h11.918v-2H8.081l-0.065-0.117l1.177-1.883H16.519z" fill="#FFFFFF" />
  <polygon points="7.62,8 6.4,9.94 6.36,10 0,10 0,8" fill="#FFFFFF" />
  <polygon points="5.11,12 3.84,14 0,14 0,12" fill="#FFFFFF" />
</svg>