<svg xmlns="http://www.w3.org/2000/svg" width="40" height="32.206" viewBox="0 0 40 32.206">
  <g id="games" transform="translate(-2.4 -6.67)">
    <path id="Path_479" data-name="Path 479" d="M41.048,20.155a32.765,32.765,0,0,0-3.6-9.043C35.913,8.635,33.959,6.67,31.392,6.67a10.775,10.775,0,0,0-5.748,1.647c-1.284.75-2,1.261-3.238,1.261h-.011c-1.238,0-1.954-.511-3.249-1.261A10.775,10.775,0,0,0,13.4,6.67c-2.556,0-4.521,1.965-6.055,4.442a33.056,33.056,0,0,0-3.6,9.054A41.478,41.478,0,0,0,2.4,30.05c0,3.045.341,5.657,1.9,7.384a4.208,4.208,0,0,0,2.624,1.42A4.736,4.736,0,0,0,9.6,38.263,15.04,15.04,0,0,0,13.9,34.446c1.3-1.545,2.465-3.2,3.385-4.431.454-.625.852-1.136,1.125-1.454l.125-.125h7.725a1.284,1.284,0,0,1,.125.125c.273.318.682.829,1.136,1.454.92,1.227,2.09,2.886,3.385,4.431A14.891,14.891,0,0,0,35.2,38.263a4.715,4.715,0,0,0,2.681.591,4.182,4.182,0,0,0,2.613-1.42c1.556-1.727,1.909-4.34,1.909-7.384A41.108,41.108,0,0,0,41.048,20.155ZM38.39,35.537a1.164,1.164,0,0,1-.818.488,1.971,1.971,0,0,1-1.068-.284,13.277,13.277,0,0,1-3.431-3.124C31.88,31.2,30.744,29.6,29.8,28.323c-.477-.636-.9-1.193-1.3-1.647a5.411,5.411,0,0,0-.636-.613,1.638,1.638,0,0,0-1.2-.466H18.134a1.638,1.638,0,0,0-1.2.466,4.653,4.653,0,0,0-.636.613c-.4.454-.829,1.011-1.3,1.647-.954,1.272-2.09,2.874-3.272,4.294A13.462,13.462,0,0,1,8.3,35.741a1.982,1.982,0,0,1-1.079.284,1.167,1.167,0,0,1-.807-.488c-.579-.636-1.17-2.761-1.17-5.487a39.277,39.277,0,0,1,1.25-9.191A31.139,31.139,0,0,1,9.762,12.6c1.3-2.1,2.658-3.09,3.635-3.09a7.383,7.383,0,0,1,4.317,1.261,8.8,8.8,0,0,0,4.68,1.647h.011a8.8,8.8,0,0,0,4.68-1.647A7.345,7.345,0,0,1,31.392,9.51c.988,0,2.34.988,3.647,3.09a31.143,31.143,0,0,1,3.26,8.259A38.809,38.809,0,0,1,39.56,30.05C39.56,32.776,38.958,34.9,38.39,35.537Z" fill="#b0adff"/>
    <circle id="Ellipse_64" data-name="Ellipse 64" cx="1.42" cy="1.42" r="1.42" transform="translate(32.812 18.03)" fill="#6f57d9"/>
    <circle id="Ellipse_65" data-name="Ellipse 65" cx="1.42" cy="1.42" r="1.42" transform="translate(25.234 18.03)" fill="#6f57d9"/>
    <circle id="Ellipse_66" data-name="Ellipse 66" cx="1.42" cy="1.42" r="1.42" transform="translate(29.017 21.813)" fill="#6f57d9"/>
    <circle id="Ellipse_67" data-name="Ellipse 67" cx="1.42" cy="1.42" r="1.42" transform="translate(29.017 14.236)" fill="#6f57d9"/>
    <path id="Path_480" data-name="Path 480" d="M17.7,18.444a1.421,1.421,0,0,1-1.431,1.409h-1.42v1.454a1.42,1.42,0,0,1-2.84-.034v-1.42H10.547a1.42,1.42,0,1,1,.045-2.84h1.42v-1.42a1.421,1.421,0,0,1,1.4-1.443h.034a1.43,1.43,0,0,1,1.409,1.443v1.42h1.454A1.411,1.411,0,0,1,17.7,18.444Z" transform="translate(0.918 1.018)" fill="#6f57d9"/>
  </g>
</svg>
