<svg xmlns="http://www.w3.org/2000/svg" width="40" height="31.427" viewBox="0 0 40 31.427">
  <g id="generalLedger" transform="translate(-621 -288.05)">
    <path id="icons8_ledger" data-name="icons8 ledger" d="M598.048,17.545a4.3,4.3,0,0,0-4.285-4.285H582.81a6.131,6.131,0,0,0-4.762,2.4,6.1,6.1,0,0,0-4.762-2.4H562.335a4.31,4.31,0,0,0-4.285,4.285V35.64a5.264,5.264,0,0,0,.057.543,1.518,1.518,0,0,0-.057.409V40.4a4.31,4.31,0,0,0,4.285,4.285h31.427a4.3,4.3,0,0,0,4.285-4.285V36.592a1.178,1.178,0,0,0-.048-.409,3.476,3.476,0,0,0,.048-.543ZM562.335,41.83a1.417,1.417,0,0,1-1.428-1.381v-.79a4.084,4.084,0,0,0,1.428.267h9.552A5.434,5.434,0,0,1,576,41.83Zm14.285-3.219a8.26,8.26,0,0,0-4.733-1.543h-9.552a1.417,1.417,0,0,1-1.428-1.381V17.545a1.412,1.412,0,0,1,1.39-1.428h10.99a3.31,3.31,0,0,1,3.333,3.3Zm18.57,1.79a1.392,1.392,0,0,1-1.381,1.428H580.1a5.439,5.439,0,0,1,4.124-1.9h9.542a4.044,4.044,0,0,0,1.428-.267Zm0-22.856V35.64a1.392,1.392,0,0,1-1.381,1.428h-9.59a8.312,8.312,0,0,0-4.743,1.543V19.45a3.317,3.317,0,0,1,3.3-3.333h10.99a1.4,1.4,0,0,1,1.428,1.381A.043.043,0,0,1,595.191,17.545Z" transform="translate(62.95 274.79)" fill="#b0adff"/>
    <path id="Path_470" data-name="Path 470" d="M574.05,20.76a1.5,1.5,0,0,1-1.5,1.5h-7a1.5,1.5,0,0,1,0-3h7A1.5,1.5,0,0,1,574.05,20.76Z" transform="translate(62.95 274.475)" fill="#6f57d9"/>
    <path id="Path_471" data-name="Path 471" d="M570.05,32.76a1.5,1.5,0,0,1-1.5,1.5h-3a1.5,1.5,0,1,1,0-3h3A1.5,1.5,0,0,1,570.05,32.76Z" transform="translate(62.95 273.846)" fill="#6f57d9"/>
    <path id="Path_472" data-name="Path 472" d="M574.05,26.76a1.5,1.5,0,0,1-1.5,1.5h-7a1.5,1.5,0,0,1,0-3h7A1.5,1.5,0,0,1,574.05,26.76Z" transform="translate(62.95 274.161)" fill="#6f57d9"/>
    <path id="Path_473" data-name="Path 473" d="M590.55,34.18v.58a1.5,1.5,0,0,1-3,0v-.54a4.287,4.287,0,0,1-3.29-2.19,1.555,1.555,0,0,1,.37-1.96,1.576,1.576,0,0,1,.24-.15,1.51,1.51,0,0,1,2.02.67,1.3,1.3,0,0,0,1.2.67h1.72a1.25,1.25,0,0,0,0-2.5h-1a4.452,4.452,0,0,1-4.28-2.96c-.02-.07-.04-.15-.06-.23a4.237,4.237,0,0,1,3.08-5.14v-.67a1.5,1.5,0,1,1,3,0v.61a4.012,4.012,0,0,1,2.79,2.11,1.554,1.554,0,0,1-.37,1.97,1.573,1.573,0,0,1-.24.15,1.5,1.5,0,0,1-2.01-.67,1.155,1.155,0,0,0-1.2-.67h-.85a1.323,1.323,0,0,0-1.34,1.25,1.25,1.25,0,0,0,1.25,1.25h1.03a4.394,4.394,0,0,1,4.42,3.74A4.251,4.251,0,0,1,590.55,34.18Z" transform="translate(60.947 274.266)" fill="#6f57d9"/>
  </g>
</svg>
