<svg xmlns="http://www.w3.org/2000/svg" xmlns:xlink="http://www.w3.org/1999/xlink" width="362.011" height="88.383" viewBox="0 0 362.011 88.383">
  <defs>
    <linearGradient id="linear-gradient" y1="0.38" x2="1" y2="0.616" gradientUnits="objectBoundingBox">
      <stop offset="0" stop-color="#5b1db3"/>
      <stop offset="1" stop-color="#5d19bc"/>
    </linearGradient>
    <linearGradient id="linear-gradient-2" x1="1" y1="0.5" x2="0" y2="0.715" gradientUnits="objectBoundingBox">
      <stop offset="0" stop-color="#45118a"/>
      <stop offset="1" stop-color="#49108f"/>
    </linearGradient>
    <linearGradient id="linear-gradient-3" x1="1" y1="0.5" x2="0.041" y2="0.5" gradientUnits="objectBoundingBox">
      <stop offset="0" stop-color="#7230d6"/>
      <stop offset="1" stop-color="#6429d2"/>
    </linearGradient>
  </defs>
  <g id="heroLabel" transform="translate(-613 -210)">
    <g id="accountingSystemLogo" transform="translate(890.045 207)">
      <path id="Path_561" data-name="Path 561" d="M5.646,12.161A6.285,6.285,0,0,0,5,14.92V57.506a6.313,6.313,0,0,0,3.373,5.587L41.062,80.3a8.409,8.409,0,0,0,3.92.968v-48.4Z" transform="translate(0 10.117)" fill="#8a75e5"/>
      <path id="Path_562" data-name="Path 562" d="M24,32.866v48.4a8.409,8.409,0,0,0,3.92-.968L60.61,63.093a6.313,6.313,0,0,0,3.373-5.587V14.92a6.285,6.285,0,0,0-.646-2.759Z" transform="translate(20.983 10.117)" fill="#6e4cd4"/>
      <path id="Path_563" data-name="Path 563" d="M44.644,42.983l39.337-20.7a6.294,6.294,0,0,0-2.965-2.946L48.246,3.81a8.425,8.425,0,0,0-7.207,0L8.272,19.332a6.313,6.313,0,0,0-2.965,2.946Z" transform="translate(0.339 0)" fill="#b0adff"/>
      <path id="Path_564" data-name="Path 564" d="M13.375,16.306A3.616,3.616,0,0,0,13,17.9V42.558a3.653,3.653,0,0,0,1.953,3.234l18.927,9.96a4.867,4.867,0,0,0,2.271.562V28.292Z" transform="translate(8.835 14.694)" fill="url(#linear-gradient)"/>
      <path id="Path_565" data-name="Path 565" d="M24,28.292V56.314a4.873,4.873,0,0,0,2.271-.562L45.2,45.792a3.653,3.653,0,0,0,1.953-3.234V17.9a3.623,3.623,0,0,0-.375-1.6Z" transform="translate(20.983 14.694)" fill="url(#linear-gradient-2)"/>
      <path id="Path_566" data-name="Path 566" d="M35.952,34.15,58.726,22.163a3.661,3.661,0,0,0-1.717-1.707L38.038,11.471a4.878,4.878,0,0,0-4.173,0L14.894,20.457a3.643,3.643,0,0,0-1.717,1.707Z" transform="translate(9.03 8.837)" fill="url(#linear-gradient-3)"/>
    </g>
    <g id="Group_42" data-name="Group 42" transform="translate(0 -2)">
      <text id="نظام_التحكم_المحاسبي" data-name="نظام التحكم المحاسبي" transform="translate(613 252)" fill="#b0adff" font-size="24" font-family="GESSTwoBold-Bold, GE SS Two" font-weight="700"><tspan x="0" y="0">نظام التحكم المحاسبي</tspan></text>
      <g id="Group_41" data-name="Group 41">
        <text id="شامل_تقني_ذكي" data-name="شامل , تقني ,ذكي" transform="translate(760 277)" fill="#6b2cd4" stroke="#b0adff" stroke-linecap="round" stroke-width="1" font-size="14" font-family="SegoeUI-Bold, Segoe UI" font-weight="700"><tspan x="0" y="0">,</tspan><tspan y="0">,</tspan><tspan y="0" font-family="GESSTwoBold-Bold, GE SS Two">شامل , تقني ,ذ</tspan></text>
        <text id="شامل_تقني_ذكي-2" data-name="شامل , تقني ,ذكي" transform="translate(760 277)" fill="#6b2cd4" font-size="14" font-family="SegoeUI-Bold, Segoe UI" font-weight="700"><tspan x="0" y="0">,</tspan><tspan y="0">,</tspan><tspan y="0" font-family="GESSTwoBold-Bold, GE SS Two">شامل , تقني ,ذ</tspan></text>
        <rect id="Rectangle_81" data-name="Rectangle 81" width="143" height="4" rx="2" transform="translate(614 273)" fill="#6b2cd4" stroke="#b0adff" stroke-width="1"/>
        <rect id="Rectangle_83" data-name="Rectangle 83" width="143" height="4" rx="2" transform="translate(614 273)" fill="#6b2cd4"/>
      </g>
    </g>
  </g>
</svg>
