<svg xmlns="http://www.w3.org/2000/svg" width="32.381" height="40" viewBox="0 0 32.381 40">
  <g id="mobilePayment" transform="translate(-237 -288.05)">
    <path id="icons8_prepaid_recharge" data-name="icons8 prepaid recharge" d="M188.55,44.71h-5a1.427,1.427,0,1,0,0,2.85h5a1.427,1.427,0,1,0,0-2.85Zm8.5-8.55a12.9,12.9,0,0,1-2-.161V48.985a1.462,1.462,0,0,1-1.5,1.425h-15a1.468,1.468,0,0,1-1.5-1.425V19.535a1.468,1.468,0,0,1,1.5-1.425h6.98a12.511,12.511,0,0,1,2.17-2.85h-9.15a4.4,4.4,0,0,0-4.5,4.275v29.45a4.4,4.4,0,0,0,4.5,4.275h15a4.392,4.392,0,0,0,4.5-4.275V36.112C197.72,36.141,197.39,36.16,197.05,36.16Z" transform="translate(62.95 274.79)" fill="#b0adff"/>
    <path id="Path_454" data-name="Path 454" d="M197.05,13.26a11,11,0,1,0,11,11A11.007,11.007,0,0,0,197.05,13.26Zm1,17v1a1,1,0,0,1-2,0v-1a4.506,4.506,0,0,1-3.2-1.29,1,1,0,1,1,1.35-1.47l.06.06a2.493,2.493,0,0,0,1.83.7h1.96a1.5,1.5,0,0,0,0-3H196.3a3.487,3.487,0,1,1-.25-6.97V17.26a1,1,0,1,1,2,0v1.02a3.649,3.649,0,0,1,2.84,1.44,1,1,0,1,1-1.68,1.08,1.773,1.773,0,0,0-1.3-.54H196.3a1.5,1.5,0,0,0,0,3h1.75a3.5,3.5,0,0,1,0,7Z" transform="translate(61.331 274.79)" fill="#6f57d9"/>
  </g>
</svg>
