<svg xmlns="http://www.w3.org/2000/svg" width="40" height="40" viewBox="0 0 40 40">
  <g id="other" transform="translate(-610 -10)">
    <path id="icons8_four_squares" d="M11,6a5.026,5.026,0,0,0-5,5v8.889a5.026,5.026,0,0,0,5,5h8.889a5.026,5.026,0,0,0,5-5V11a5.026,5.026,0,0,0-5-5ZM32.111,6a5.026,5.026,0,0,0-5,5v8.889a5.026,5.026,0,0,0,5,5H41a5.026,5.026,0,0,0,5-5V11a5.026,5.026,0,0,0-5-5ZM11,9.333h8.889A1.642,1.642,0,0,1,21.556,11v8.889a1.642,1.642,0,0,1-1.667,1.667H11a1.642,1.642,0,0,1-1.667-1.667V11A1.642,1.642,0,0,1,11,9.333Zm21.111,0H41A1.642,1.642,0,0,1,42.667,11v8.889A1.642,1.642,0,0,1,41,21.556H32.111a1.642,1.642,0,0,1-1.667-1.667V11A1.642,1.642,0,0,1,32.111,9.333ZM11,27.111a5.026,5.026,0,0,0-5,5V41a5.026,5.026,0,0,0,5,5h8.889a5.026,5.026,0,0,0,5-5V32.111a5.026,5.026,0,0,0-5-5Zm0,3.333h8.889a1.642,1.642,0,0,1,1.667,1.667V41a1.642,1.642,0,0,1-1.667,1.667H11A1.642,1.642,0,0,1,9.333,41V32.111A1.642,1.642,0,0,1,11,30.444Z" transform="translate(604 4)" fill="#b0adff"/>
    <path id="Path_481" data-name="Path 481" d="M23.827,21.518a2.437,2.437,0,0,1-2.456,2.417H18.934v2.495a2.437,2.437,0,0,1-4.873-.058V23.934H11.547a2.437,2.437,0,1,1,.078-4.873h2.436V16.625a2.438,2.438,0,0,1,2.4-2.475h.058a2.454,2.454,0,0,1,2.417,2.475v2.436h2.495A2.421,2.421,0,0,1,23.827,21.518Z" transform="translate(623.977 18.977)" fill="#6f57d9"/>
  </g>
</svg>
