<?xml version="1.0" encoding="utf-8"?>
<svg xmlns="http://www.w3.org/2000/svg" viewBox="0 0 24 24" width="96" height="96">
  <path d="M5 9H19V21H5z" opacity=".3" fill="#FFFFFF" />
  <path d="M12,1C8.636,1,6,3.636,6,7v2h2V7c0-2.243,1.757-4,4-4s4,1.757,4,4v2h2V7C18,3.636,15.364,1,12,1z" fill="#FFFFFF" />
  <path d="M18,8H6c-1.1,0-2,0.9-2,2v10c0,1.1,0.9,2,2,2h12c1.1,0,2-0.9,2-2V10C20,8.9,19.1,8,18,8z M18,20H6V10h12V20z" fill="#FFFFFF" />
  <path d="M12 14A1 1 0 1 0 12 16 1 1 0 1 0 12 14zM16 14A1 1 0 1 0 16 16 1 1 0 1 0 16 14zM8 14A1 1 0 1 0 8 16 1 1 0 1 0 8 14z" fill="#FFFFFF" />
</svg>