<svg xmlns="http://www.w3.org/2000/svg" width="36.923" height="40" viewBox="0 0 36.923 40">
  <g id="payments" transform="translate(-340 -287.05)">
    <path id="icons8_card_wallet_1" data-name="icons8 card wallet 1" d="M309.87,21.478v-.051H281.665a1.542,1.542,0,0,1,0-3.083H283.2v-.514a7.832,7.832,0,0,1,.451-2.569h-1.99a4.6,4.6,0,0,0-4.574,4.286,1.28,1.28,0,0,0-.041.339v27.75a4.647,4.647,0,0,0,4.615,4.625h27.692a4.64,4.64,0,0,0,4.615-4.625V26.052A4.627,4.627,0,0,0,309.87,21.478Zm1.026,4.574V47.635a1.5,1.5,0,0,1-1.487,1.542H281.665a1.527,1.527,0,0,1-1.538-1.49V24.51h6.421a1.322,1.322,0,0,0,.492,0h21.046a1.322,1.322,0,0,0,.492,0h.779A1.514,1.514,0,0,1,310.9,26,.046.046,0,0,1,310.9,26.052Z" transform="translate(62.95 274.79)" fill="#b0adff"/>
    <circle id="Ellipse_55" data-name="Ellipse 55" cx="2.5" cy="2.5" r="2.5" transform="translate(365.744 308.668)" fill="#6f57d9"/>
    <path id="Path_458" data-name="Path 458" d="M309.05,17.76v3.5h-3V17.72a2.48,2.48,0,0,0-2.5-2.46h-8.5v6h-3v-6h-1.54a2.48,2.48,0,0,0-2.46,2.5v3.5h-3v-3.5a5.529,5.529,0,0,1,5.5-5.5h13A5.516,5.516,0,0,1,309.05,17.76Z" transform="translate(63.873 274.79)" fill="#6f57d9"/>
    <line id="Line_13" data-name="Line 13" x1="0.11" transform="translate(372.923 296.281)" fill="none" stroke="#fff" stroke-miterlimit="10" stroke-width="0.05"/>
  </g>
</svg>
