<?xml version="1.0" encoding="utf-8"?>
<svg xmlns="http://www.w3.org/2000/svg" viewBox="0 0 24 24" width="96" height="96">
  <path d="M20,11.414l-9.293,9.293C10.518,20.896,10.267,21,10,21s-0.518-0.104-0.707-0.293l-6-6C3.104,14.518,3,14.267,3,14c0-0.267,0.104-0.518,0.293-0.707L12.586,4H20V11.414z" opacity=".3" fill="#FFFFFF" />
  <path d="M10,22c-0.534,0-1.036-0.208-1.414-0.586l-6-6C2.208,15.036,2,14.534,2,14s0.208-1.036,0.586-1.414L12.172,3H21v8.828l-9.586,9.586C11.036,21.792,10.534,22,10,22z M13,5l-9,9l6,6l9-9V5H13z" fill="#FFFFFF" />
  <path d="M15.416,12.094l-1.228-1.228c0.893-0.892,0.654-1.412,0.495-1.571c-0.087-0.087-0.513-0.468-1.245,0.265c-1.278,1.278,1.368,3.128-0.715,5.211c-1.513,1.513-2.959,0.474-3.207,0.282l-0.864,0.864L8,15.266l0.864-0.864c-0.175-0.23-1.389-1.744,0.49-3.623l1.228,1.228c-1.11,1.11-0.491,1.637-0.404,1.724c0.095,0.095,0.582,0.546,1.307-0.179c1.449-1.449-1.442-3.053,0.729-5.225c1.488-1.488,2.954-0.487,3.202-0.294l0.929-0.929L17,7.759l-0.946,0.946C16.222,8.953,17.124,10.386,15.416,12.094z" fill="#FFFFFF" />
</svg>