<svg xmlns="http://www.w3.org/2000/svg" xmlns:xlink="http://www.w3.org/1999/xlink" width="21.674" height="34.501" viewBox="0 0 21.674 34.501">
  <defs>
    <linearGradient id="linear-gradient" x1="0.5" y1="1" x2="0.5" gradientUnits="objectBoundingBox">
      <stop offset="0" stop-color="#fee100"/>
      <stop offset="1" stop-color="#f39f16"/>
    </linearGradient>
  </defs>
  <g id="returnSale" transform="translate(-391.386 -402.265)">
    <path id="Path_56" data-name="Path 56" d="M10.381,0H1.038A1.039,1.039,0,0,0,0,1.038V5.191A1.039,1.039,0,0,0,1.038,6.229h9.343Z" transform="translate(413.06 408.494) rotate(180)" fill="#f5a614"/>
    <path id="Path_57" data-name="Path 57" d="M.841,8.769H5.19V34.5L10.2,29.532a4.1,4.1,0,0,0,1.217-2.911V8.769h4.35a.83.83,0,0,0,.593-1.419L9.406.452a1.566,1.566,0,0,0-2.2,0L.248,7.35A.83.83,0,0,0,.841,8.769Z" transform="translate(407.995 436.766) rotate(180)" fill="url(#linear-gradient)"/>
  </g>
</svg>
