<svg xmlns="http://www.w3.org/2000/svg" width="39.977" height="39.998" viewBox="0 0 39.977 39.998">
  <g id="sendTransfer" transform="translate(-76 -288.05)">
    <path id="icons8_initiate_money_transfer_2-2" data-name="icons8 initiate money transfer 2-2" d="M45.663,37.28a2,2,0,1,0,2.1,2A2.06,2.06,0,0,0,45.663,37.28Zm-25.249,0a2,2,0,1,0,2.1,2A2.06,2.06,0,0,0,20.414,37.28Zm17.453-2.66a6.141,6.141,0,0,0-9.647,0,8.031,8.031,0,0,0,0,9.33,6.172,6.172,0,0,0,8.332,1.25,5.858,5.858,0,0,0,1.315-1.25,8.077,8.077,0,0,0,0-9.33Zm-2.546,7.56a2.908,2.908,0,0,1-4.555,0,5.2,5.2,0,0,1,0-5.8,2.908,2.908,0,0,1,4.555,0A5.2,5.2,0,0,1,35.321,42.18Zm10.341-4.9a2,2,0,1,0,2.1,2A2.06,2.06,0,0,0,45.663,37.28Zm-12.624-5a6.049,6.049,0,0,0-4.818,2.34,8.031,8.031,0,0,0,0,9.33,6.172,6.172,0,0,0,8.332,1.25,5.858,5.858,0,0,0,1.315-1.25,8.077,8.077,0,0,0,0-9.33A6.055,6.055,0,0,0,33.038,32.28Zm2.283,9.9a2.908,2.908,0,0,1-4.555,0,5.2,5.2,0,0,1,0-5.8,2.908,2.908,0,0,1,4.555,0A5.2,5.2,0,0,1,35.321,42.18Zm-14.907-4.9a2,2,0,1,0,2.1,2A2.06,2.06,0,0,0,20.414,37.28Zm28.931-10H16.732a3.625,3.625,0,0,0-3.682,3.5v17a3.625,3.625,0,0,0,3.682,3.5H49.345a3.612,3.612,0,0,0,3.682-3.5v-17A3.612,3.612,0,0,0,49.345,27.28Zm.526,18a3.084,3.084,0,0,0-3.156,3H19.362a3.077,3.077,0,0,0-3.156-3v-12a3.077,3.077,0,0,0,3.156-3H46.715a3.084,3.084,0,0,0,3.156,3Zm-4.208-8a2,2,0,1,0,2.1,2A2.06,2.06,0,0,0,45.663,37.28Zm-12.624-5a6.049,6.049,0,0,0-4.818,2.34,8.031,8.031,0,0,0,0,9.33,6.172,6.172,0,0,0,8.332,1.25,5.858,5.858,0,0,0,1.315-1.25,8.077,8.077,0,0,0,0-9.33A6.055,6.055,0,0,0,33.038,32.28Zm2.283,9.9a2.908,2.908,0,0,1-4.555,0,5.2,5.2,0,0,1,0-5.8,2.908,2.908,0,0,1,4.555,0A5.2,5.2,0,0,1,35.321,42.18Zm-14.907-4.9a2,2,0,1,0,2.1,2A2.06,2.06,0,0,0,20.414,37.28Z" transform="translate(62.95 276.768)" fill="#b0adff"/>
    <path id="Path_459" data-name="Path 459" d="M37.12,19.88a1.512,1.512,0,0,1-2.13-.04L33.55,18.4v5.38a1.5,1.5,0,0,1-3,0V18.4l-1.43,1.44c-.02.01-.03.03-.04.04a1.5,1.5,0,0,1-2.09-2.16l3.87-3.86a1.507,1.507,0,0,1,1.17-.6,1.461,1.461,0,0,1,1.21.59l3.88,3.87c.01.01.02.03.03.04A1.5,1.5,0,0,1,37.12,19.88Z" transform="translate(63.939 274.79)" fill="#6f57d9"/>
  </g>
</svg>
