<svg xmlns="http://www.w3.org/2000/svg" width="40" height="35.805" viewBox="0 0 40 35.805">
  <g id="sentTransfers" transform="translate(-910 -12.097)">
    <path id="Path_508" data-name="Path 508" d="M14.251,22.11H7.9a1.591,1.591,0,0,0-1.6,1.566,1.569,1.569,0,0,0,1.554,1.592h6.368a1.58,1.58,0,0,0,.038-3.159Zm4.22-6.317H7.9a1.591,1.591,0,0,0-1.6,1.566,1.57,1.57,0,0,0,1.554,1.592H18.421a1.58,1.58,0,0,0,.05-3.159Zm0,0H7.9a1.591,1.591,0,0,0-1.6,1.566,1.57,1.57,0,0,0,1.554,1.592H18.421a1.58,1.58,0,0,0,.05-3.159Zm-4.22,6.317H7.9a1.591,1.591,0,0,0-1.6,1.566,1.569,1.569,0,0,0,1.554,1.592h6.368a1.58,1.58,0,0,0,.038-3.159ZM36.324,0H3.676A3.707,3.707,0,0,0,0,3.689V32.117a3.707,3.707,0,0,0,3.676,3.689H36.324A3.707,3.707,0,0,0,40,32.117V3.689A3.707,3.707,0,0,0,36.324,0Zm.517,32.117a.5.5,0,0,1-.517.53H3.676a.5.5,0,0,1-.517-.53V9.476H36.841Zm0-25.8H3.159V3.689a.5.5,0,0,1,.517-.53H36.324a.5.5,0,0,1,.517.53Zm-29,12.635H18.421a1.58,1.58,0,0,0,.05-3.159H7.9a1.591,1.591,0,0,0-1.6,1.566A1.57,1.57,0,0,0,7.846,18.952Zm0,6.317h6.368a1.58,1.58,0,0,0,.038-3.159H7.9a1.591,1.591,0,0,0-1.6,1.566A1.569,1.569,0,0,0,7.846,25.269Zm6.406-3.159H7.9a1.591,1.591,0,0,0-1.6,1.566,1.569,1.569,0,0,0,1.554,1.592h6.368a1.58,1.58,0,0,0,.038-3.159Zm4.22-6.317H7.9a1.591,1.591,0,0,0-1.6,1.566,1.57,1.57,0,0,0,1.554,1.592H18.421a1.58,1.58,0,0,0,.05-3.159Zm0,0H7.9a1.591,1.591,0,0,0-1.6,1.566,1.57,1.57,0,0,0,1.554,1.592H18.421a1.58,1.58,0,0,0,.05-3.159Zm-4.22,6.317H7.9a1.591,1.591,0,0,0-1.6,1.566,1.569,1.569,0,0,0,1.554,1.592h6.368a1.58,1.58,0,0,0,.038-3.159Z" transform="translate(910 12.097)" fill="#b0adff"/>
    <path id="Path_509" data-name="Path 509" d="M37.12,18.66a1.512,1.512,0,0,0-2.13.04l-1.44,1.44V14.76a1.5,1.5,0,1,0-3,0v5.38L29.12,18.7c-.02-.01-.03-.03-.04-.04a1.5,1.5,0,0,0-2.09,2.16l3.87,3.86a1.507,1.507,0,0,0,1.17.6,1.461,1.461,0,0,0,1.21-.59l3.88-3.87c.01-.01.02-.03.03-.04A1.5,1.5,0,0,0,37.12,18.66Z" transform="translate(970.05 52.28) rotate(180)" fill="#6f57d9"/>
  </g>
</svg>
