<svg xmlns="http://www.w3.org/2000/svg" width="38.072" height="40" viewBox="0 0 38.072 40">
  <g id="servicePayment" transform="translate(-286 -287.548)">
    <path id="icons8_receipt_dollar" data-name="icons8 receipt dollar" d="M247.55,39.048h-2a1.461,1.461,0,1,0,0,2.921h2a1.461,1.461,0,1,0,0-2.921Zm-8,0h-9a1.461,1.461,0,1,0,0,2.921h9a1.461,1.461,0,1,0,0-2.921Zm8-5.842h-2a1.461,1.461,0,1,0,0,2.921h2a1.461,1.461,0,1,0,0-2.921Zm-8,0h-9a1.461,1.461,0,1,0,0,2.921h9a1.461,1.461,0,1,0,0-2.921Zm8-8.763h-17a1.461,1.461,0,1,0,0,2.921h17a1.461,1.461,0,1,0,0-2.921Zm6.02-11.683a1.637,1.637,0,0,0-.62.127l-3.92,1.694-4.41-1.714a1.512,1.512,0,0,0-1.13,0l-4.44,1.723-4.44-1.723a1.506,1.506,0,0,0-.56-.107,1.587,1.587,0,0,0-.56.107l-4.41,1.714-3.92-1.694a1.507,1.507,0,0,0-1.97.73,1.441,1.441,0,0,0-.14.6V44.4a5.439,5.439,0,0,0,5.5,5.355h21c.15,0,.3-.01.45-.019a5.823,5.823,0,0,1-.64-1.383,3.136,3.136,0,0,1-.13-1.519H228.55a2.469,2.469,0,0,1-2.5-2.434V16.469l2.4,1.032a1.48,1.48,0,0,0,1.17.019l4.43-1.723,4.44,1.723a1.512,1.512,0,0,0,1.13,0l4.43-1.723,4.44,1.723a1.48,1.48,0,0,0,1.17-.019l2.39-1.032V34.316c.19-.127.38-.234.57-.341a3.468,3.468,0,0,1,2.43-2.57V14.22A1.468,1.468,0,0,0,253.57,12.76Z" transform="translate(62.95 274.79)" fill="#b0adff"/>
    <path id="Path_457" data-name="Path 457" d="M262.07,46.78a4.761,4.761,0,0,1-4.51,4.99v.49a1.5,1.5,0,0,1-3,0V51.7a4.385,4.385,0,0,1-3.3-2.98,1.5,1.5,0,0,1,2.86-.9,1.407,1.407,0,0,0,1.35.99l1.84-.02a1.766,1.766,0,0,0-.02-3.53h-1.47a4.756,4.756,0,0,1-1.27-9.34v-.66a1.5,1.5,0,0,1,1.5-1.5h.01a1.5,1.5,0,0,1,1.5,1.5v.57a4.37,4.37,0,0,1,3.27,3,1.5,1.5,0,1,1-2.86.88,1.416,1.416,0,0,0-1.35-1l-.82.02a1.765,1.765,0,0,0,.02,3.53h1.47A4.756,4.756,0,0,1,262.07,46.78Z" transform="translate(61.996 273.788)" fill="#6f57d9"/>
  </g>
</svg>
