<?xml version="1.0" encoding="utf-8"?>
<svg xmlns="http://www.w3.org/2000/svg" viewBox="0 0 24 24" width="96" height="96">
  <path d="M8 8C6.3 8 5 6.7 5 5c0-1.7 1.3-3 3-3 1.7 0 3 1.3 3 3C11 6.7 9.7 8 8 8zM8 4C7.4 4 7 4.4 7 5c0 .6.4 1 1 1 .6 0 1-.4 1-1C9 4.4 8.6 4 8 4zM16 8c-1.7 0-3-1.3-3-3 0-1.7 1.3-3 3-3 1.7 0 3 1.3 3 3C19 6.7 17.7 8 16 8zM16 4c-.6 0-1 .4-1 1 0 .6.4 1 1 1 .6 0 1-.4 1-1C17 4.4 16.6 4 16 4z" fill="#FFFFFF" />
  <path d="M10 4.1H12V7.8999999999999995H10z" transform="rotate(-32.264 10.97 6.032)" fill="#FFFFFF" />
  <path d="M7 15A1 1 0 1 0 7 17 1 1 0 1 0 7 15zM17 15A1 1 0 1 0 17 17 1 1 0 1 0 17 15zM9 14L15 4.8 13.3 3.8 6.7 14zM12 13l-1.3 2c-.4.6-1 1-1.7 1 0 1.7 1.3 3 3 3s3-1.3 3-3C15 14.4 13.7 13 12 13z" fill="#FFFFFF" />
  <path d="M13.3,11l-2.7,4.2C10.3,15.7,9.7,16,9.1,16H9v-5H3v10h18V11 C21,11,13.3,11,13.3,11z" opacity=".3" fill="#FFFFFF" />
  <path d="M21,10h-7l-1.3,2h6.4c0.2,0.4,0.5,0.8,0.9,0.9v6.2c-0.4,0.2-0.8,0.5-0.9,0.9H4.9c-0.2-0.4-0.5-0.8-0.9-0.9v-6.2 c0.4-0.2,0.8-0.5,0.9-0.9h5.3l1.3-2H3c-0.6,0-1,0.4-1,1v10c0,0.6,0.4,1,1,1h18c0.6,0,1-0.4,1-1V11C22,10.4,21.6,10,21,10z" fill="#FFFFFF" />
</svg>