<svg id="teleyemen" xmlns="http://www.w3.org/2000/svg" xmlns:xlink="http://www.w3.org/1999/xlink" width="36.66" height="36.66" viewBox="0 0 36.66 36.66">
  <defs>
    <clipPath id="clip-path">
      <rect id="Rectangle_73" data-name="Rectangle 73" width="36.66" height="36.66" transform="translate(0 0)" fill="#b0adff"/>
    </clipPath>
  </defs>
  <path id="Path_545" data-name="Path 545" d="M26.66,31.66H30V28.33H26.66Zm-13.33,0h3.33V28.33H13.33Zm-6.67,0H10V28.33H6.66Zm20,0H30V28.33H26.66Zm-13.33,0h3.33V28.33H13.33Zm-6.67,0H10V28.33H6.66Zm20,0H30V28.33H26.66Zm-13.33,0h3.33V28.33H13.33Zm-6.67,0H10V28.33H6.66Z" fill="#6f57d9"/>
  <g id="Group_34" data-name="Group 34">
    <g id="Group_33" data-name="Group 33" clip-path="url(#clip-path)">
      <path id="Path_546" data-name="Path 546" d="M31.66,23.33H20V19.59L30.46,16.6a1.671,1.671,0,0,0,1.2-1.6V9.55a3.325,3.325,0,1,0-3.33,0v4.19L20,16.12V6.21a3.33,3.33,0,1,0-3.34,0v9.91L8.33,13.74V9.55A3.335,3.335,0,1,0,5,9.55V15a1.671,1.671,0,0,0,1.2,1.6l10.46,2.99v3.74H5a5.021,5.021,0,0,0-5,5v3.33a5.015,5.015,0,0,0,5,5H31.66a5.015,5.015,0,0,0,5-5V28.33a5.021,5.021,0,0,0-5-5m1.67,8.33a1.648,1.648,0,0,1-1.67,1.67H5a1.648,1.648,0,0,1-1.67-1.67V28.33A1.654,1.654,0,0,1,5,26.66H31.66a1.654,1.654,0,0,1,1.67,1.67Z" fill="#b0adff"/>
    </g>
  </g>
</svg>
