<svg xmlns="http://www.w3.org/2000/svg" xmlns:xlink="http://www.w3.org/1999/xlink" width="36" height="36" viewBox="0 0 36 36">
  <defs>
    <linearGradient id="linear-gradient" y1="0.5" x2="1" y2="0.5" gradientUnits="objectBoundingBox">
      <stop offset="0" stop-color="#fee100"/>
      <stop offset="1" stop-color="#f39f16"/>
    </linearGradient>
    <linearGradient id="linear-gradient-2" y1="0.5" x2="1" y2="0.5" gradientUnits="objectBoundingBox">
      <stop offset="0" stop-color="#11408a"/>
      <stop offset="1" stop-color="#103f8f"/>
    </linearGradient>
    <linearGradient id="linear-gradient-5" y1="0.5" x2="1" y2="0.5" gradientUnits="objectBoundingBox">
      <stop offset="0" stop-color="#307dd6"/>
      <stop offset="1" stop-color="#29a4d2"/>
    </linearGradient>
    <linearGradient id="linear-gradient-6" y1="5.75" y2="5.75" xlink:href="#linear-gradient-5"/>
    <linearGradient id="linear-gradient-7" x1="-31.952" y1="-4.25" x2="-30.952" y2="-4.25" xlink:href="#linear-gradient"/>
  </defs>
  <g id="translation" transform="translate(-6 -6)">
    <path id="Path_108" data-name="Path 108" d="M6,8A2,2,0,0,1,8,6H29a2,2,0,0,1,2,2V29a2,2,0,0,1-2,2H8a2,2,0,0,1-2-2Z" fill="url(#linear-gradient)"/>
    <path id="Path_109" data-name="Path 109" d="M12.832,25.854l-.916-1.776.889-.459c.061-.031,6.1-3.208,9.043-9.1l.446-.9,1.79.893-.447.9A24.973,24.973,0,0,1,13.721,25.4Z" fill="url(#linear-gradient-2)"/>
    <path id="Path_110" data-name="Path 110" d="M24.019,25l-.87-.49a29.324,29.324,0,0,1-8.5-7.667l1.627-1.162a27.79,27.79,0,0,0,7.851,7.087L25,23.26ZM12,13H26v2H12Z" fill="url(#linear-gradient-2)"/>
    <path id="Path_111" data-name="Path 111" d="M18,11h2v4H18Z" fill="url(#linear-gradient-2)"/>
    <path id="Path_112" data-name="Path 112" d="M31,17h9a2,2,0,0,1,2,2V40a2,2,0,0,1-2,2H19a2,2,0,0,1-2-2V31Z" fill="url(#linear-gradient-5)"/>
    <path id="Path_113" data-name="Path 113" d="M32.172,33H27.813l-1.008,3H24l4.764-13h2.444L36,36H33.195Zm-3.728-2h3.1l-1.559-4.714Z" fill="#fff"/>
    <path id="Path_114" data-name="Path 114" d="M6,41.6a.4.4,0,0,0,.691.285l3.332-3.351a.75.75,0,0,0,0-1.058L6.691,34.12A.4.4,0,0,0,6,34.4Z" fill="url(#linear-gradient-6)"/>
    <path id="Path_115" data-name="Path 115" d="M42,6.405a.4.4,0,0,0-.691-.285L37.977,9.471a.75.75,0,0,0,0,1.058l3.332,3.351A.4.4,0,0,0,42,13.6Z" fill="url(#linear-gradient-7)"/>
  </g>
</svg>
