<?xml version="1.0" encoding="utf-8"?>
<svg xmlns="http://www.w3.org/2000/svg" viewBox="0 0 24 24" width="96" height="96">
  <path d="M12,15c-0.3,0-0.7-0.1-1-0.2l-7.5-3.3l0.8-1.8l7.5,3.3l0,0h0.1l7.5-3.3l0.8,1.8l-7.5,3.3C12.6,14.9,12.3,15,12,15z" fill="#FFFFFF" />
  <path d="M11 13.9H13V21H11zM11 4H13V10H11z" fill="#FFFFFF" />
  <path d="M8 6L12 2 16 6zM19 4.4L17.6 5.9 20.6 7.3 18.2 9.9 19.6 11.3 24 6.7z" fill="#FFFFFF" />
  <path d="M16.1,7.6l-1.4,1.5l4.3,2.1v5.5L12,20l-7-3.3v-5.5l4.4-2L7.9,7.6L3,9.9v8l8.1,3.8c0.3,0.2,0.6,0.2,0.9,0.2 c0.3,0,0.6-0.1,0.9-0.2l8.1-3.8v-8L16.1,7.6z" fill="#FFFFFF" />
  <path d="M6.4 6L4.9 4.4 0 6.7 4.4 11.3 5.8 9.9 3.4 7.3z" fill="#FFFFFF" />
  <path d="M22.4,7.4l-4.4-2l-3.4,3.8l3.7,1.7L12,13.6c-0.1,0-6.1-2.7-6.2-2.7l3.6-1.7 L5.9,5.4l-4.3,2l2.8,3L4,10.6v6.7l7.5,3.6c0.3,0.2,0.6,0.2,0.9,0l7.5-3.6v-6.7l-0.4-0.2L22.4,7.4z" opacity=".3" fill="#FFFFFF" />
</svg>