<?xml version="1.0" encoding="utf-8"?>
<svg xmlns="http://www.w3.org/2000/svg" viewBox="0 0 24 24" width="96" height="96">
  <path d="M12,1L3,5c0,0,0,4,0,6c0,7.83,6.439,11.486,9,12c2.561-0.514,9-4.17,9-12c0-2,0-6,0-6L12,1z" opacity=".3" fill="#FFFFFF" />
  <path d="M12,1L3,5c0,0,0,4,0,6c0,7.83,6.439,11.486,9,12c2.561-0.514,9-4.17,9-12c0-2,0-6,0-6L12,1z M19,11 c0,6.134-4.785,9.254-7,9.937C9.785,20.254,5,17.134,5,11V6.3l7-3.111L19,6.3V11z" fill="#FFFFFF" />
  <path d="M11 6H13V14H11zM11 16H13V18H11z" fill="#FFFFFF" />
</svg>