<svg xmlns="http://www.w3.org/2000/svg" width="35.9" height="39.679" viewBox="0 0 35.9 39.679">
  <g id="accountingSystemLogo" transform="translate(-5 -3)">
    <path id="Path_561" data-name="Path 561" d="M5.29,12.161A2.821,2.821,0,0,0,5,13.4V32.518a2.834,2.834,0,0,0,1.514,2.508L21.19,42.751a3.775,3.775,0,0,0,1.76.435V21.456Z" transform="translate(0 -0.506)" fill="#5c1ab9"/>
    <path id="Path_562" data-name="Path 562" d="M24,21.456V43.186a3.775,3.775,0,0,0,1.76-.435l14.676-7.724a2.834,2.834,0,0,0,1.514-2.508V13.4a2.822,2.822,0,0,0-.29-1.239Z" transform="translate(-1.05 -0.506)" fill="#46118b"/>
    <path id="Path_563" data-name="Path 563" d="M22.967,20.95l17.66-9.3A2.826,2.826,0,0,0,39.3,10.332L24.585,3.364a3.782,3.782,0,0,0-3.236,0L6.638,10.332a2.834,2.834,0,0,0-1.331,1.323Z" transform="translate(-0.017 0)" fill="#6b2dd4"/>
    <path id="Path_564" data-name="Path 564" d="M13.168,16.306a1.623,1.623,0,0,0-.168.717V28.092a1.64,1.64,0,0,0,.877,1.452l8.5,4.471a2.185,2.185,0,0,0,1.019.252V21.687Z" transform="translate(-0.442 -0.735)" fill="#8a75e5"/>
    <path id="Path_565" data-name="Path 565" d="M24,21.687v12.58a2.188,2.188,0,0,0,1.019-.252l8.5-4.471a1.64,1.64,0,0,0,.877-1.452V17.023a1.627,1.627,0,0,0-.168-.717Z" transform="translate(-1.05 -0.735)" fill="#6e4cd4"/>
    <path id="Path_566" data-name="Path 566" d="M23.4,21.394l10.224-5.381a1.644,1.644,0,0,0-.771-.766l-8.517-4.034a2.19,2.19,0,0,0-1.873,0l-8.517,4.034a1.635,1.635,0,0,0-.771.766Z" transform="translate(-0.452 -0.442)" fill="#b0adff"/>
  </g>
</svg>
