<svg id="adsl" xmlns="http://www.w3.org/2000/svg" xmlns:xlink="http://www.w3.org/1999/xlink" width="31.66" height="33.27" viewBox="0 0 31.66 33.27">
  <defs>
    <clipPath id="clip-path">
      <rect id="Rectangle_71" data-name="Rectangle 71" width="31.66" height="33.27" transform="translate(0 0)" fill="#6b2dd4"/>
    </clipPath>
  </defs>
  <g id="Group_29" data-name="Group 29" clip-path="url(#clip-path)">
    <path id="Path_540" data-name="Path 540" d="M24.58,25.35a1.665,1.665,0,1,0,1.67,1.67,1.673,1.673,0,0,0-1.67-1.67m-5,0a1.665,1.665,0,1,0,1.67,1.67,1.673,1.673,0,0,0-1.67-1.67m-12.5,0a1.665,1.665,0,1,0,1.67,1.67,1.673,1.673,0,0,0-1.67-1.67m17.5,0a1.665,1.665,0,1,0,1.67,1.67,1.673,1.673,0,0,0-1.67-1.67m-5,0a1.665,1.665,0,1,0,1.67,1.67,1.673,1.673,0,0,0-1.67-1.67m-12.5,0a1.665,1.665,0,1,0,1.67,1.67,1.673,1.673,0,0,0-1.67-1.67M18.51,3.92a1.252,1.252,0,0,0-2.15.87,1.272,1.272,0,0,0,.38.9,5.39,5.39,0,0,1,0,7.66,1.248,1.248,0,0,0,1.73,1.8.078.078,0,0,0,.04-.04,7.931,7.931,0,0,0,0-11.19m6.07,21.43a1.665,1.665,0,1,0,1.67,1.67,1.673,1.673,0,0,0-1.67-1.67m-5,0a1.665,1.665,0,1,0,1.67,1.67,1.673,1.673,0,0,0-1.67-1.67m-12.5,0a1.665,1.665,0,1,0,1.67,1.67,1.673,1.673,0,0,0-1.67-1.67M22.05.38a1.272,1.272,0,0,0-.9-.38,1.252,1.252,0,0,0-.87,2.15,10.393,10.393,0,0,1,0,14.73,1.252,1.252,0,1,0,1.73,1.81.078.078,0,0,1,.04-.04,12.946,12.946,0,0,0,0-18.27" fill="#6b2dd4"/>
    <path id="Path_541" data-name="Path 541" d="M27.91,20.77H14.16V9.52a1.251,1.251,0,0,0-1.23-1.27h-.04a1.251,1.251,0,0,0-1.23,1.27V20.77H8.33V3.68A1.242,1.242,0,0,0,7.1,2.42H7.06A1.242,1.242,0,0,0,5.83,3.68V20.77H3.75A3.764,3.764,0,0,0,0,24.52v5a3.771,3.771,0,0,0,3.75,3.75H27.91a3.771,3.771,0,0,0,3.75-3.75v-5a3.764,3.764,0,0,0-3.75-3.75m1.25,8.75a1.232,1.232,0,0,1-1.25,1.25H3.75A1.232,1.232,0,0,1,2.5,29.52v-5a1.226,1.226,0,0,1,1.25-1.25H6.87a1.408,1.408,0,0,0,.41,0h5.43a1.341,1.341,0,0,0,.4,0h14.8a1.226,1.226,0,0,1,1.25,1.25Z" fill="#370053"/>
  </g>
</svg>
