<svg xmlns="http://www.w3.org/2000/svg" xmlns:xlink="http://www.w3.org/1999/xlink" width="39.978" height="41.471" viewBox="0 0 39.978 41.471">
  <defs>
    <clipPath id="clip-path">
      <rect id="Rectangle_75" data-name="Rectangle 75" width="39.978" height="41.471" transform="translate(0 0)" fill="none"/>
    </clipPath>
  </defs>
  <g id="cashPush" transform="translate(0 0)">
    <g id="Group_37" data-name="Group 37" clip-path="url(#clip-path)">
      <path id="Path_552" data-name="Path 552" d="M32.614,27.47a2,2,0,1,0,2.1,2,2.061,2.061,0,0,0-2.1-2m-25.25,0a2,2,0,1,0,2.1,2,2.061,2.061,0,0,0-2.1-2m17.454-2.66a6.142,6.142,0,0,0-9.647,0,8.03,8.03,0,0,0,0,9.33A6.173,6.173,0,0,0,23.5,35.39a5.867,5.867,0,0,0,1.315-1.25,8.077,8.077,0,0,0,0-9.33m-2.546,7.56a2.908,2.908,0,0,1-4.555,0,5.2,5.2,0,0,1,0-5.8,2.908,2.908,0,0,1,4.555,0,5.363,5.363,0,0,1,0,5.8m10.342-4.9a2,2,0,1,0,2.1,2,2.061,2.061,0,0,0-2.1-2m-12.625-5a6.05,6.05,0,0,0-4.818,2.34,8.03,8.03,0,0,0,0,9.33A6.173,6.173,0,0,0,23.5,35.39a5.867,5.867,0,0,0,1.315-1.25,8.077,8.077,0,0,0,0-9.33,6.053,6.053,0,0,0-4.829-2.34m2.283,9.9a2.908,2.908,0,0,1-4.555,0,5.2,5.2,0,0,1,0-5.8,2.908,2.908,0,0,1,4.555,0,5.363,5.363,0,0,1,0,5.8M7.364,27.47a2,2,0,1,0,2.1,2,2.061,2.061,0,0,0-2.1-2m28.932-10H3.682A3.626,3.626,0,0,0,0,20.97v17a3.626,3.626,0,0,0,3.682,3.5H36.3a3.613,3.613,0,0,0,3.682-3.5v-17a3.613,3.613,0,0,0-3.682-3.5m.526,18a3.084,3.084,0,0,0-3.156,3H6.312a3.077,3.077,0,0,0-3.152-3h0v-12a3.077,3.077,0,0,0,3.156-3v0H33.666a3.084,3.084,0,0,0,3.156,3Zm-4.208-8a2,2,0,1,0,2.1,2,2.061,2.061,0,0,0-2.1-2m-12.625-5a6.05,6.05,0,0,0-4.818,2.34,8.03,8.03,0,0,0,0,9.33A6.173,6.173,0,0,0,23.5,35.39a5.867,5.867,0,0,0,1.315-1.25,8.077,8.077,0,0,0,0-9.33,6.053,6.053,0,0,0-4.829-2.34m2.283,9.9a2.908,2.908,0,0,1-4.555,0,5.2,5.2,0,0,1,0-5.8,2.908,2.908,0,0,1,4.555,0,5.363,5.363,0,0,1,0,5.8M7.364,27.47a2,2,0,1,0,2.1,2,2.061,2.061,0,0,0-2.1-2" fill="#370053"/>
      <path id="Path_553" data-name="Path 553" d="M25.984,1.5v7a1.5,1.5,0,0,1-3,0v-7a1.5,1.5,0,0,1,3,0" fill="#6b2dd4"/>
      <path id="Path_554" data-name="Path 554" d="M17.984,1.5v7a1.5,1.5,0,1,1-3,0v-7a1.5,1.5,0,1,1,3,0" fill="#6b2dd4"/>
      <path id="Path_555" data-name="Path 555" d="M21.984,1.5v10a1.5,1.5,0,0,1-3,0V1.5a1.5,1.5,0,0,1,3,0" fill="#6b2dd4"/>
      <path id="Path_556" data-name="Path 556" d="M19.581,16.1a1.269,1.269,0,0,0,1.8,0l8.9-8.92H29.3a1.271,1.271,0,0,0-.9.373l-7.019,7.036a1.267,1.267,0,0,1-1.8,0l-7.02-7.036a1.267,1.267,0,0,0-.9-.373h-.984Z" fill="#6b2dd4"/>
    </g>
  </g>
</svg>
