<svg xmlns="http://www.w3.org/2000/svg" xmlns:xlink="http://www.w3.org/1999/xlink" width="39.978" height="41.471" viewBox="0 0 39.978 41.471">
  <defs>
    <clipPath id="clip-path">
      <rect id="Rectangle_74" data-name="Rectangle 74" width="39.978" height="41.471" transform="translate(0 0)" fill="none"/>
    </clipPath>
  </defs>
  <g id="cashPull" transform="translate(0 0)">
    <g id="Group_35" data-name="Group 35" clip-path="url(#clip-path)">
      <path id="Path_547" data-name="Path 547" d="M32.614,27.47a2,2,0,1,0,2.1,2,2.061,2.061,0,0,0-2.1-2m-25.25,0a2,2,0,1,0,2.1,2,2.061,2.061,0,0,0-2.1-2m17.454-2.66a6.142,6.142,0,0,0-9.647,0,8.03,8.03,0,0,0,0,9.33A6.173,6.173,0,0,0,23.5,35.39a5.867,5.867,0,0,0,1.315-1.25,8.077,8.077,0,0,0,0-9.33m-2.546,7.56a2.908,2.908,0,0,1-4.555,0,5.2,5.2,0,0,1,0-5.8,2.908,2.908,0,0,1,4.555,0,5.363,5.363,0,0,1,0,5.8m10.342-4.9a2,2,0,1,0,2.1,2,2.061,2.061,0,0,0-2.1-2m-12.625-5a6.05,6.05,0,0,0-4.818,2.34,8.03,8.03,0,0,0,0,9.33A6.173,6.173,0,0,0,23.5,35.39a5.867,5.867,0,0,0,1.315-1.25,8.077,8.077,0,0,0,0-9.33,6.053,6.053,0,0,0-4.829-2.34m2.283,9.9a2.908,2.908,0,0,1-4.555,0,5.2,5.2,0,0,1,0-5.8,2.908,2.908,0,0,1,4.555,0,5.363,5.363,0,0,1,0,5.8M7.364,27.47a2,2,0,1,0,2.1,2,2.061,2.061,0,0,0-2.1-2m28.932-10H3.682A3.626,3.626,0,0,0,0,20.97v17a3.626,3.626,0,0,0,3.682,3.5H36.3a3.613,3.613,0,0,0,3.682-3.5v-17a3.613,3.613,0,0,0-3.682-3.5m.526,18a3.084,3.084,0,0,0-3.156,3H6.312a3.077,3.077,0,0,0-3.152-3h0v-12a3.077,3.077,0,0,0,3.156-3v0H33.666a3.084,3.084,0,0,0,3.156,3Zm-4.208-8a2,2,0,1,0,2.1,2,2.061,2.061,0,0,0-2.1-2m-12.625-5a6.05,6.05,0,0,0-4.818,2.34,8.03,8.03,0,0,0,0,9.33A6.173,6.173,0,0,0,23.5,35.39a5.867,5.867,0,0,0,1.315-1.25,8.077,8.077,0,0,0,0-9.33,6.053,6.053,0,0,0-4.829-2.34m2.283,9.9a2.908,2.908,0,0,1-4.555,0,5.2,5.2,0,0,1,0-5.8,2.908,2.908,0,0,1,4.555,0,5.363,5.363,0,0,1,0,5.8M7.364,27.47a2,2,0,1,0,2.1,2,2.061,2.061,0,0,0-2.1-2" fill="#370053"/>
      <path id="Path_548" data-name="Path 548" d="M14.974,14.97v-7a1.5,1.5,0,0,1,3,0v7a1.5,1.5,0,0,1-3,0" fill="#6b2dd4"/>
      <path id="Path_549" data-name="Path 549" d="M22.974,14.97v-7a1.5,1.5,0,0,1,3,0v7a1.5,1.5,0,0,1-3,0" fill="#6b2dd4"/>
      <path id="Path_550" data-name="Path 550" d="M18.974,14.97v-10a1.5,1.5,0,0,1,3,0v10a1.5,1.5,0,0,1-3,0" fill="#6b2dd4"/>
      <path id="Path_551" data-name="Path 551" d="M21.377.373a1.269,1.269,0,0,0-1.8,0l-8.9,8.92h.983a1.271,1.271,0,0,0,.9-.373L19.58,1.883a1.269,1.269,0,0,1,1.8,0L28.4,8.92a1.267,1.267,0,0,0,.9.373h.984Z" fill="#6b2dd4"/>
    </g>
  </g>
</svg>
