<?xml version="1.0" encoding="utf-8"?>
<svg xmlns="http://www.w3.org/2000/svg" viewBox="0 0 24 24" width="96" height="96">
  <path d="M12 3.985A3.03 3.03 0 1 0 12 10.045 3.03 3.03 0 1 0 12 3.985zM20.099 19.711H3.901v-.737c0-1.281 4.29-3.684 8.099-3.684s8.099 2.403 8.099 3.684V19.711z" opacity=".3" fill="#FFFFFF" />
  <path d="M13 3.502L12 2c0 0-4 1-4 5 0 2.209 1.791 4 4 4s4-1.791 4-4C16 4.357 13.817 3.502 13 3.502zM12 9c-1.103 0-2-.897-2-2 0-1.24.644-2.01 1.282-2.469l.053.08.594.892h1.028C13.088 5.527 14 5.747 14 7 14 8.103 13.103 9 12 9zM12 14c-3.141 0-9 1.546-9 4.5V21h18v-2.5C21 15.546 15.141 14 12 14zM19 19H5v-.5c0-.869 3.708-2.5 7-2.5s7 1.631 7 2.5V19z" fill="#FFFFFF" />
</svg>