<svg xmlns="http://www.w3.org/2000/svg" width="40" height="39.995" viewBox="0 0 40 39.995">
  <g id="electricity" transform="translate(-391 -286.01)">
    <path id="icons8_conflict_1" data-name="icons8 conflict 1" d="M363.482,26.565a1.491,1.491,0,0,0-.949-.34h-9.488V12.739a1.5,1.5,0,0,0-1.5-1.5h-.05a1.462,1.462,0,0,0-1.109.549L332.41,33.768a1.5,1.5,0,0,0,1.159,2.448h9.488V49.7a1.482,1.482,0,0,0,1.5,1.489,1.505,1.505,0,0,0,1.159-.539l17.978-21.979A1.5,1.5,0,0,0,363.482,26.565ZM346.053,45.507V34.717a1.5,1.5,0,0,0-1.5-1.5h-7.83l13.324-16.284V27.724a1.5,1.5,0,0,0,1.5,1.5h7.83Z" transform="translate(62.95 274.79)" fill="#370053"/>
    <path id="Path_460" data-name="Path 460" d="M367.63,50.83a1.5,1.5,0,0,1-2.12-.03l-5-5a1.522,1.522,0,0,1-.46-1.08,1.5,1.5,0,0,1,1.5-1.5,1.466,1.466,0,0,1,1.08.46l5,5a.138.138,0,0,0,.04.03A1.5,1.5,0,0,1,367.63,50.83Z" transform="translate(62.911 274.751)" fill="#6b2dd4"/>
    <path id="Path_461" data-name="Path 461" d="M335.63,45.79l-5,5a.078.078,0,0,1-.04.04,1.5,1.5,0,1,1-2.08-2.16l5-5a1.481,1.481,0,0,1,1.03-.45,1.5,1.5,0,0,1,1.09,2.57Z" transform="translate(62.95 274.751)" fill="#6b2dd4"/>
    <path id="Path_462" data-name="Path 462" d="M335.63,18.83a1.5,1.5,0,0,1-2.12-.03l-5-5a1.5,1.5,0,1,1,2.12-2.12l5,5a.138.138,0,0,0,.04.03A1.5,1.5,0,0,1,335.63,18.83Z" transform="translate(62.95 274.79)" fill="#6b2dd4"/>
    <path id="Path_463" data-name="Path 463" d="M367.63,13.79l-5,5a.078.078,0,0,1-.04.04,1.5,1.5,0,1,1-2.08-2.16l5-5a1.481,1.481,0,0,1,1.03-.45,1.5,1.5,0,0,1,1.09,2.57Z" transform="translate(62.911 274.79)" fill="#6b2dd4"/>
  </g>
</svg>
