<svg xmlns="http://www.w3.org/2000/svg" width="79.715" height="88.106" viewBox="0 0 79.715 88.106">
  <g id="heroAccountingSystemLogo" transform="translate(-5 -3)">
    <path id="Path_561" data-name="Path 561" d="M5.644,12.161A6.265,6.265,0,0,0,5,14.911V57.364a6.293,6.293,0,0,0,3.363,5.57L40.949,80.085a8.383,8.383,0,0,0,3.908.965V32.8Z" transform="translate(0 10.056)" fill="#5c1ab9"/>
    <path id="Path_562" data-name="Path 562" d="M24,32.8V81.05a8.383,8.383,0,0,0,3.908-.965L60.495,62.933a6.293,6.293,0,0,0,3.363-5.57V14.911a6.265,6.265,0,0,0-.644-2.75Z" transform="translate(20.858 10.056)" fill="#46118b"/>
    <path id="Path_563" data-name="Path 563" d="M44.521,42.857l39.214-20.64a6.275,6.275,0,0,0-2.956-2.937L48.112,3.807a8.4,8.4,0,0,0-7.185,0L8.263,19.281a6.293,6.293,0,0,0-2.956,2.937Z" transform="translate(0.337)" fill="#6b2dd4"/>
    <path id="Path_564" data-name="Path 564" d="M13.373,16.306A3.6,3.6,0,0,0,13,17.9V42.476A3.641,3.641,0,0,0,14.947,45.7l18.867,9.929a4.852,4.852,0,0,0,2.263.56V28.255Z" transform="translate(8.782 14.607)" fill="#8a75e5"/>
    <path id="Path_565" data-name="Path 565" d="M24,28.255V56.189a4.858,4.858,0,0,0,2.263-.56L45.131,45.7a3.641,3.641,0,0,0,1.947-3.224V17.9a3.612,3.612,0,0,0-.373-1.592Z" transform="translate(20.858 14.607)" fill="#6e4cd4"/>
    <path id="Path_566" data-name="Path 566" d="M35.881,34.077l22.7-11.949a3.65,3.65,0,0,0-1.712-1.7L37.96,11.47a4.863,4.863,0,0,0-4.16,0L14.889,20.427a3.631,3.631,0,0,0-1.712,1.7Z" transform="translate(8.976 8.784)" fill="#b0adff"/>
  </g>
</svg>
