<svg xmlns="http://www.w3.org/2000/svg" width="40" height="40" viewBox="0 0 40 40">
  <g id="image" transform="translate(-6 -6)">
    <path id="Path_518" data-name="Path 518" d="M42,28V38a4.025,4.025,0,0,1-4,4H27.94A2,2,0,1,1,28,38H38V28a2.006,2.006,0,0,1,1.97-2.03h.06A2.006,2.006,0,0,1,42,28Z" transform="translate(3.999 3.999)" fill="#370053"/>
    <path id="Path_519" data-name="Path 519" d="M22.03,8.03A2.006,2.006,0,0,1,20,10H10V20.06A2,2,0,1,1,6,20V10a4.025,4.025,0,0,1,4-4H20.06A2.006,2.006,0,0,1,22.03,8.03Z" fill="#370053"/>
    <path id="Path_520" data-name="Path 520" d="M42,10V20.06A2,2,0,1,1,38,20V10H27.94A2,2,0,1,1,28,6H38A4.025,4.025,0,0,1,42,10Z" transform="translate(3.999)" fill="#370053"/>
    <path id="Path_521" data-name="Path 521" d="M22.03,40.03A2.006,2.006,0,0,1,20,42H10a4.025,4.025,0,0,1-4-4V28a2.006,2.006,0,0,1,1.97-2.03h.06A2.006,2.006,0,0,1,10,28V38H20.06A2.006,2.006,0,0,1,22.03,40.03Z" transform="translate(0 3.999)" fill="#370053"/>
    <path id="Path_522" data-name="Path 522" d="M32.8,32.4A1,1,0,0,1,32,34H16a1,1,0,0,1-.8-1.6l5-6.67a1,1,0,0,1,1.6,0L26,31.34l2.2-2.94a.993.993,0,0,1,1.6,0Z" transform="translate(2 2.829)" fill="#6b2dd4"/>
    <circle id="Ellipse_68" data-name="Ellipse 68" cx="3" cy="3" r="3" transform="translate(30.933 15.067)" fill="#6b2dd4"/>
  </g>
</svg>
