<?xml version="1.0" encoding="utf-8"?>
<svg xmlns="http://www.w3.org/2000/svg" viewBox="0 0 24 24" width="96" height="96">
  <path d="M8 13c0-.553-.448-1-1-1s-1 .447-1 1c0 .553.448 1 1 1S8 13.553 8 13zM20.5 7A1.5 1.5 0 1 0 20.5 10 1.5 1.5 0 1 0 20.5 7zM20.5 16A1.5 1.5 0 1 0 20.5 19 1.5 1.5 0 1 0 20.5 16zM3.5 7A1.5 1.5 0 1 0 3.5 10 1.5 1.5 0 1 0 3.5 7zM3.5 16A1.5 1.5 0 1 0 3.5 19 1.5 1.5 0 1 0 3.5 16zM11.927 5l5.958-1.551c.253.372.659.611 1.108.65L19.228 5h2.067l-.847-3.252c-.139-.534-.685-.855-1.22-.716L3.99 5H11.927z" fill="#FFFFFF" />
  <path d="M19.5,13L15,15c0,0,0,2,0,3c0,3.915,3.22,5.743,4.5,6c1.28-0.257,4.5-2.085,4.5-6c0-1,0-3,0-3L19.5,13L19.5,13z" fill="#FFFFFF" />
  <g>
    <path d="M13,18v-1H4V9h16v2.033l0.312,0.139L22,11.922V8c0-0.552-0.448-1-1-1H3C2.448,7,2,7.448,2,8v10c0,0.552,0.448,1,1,1h10.059 C13.022,18.678,13,18.346,13,18z" fill="#FFFFFF" />
    <path d="M12,10c-1.657,0-3,1.343-3,3c0,1.657,1.343,3,3,3c0.353,0,0.686-0.072,1-0.184V15v-1.3l1.188-0.528l0.794-0.353 C14.886,11.249,13.595,10,12,10z" fill="#FFFFFF" />
  </g>
  <path d="M19.5 10.812L21 11.478 21 8 3 8 3 18 13 18 13 13.7z" opacity=".3" fill="#FFFFFF" />
</svg>