<svg xmlns="http://www.w3.org/2000/svg" xmlns:xlink="http://www.w3.org/1999/xlink" width="36" height="36" viewBox="0 0 36 36">
  <defs>
    <linearGradient id="linear-gradient" x1="0.339" y1="1" x2="0.651" y2="0.032" gradientUnits="objectBoundingBox">
      <stop offset="0" stop-color="#307dd6"/>
      <stop offset="1" stop-color="#29a4d2"/>
    </linearGradient>
  </defs>
  <g id="new" transform="translate(-288.5 -378.5)">
    <path id="Path_116" data-name="Path 116" d="M322.5,378.5h-32a2.006,2.006,0,0,0-2,2v32a2.006,2.006,0,0,0,2,2h32a2.006,2.006,0,0,0,2-2v-32A2.006,2.006,0,0,0,322.5,378.5Zm-5,19a1,1,0,0,1-1,1h-8v8a1,1,0,0,1-1,1h-2a1,1,0,0,1-1-1v-8h-8a1,1,0,0,1-1-1v-2a1,1,0,0,1,1-1h8v-8a1,1,0,0,1,1-1h2a1,1,0,0,1,1,1v8h8a1,1,0,0,1,1,1Z" fill="url(#linear-gradient)"/>
    <path id="Path_117" data-name="Path 117" d="M316.5,393.5h-7v-7a2.006,2.006,0,0,0-2-2h-2a2.006,2.006,0,0,0-2,2v7h-7a2.006,2.006,0,0,0-2,2v2a2.006,2.006,0,0,0,2,2h7v7a2.006,2.006,0,0,0,2,2h2a2.006,2.006,0,0,0,2-2v-7h7a2.006,2.006,0,0,0,2-2v-2A2.006,2.006,0,0,0,316.5,393.5Zm1,4a1,1,0,0,1-1,1h-8v8a1,1,0,0,1-1,1h-2a1,1,0,0,1-1-1v-8h-8a1,1,0,0,1-1-1v-2a1,1,0,0,1,1-1h8v-8a1,1,0,0,1,1-1h2a1,1,0,0,1,1,1v8h8a1,1,0,0,1,1,1Z" fill="#030504" opacity="0.05" style="isolation: isolate"/>
    <path id="Path_118" data-name="Path 118" d="M316.5,394H309v-7.5a1.5,1.5,0,0,0-1.5-1.5h-2a1.5,1.5,0,0,0-1.5,1.5V394h-7.5a1.5,1.5,0,0,0-1.5,1.5v2a1.5,1.5,0,0,0,1.5,1.5H304v7.5a1.5,1.5,0,0,0,1.5,1.5h2a1.5,1.5,0,0,0,1.5-1.5V399h7.5a1.5,1.5,0,0,0,1.5-1.5v-2A1.5,1.5,0,0,0,316.5,394Zm1,3.5a1,1,0,0,1-1,1h-8v8a1,1,0,0,1-1,1h-2a1,1,0,0,1-1-1v-8h-8a1,1,0,0,1-1-1v-2a1,1,0,0,1,1-1h8v-8a1,1,0,0,1,1-1h2a1,1,0,0,1,1,1v8h8a1,1,0,0,1,1,1Z" fill="#030504" opacity="0.07" style="isolation: isolate"/>
  </g>
</svg>
