<svg xmlns="http://www.w3.org/2000/svg" width="36.9" height="40" viewBox="0 0 36.9 40">
  <g id="notification" transform="translate(0 0)">
    <path id="Path_510" data-name="Path 510" d="M36.57,28.724a.042.042,0,0,1-.012-.024l-2.721-5.466V15.38A15.406,15.406,0,0,0,17.711.018,15.647,15.647,0,0,0,3.063,15.774v7.46L.342,28.7a.042.042,0,0,1-.012.024,3.637,3.637,0,0,0,3.25,5.121H33.32A3.637,3.637,0,0,0,36.57,28.724Zm-3.25,2.044H3.58a.475.475,0,0,1-.468-.727L5.98,24.28a1.522,1.522,0,0,0,.16-.689V15.774A12.569,12.569,0,0,1,17.847,3.083,12.294,12.294,0,0,1,30.76,15.38v8.211a1.522,1.522,0,0,0,.16.689l2.868,5.761A.478.478,0,0,1,33.32,30.768Z" fill="#370053"/>
    <path id="Path_511" data-name="Path 511" d="M24.6,33.845a6.155,6.155,0,0,1-12.31,0h3.078a3.077,3.077,0,1,0,6.154,0Z" fill="#6b2dd4"/>
  </g>
</svg>
