<svg xmlns="http://www.w3.org/2000/svg" xmlns:xlink="http://www.w3.org/1999/xlink" width="43" height="39" viewBox="0 0 43 39">
  <defs>
    <linearGradient id="linear-gradient" x1="0.945" y1="1" x2="0" gradientUnits="objectBoundingBox">
      <stop offset="0" stop-color="#f94c30"/>
      <stop offset="1" stop-color="#db1616"/>
    </linearGradient>
    <radialGradient id="radial-gradient" cx="0.685" cy="0.879" r="0.846" gradientTransform="translate(0.105) scale(0.789 1)" gradientUnits="objectBoundingBox">
      <stop offset="0"/>
      <stop offset="1" stop-opacity="0"/>
    </radialGradient>
    <linearGradient id="linear-gradient-2" x1="0.157" y1="-28.066" x2="0.853" y2="-28.762" gradientUnits="objectBoundingBox">
      <stop offset="0" stop-color="#fede00"/>
      <stop offset="1" stop-color="#ffd000"/>
    </linearGradient>
  </defs>
  <g id="simpleReceipt" transform="translate(-5 -9)">
    <path id="paper" d="M43,11a2,2,0,0,0-2-2H7a2,2,0,0,0-2,2V37a2,2,0,0,0,2,2H41a2,2,0,0,0,2-2Z" fill="url(#linear-gradient)"/>
    <path id="Path_71" data-name="Path 71" d="M37.5,17h-27a.5.5,0,0,1-.5-.5v-2a.5.5,0,0,1,.5-.5h27a.5.5,0,0,1,.5.5v2A.5.5,0,0,1,37.5,17Z" fill="rgba(0,0,0,0.43)"/>
    <path id="Path_72" data-name="Path 72" d="M37.5,22h-2a.5.5,0,0,1-.5-.5v-1a.5.5,0,0,1,.5-.5h2a.5.5,0,0,1,.5.5v1A.5.5,0,0,1,37.5,22Z" fill="rgba(0,0,0,0.43)"/>
    <path id="Path_73" data-name="Path 73" d="M30.5,22h-20a.5.5,0,0,1-.5-.5v-1a.5.5,0,0,1,.5-.5h20a.5.5,0,0,1,.5.5v1A.5.5,0,0,1,30.5,22Z" fill="rgba(0,0,0,0.43)"/>
    <path id="Path_74" data-name="Path 74" d="M37.5,26h-2a.5.5,0,0,1-.5-.5v-1a.5.5,0,0,1,.5-.5h2a.5.5,0,0,1,.5.5v1A.5.5,0,0,1,37.5,26Z" fill="rgba(0,0,0,0.43)"/>
    <path id="Path_75" data-name="Path 75" d="M28.5,26h-18a.5.5,0,0,1-.5-.5v-1a.5.5,0,0,1,.5-.5h18a.5.5,0,0,1,.5.5v1A.5.5,0,0,1,28.5,26Z" fill="rgba(0,0,0,0.43)"/>
    <path id="Path_76" data-name="Path 76" d="M37.5,30h-2a.5.5,0,0,1-.5-.5v-1a.5.5,0,0,1,.5-.5h2a.5.5,0,0,1,.5.5v1A.5.5,0,0,1,37.5,30Z" fill="rgba(0,0,0,0.43)"/>
    <path id="Path_77" data-name="Path 77" d="M30.5,30h-20a.5.5,0,0,1-.5-.5v-1a.5.5,0,0,1,.5-.5h20a.5.5,0,0,1,.5.5v1A.5.5,0,0,1,30.5,30Z" fill="rgba(0,0,0,0.43)"/>
    <path id="Path_78" data-name="Path 78" d="M37,24A12.91,12.91,0,0,0,24.17,39H41a2,2,0,0,0,2-2V25.479A12.9,12.9,0,0,0,37,24Z" fill="url(#radial-gradient)"/>
    <circle id="Ellipse_5" data-name="Ellipse 5" cx="11" cy="11" r="11" transform="translate(26 26)" fill="url(#linear-gradient-2)"/>
    <circle id="Ellipse_6" data-name="Ellipse 6" cx="8.8" cy="8.8" r="8.8" transform="translate(28.2 28.2)" fill="#f5be00"/>
    <path id="Path_79" data-name="Path 79" d="M34.544,41.054v-1.64a3.575,3.575,0,0,0,1.9.547,1.783,1.783,0,0,0,1.187-.361,1.218,1.218,0,0,0,.428-.981q0-1.294-1.828-1.294a11.428,11.428,0,0,0-1.439.109V32.57h4.822v1.567H36.433V35.88q.383-.036.723-.036a2.972,2.972,0,0,1,2.1.7,2.462,2.462,0,0,1,.759,1.9,2.8,2.8,0,0,1-.9,2.152,3.475,3.475,0,0,1-2.454.835A5.249,5.249,0,0,1,34.544,41.054Z" fill="#fee119"/>
  </g>
</svg>
