<svg xmlns="http://www.w3.org/2000/svg" xmlns:xlink="http://www.w3.org/1999/xlink" width="50.152" height="35" viewBox="0 0 50.152 35">
  <defs>
    <linearGradient id="linear-gradient" x1="0.5" y1="-0.002" x2="0.5" y2="1.055" gradientUnits="objectBoundingBox">
      <stop offset="0" stop-color="#f94c30"/>
      <stop offset="1" stop-color="#db1616"/>
    </linearGradient>
    <linearGradient id="linear-gradient-2" x1="2.667" y1="0.006" x2="2.667" y2="0.996" xlink:href="#linear-gradient"/>
    <linearGradient id="linear-gradient-3" x1="0.5" y1="0.006" x2="0.5" y2="0.996" xlink:href="#linear-gradient"/>
  </defs>
  <g id="outputStorage" transform="translate(-389.386 -401.891)">
    <path id="Path_21" data-name="Path 21" d="M14.829,22.424H10.6V1.319A1.323,1.323,0,0,0,9.276,0H6.626A1.323,1.323,0,0,0,5.3,1.319V22.424H1.073a1.065,1.065,0,0,0-.757,1.819l6.23,6.2a1.994,1.994,0,0,0,2.811,0l6.23-6.2A1.065,1.065,0,0,0,14.829,22.424Z" transform="translate(422.413 432.915) rotate(180)" fill="url(#linear-gradient)"/>
    <path id="Path_22" data-name="Path 22" d="M1.074,18.555H5.3V9.05L.389,4.137a1.324,1.324,0,0,1,0-1.874L2.263.389a1.324,1.324,0,0,1,1.874,0l5.3,5.3A3.976,3.976,0,0,1,10.6,8.5V18.555h4.228a1.07,1.07,0,0,1,.757,1.828l-6.23,6.23a1.987,1.987,0,0,1-2.811,0l-6.23-6.23A1.071,1.071,0,0,1,1.074,18.555Z" transform="translate(439.538 436.891) rotate(180)" fill="url(#linear-gradient-2)"/>
    <path id="Path_23" data-name="Path 23" d="M14.829,18.555H10.6V9.05l4.913-4.913a1.324,1.324,0,0,0,0-1.874L13.641.389a1.324,1.324,0,0,0-1.874,0l-5.3,5.3A3.976,3.976,0,0,0,5.3,8.5V18.555H1.073a1.07,1.07,0,0,0-.757,1.828l6.23,6.23a1.987,1.987,0,0,0,2.811,0l6.23-6.23A1.071,1.071,0,0,0,14.829,18.555Z" transform="translate(405.289 436.891) rotate(180)" fill="url(#linear-gradient-3)"/>
  </g>
</svg>
