<?xml version="1.0" encoding="utf-8"?>
<svg xmlns="http://www.w3.org/2000/svg" viewBox="0 0 24 24" width="96" height="96">
  <path d="M12,15c-0.3,0-0.6-0.1-0.9-0.2l-7.5-3.3l0.8-1.8l7.5,3.3l0,0H12l7.5-3.3l0.8,1.8l-7.5,3.3C12.6,14.9,12.3,15,12,15z" fill="#FFFFFF" />
  <path d="M11 13.9H13V21H11zM11 2H13V8H11z" fill="#FFFFFF" />
  <path d="M8 6L12 10 16 6z" fill="#FFFFFF" />
  <path d="M22.4,7.4L19,5.8l-1.6,1.6l-2.1,2.1l3.8,1.7L12,14.3l-7.4-2.9l4.1-1.9l0,0 l0,0L6.6,7.4L5,5.8L1.6,7.4l2.8,3L4,10.6v6.7l7.5,3.6c0.3,0.2,0.6,0.2,0.9,0l7.5-3.6v-6.7l-0.4-0.2L22.4,7.4z" opacity=".3" fill="#FFFFFF" />
  <path d="M18.2,6.6l2.5,1.1l-1.4,1.4L16.9,8l-1.5,1.5l3.6,1.7v5.5L12,20l-7-3.3v-5.5l3.7-1.7L7.1,8L4.6,9.2L3.3,7.7l2.5-1.1L4.3,5.1 l-4.4,2L3,10.3v7.6l8.1,3.8c0.3,0.2,0.6,0.2,0.9,0.2c0.3,0,0.6-0.1,0.9-0.2l8.1-3.8v-7.6l3.1-3.3l-4.4-2L18.2,6.6z" fill="#FFFFFF" />
</svg>