<?xml version="1.0" encoding="utf-8"?>
<svg xmlns="http://www.w3.org/2000/svg" baseProfile="basic" viewBox="0 0 24 24" width="96" height="96">
  <path d="M21.97,11.552v0.01c0.255,5.495-4.015,10.176-9.51,10.431c-0.196,0.01-0.333,0.01-0.47,0.01 c-5.338,0-9.716-4.182-9.96-9.519C1.775,6.988,6.045,2.307,11.53,2.052c0.157-0.01,0.313-0.01,0.48-0.01 C17.348,2.043,21.725,6.225,21.97,11.552z" opacity=".3" fill="#FFFFFF" />
  <path d="M12,18c-3.309,0-6-2.691-6-6c0-2.021,1.009-3.895,2.699-5.011c0.462-0.302,1.082-0.176,1.385,0.284 c0.304,0.461,0.177,1.081-0.284,1.386C8.673,9.403,8,10.652,8,12c0,2.206,1.794,4,4,4s4-1.794,4-4 c0-1.348-0.673-2.597-1.801-3.341c-0.461-0.305-0.588-0.925-0.284-1.386c0.304-0.46,0.925-0.586,1.385-0.284 C16.991,8.105,18,9.978,18,12C18,15.308,15.309,18,12,18z" fill="#FFFFFF" />
  <path d="M12,12.043c-0.552,0-1-0.447-1-1v-5c0-0.553,0.448-1,1-1s1,0.447,1,1v5C13,11.595,12.552,12.043,12,12.043z" fill="#FFFFFF" />
  <path d="M12,22.043c-5.514,0-10-4.486-10-10s4.486-10,10-10s10,4.486,10,10S17.514,22.043,12,22.043z M12,4.043 c-4.411,0-8,3.589-8,8s3.589,8,8,8s8-3.589,8-8S16.411,4.043,12,4.043z" fill="#FFFFFF" />
</svg>