<svg xmlns="http://www.w3.org/2000/svg" xmlns:xlink="http://www.w3.org/1999/xlink" width="37.98" height="37.98" viewBox="0 0 37.98 37.98">
  <defs>
    <linearGradient id="linear-gradient" x1="0.117" y1="0.002" x2="0.937" y2="0.822" gradientUnits="objectBoundingBox">
      <stop offset="0" stop-color="#fee100"/>
      <stop offset="1" stop-color="#f39f16"/>
    </linearGradient>
  </defs>
  <g id="pricing" transform="translate(-5.01 -5.01)">
    <path id="Path_92" data-name="Path 92" d="M23.818,6.182,6.19,23.81a4.031,4.031,0,0,0,0,5.7l12.3,12.3a4.031,4.031,0,0,0,5.7,0L41.818,24.182a4,4,0,0,0,1.172-2.828V9.01a4.012,4.012,0,0,0-4-4H26.647A4,4,0,0,0,23.818,6.182ZM36.99,13.01a2,2,0,1,1,2-2,2.006,2.006,0,0,1-2,2" fill="url(#linear-gradient)"/>
    <path id="Path_93" data-name="Path 93" d="M16.163,31.363a1.326,1.326,0,0,1,0-1.874l.544-.544a12.728,12.728,0,0,1-1.449-2.565,1.736,1.736,0,0,1,.379-1.88l1.1-1.1a1.417,1.417,0,0,1,2.353.562,8.164,8.164,0,0,0,1.844,3.09c.8.8,1.044.553,1.148.448.267-.267-.243-1.379-.616-2.19-.873-1.9-2.191-4.769.288-7.247a4.8,4.8,0,0,1,6.348-.513l.474-.474a1.326,1.326,0,0,1,1.874,0l.46.46a1.326,1.326,0,0,1,0,1.874l-.4.4a8.09,8.09,0,0,1,1.2,1.861,1.786,1.786,0,0,1-.483,2.014l-.962.962a1.422,1.422,0,0,1-2.342-.531,6.941,6.941,0,0,0-1.566-2.489c-.8-.8-1.065-.532-1.165-.431-.34.34,0,1.2.561,2.468.869,1.974,2.061,4.677-.294,7.031a4.934,4.934,0,0,1-6.409.574l-.557.557a1.326,1.326,0,0,1-1.874,0Z" opacity="0.05"/>
    <path id="Path_94" data-name="Path 94" d="M16.517,31.009a.827.827,0,0,1,0-1.167l.851-.851a12.318,12.318,0,0,1-1.646-2.8,1.237,1.237,0,0,1,.269-1.34l1.1-1.1a.921.921,0,0,1,1.3,0,.908.908,0,0,1,.222.365,8.691,8.691,0,0,0,1.966,3.289c1.152,1.152,1.681.622,1.855.448.479-.479.125-1.359-.515-2.752-.863-1.879-2.046-4.453.187-6.685,1.969-1.969,4.351-1.446,6.057-.222l.766-.766a.826.826,0,0,1,1.167,0l.46.46a.827.827,0,0,1,0,1.167l-.722.722a8.325,8.325,0,0,1,1.426,2.089,1.29,1.29,0,0,1-.378,1.46l-.962.962a.92.92,0,0,1-1.3,0,.937.937,0,0,1-.219-.345,7.459,7.459,0,0,0-1.683-2.674c-.764-.764-1.394-.909-1.872-.431-.578.578-.2,1.525.457,3.023.857,1.944,1.922,4.364-.19,6.476A4.476,4.476,0,0,1,19,30.617l-.853.853a.826.826,0,0,1-1.167,0Z" opacity="0.07"/>
    <path id="Path_95" data-name="Path 95" d="M24.756,29.985c3.308-3.308-2.222-7.545-.267-9.5,1.02-1.02,2.221.073,2.58.431a7.979,7.979,0,0,1,1.8,2.857.421.421,0,0,0,.695.163l.962-.962a.8.8,0,0,0,.274-.905,8.641,8.641,0,0,0-1.66-2.306L30.2,18.7a.325.325,0,0,0,0-.46l-.46-.46a.325.325,0,0,0-.46,0L28.2,18.861c-1.573-1.293-3.866-1.969-5.747-.088-3.429,3.429,2.135,7.632.329,9.438-.568.568-1.42.694-2.563-.448a9.094,9.094,0,0,1-2.089-3.489.418.418,0,0,0-.694-.163l-1.095,1.095a.738.738,0,0,0-.159.8,11.827,11.827,0,0,0,1.855,3.019L16.87,30.2a.325.325,0,0,0,0,.46l.46.46a.325.325,0,0,0,.46,0l1.168-1.168C21.28,31.912,23.489,31.251,24.756,29.985Z" fill="#2679c4"/>
  </g>
</svg>
