<?xml version="1.0" encoding="utf-8"?>
<svg xmlns="http://www.w3.org/2000/svg" viewBox="0 0 24 24" width="96" height="96">
  <path d="M3 11H21V21H3z" opacity=".3" fill="#FFFFFF" />
  <path d="M8 16c0-.6-.4-1-1-1s-1 .4-1 1c0 .6.4 1 1 1S8 16.6 8 16zM18 16c0-.6-.4-1-1-1s-1 .4-1 1c0 .6.4 1 1 1S18 16.6 18 16z" fill="#FFFFFF" />
  <path d="M21,22H3c-0.6,0-1-0.4-1-1V11c0-0.6,0.4-1,1-1h18c0.6,0,1,0.4,1,1v10C22,21.6,21.6,22,21,22z M4,20h16v-8H4V20z" fill="#FFFFFF" />
  <path d="M20.5 10A1.5 1.5 0 1 0 20.5 13 1.5 1.5 0 1 0 20.5 10zM20.5 19A1.5 1.5 0 1 0 20.5 22 1.5 1.5 0 1 0 20.5 19zM3.5 10A1.5 1.5 0 1 0 3.5 13 1.5 1.5 0 1 0 3.5 10zM3.5 19A1.5 1.5 0 1 0 3.5 22 1.5 1.5 0 1 0 3.5 19zM12 13A3 3 0 1 0 12 19 3 3 0 1 0 12 13zM13 8.4L10 5.4 7.5 8 6 6.5 10 2.6 13 5.6 15.3 3.3 16.7 4.7z" fill="#FFFFFF" />
  <path d="M18 7L18 2 13 2z" fill="#FFFFFF" />
</svg>