<?xml version="1.0" encoding="utf-8"?>
<svg xmlns="http://www.w3.org/2000/svg" viewBox="0 0 24 24" width="96" height="96">
  <path d="M4 4H20V21H4z" opacity=".3" fill="#FFFFFF" />
  <path d="M19,2c0,0.552-0.448,1-1,1s-1-0.448-1-1h-2c0,0.552-0.448,1-1,1s-1-0.448-1-1h-2c0,0.552-0.448,1-1,1S9,2.552,9,2H7c0,0.552-0.448,1-1,1S5,2.552,5,2H3v18c0,1.105,0.895,2,2,2h14c1.105,0,2-0.895,2-2V2H19z M13,18H7v-2h6V18z M13,14H7v-2h6V14z M17,18h-2v-2h2V18z M17,14h-2v-2h2V14z M17,9H7V7h10V9z M19,20H5V5h14V20z" fill="#FFFFFF" />
</svg>