<?xml version="1.0" encoding="utf-8"?>
<svg xmlns="http://www.w3.org/2000/svg" viewBox="0 0 24 24" width="96" height="96">
  <path d="M19,14c-2.75,0-5,2.25-5,5s2.25,5,5,5s5-2.25,5-5S21.75,14,19,14z M20.878,20.773c-0.081,0.238-0.204,0.448-0.37,0.629 c-0.165,0.182-0.373,0.327-0.622,0.435c-0.251,0.108-0.546,0.162-0.885,0.162c-0.254,0-0.501-0.039-0.739-0.116 c-0.238-0.077-0.45-0.189-0.633-0.337c-0.183-0.147-0.333-0.328-0.447-0.542c-0.113-0.213-0.173-0.457-0.182-0.731h1.161 c0.025,0.247,0.111,0.438,0.259,0.575c0.146,0.137,0.34,0.205,0.578,0.205c0.149,0,0.275-0.028,0.381-0.085 c0.103-0.057,0.189-0.134,0.256-0.232c0.065-0.097,0.114-0.213,0.145-0.347c0.03-0.134,0.046-0.279,0.046-0.433 c0-0.154-0.019-0.295-0.057-0.424c-0.038-0.128-0.096-0.238-0.174-0.329c-0.078-0.091-0.178-0.161-0.297-0.211 c-0.119-0.05-0.26-0.075-0.422-0.075c-0.109,0-0.203,0.009-0.283,0.028c-0.08,0.019-0.15,0.043-0.213,0.073 c-0.062,0.03-0.117,0.064-0.164,0.103c-0.049,0.039-0.092,0.079-0.133,0.12l-0.933-0.23l0.341-3.005h3.314v0.979h-2.352l-0.145,1.27 c0.04-0.021,0.091-0.045,0.15-0.071c0.06-0.025,0.128-0.05,0.205-0.073c0.077-0.023,0.161-0.042,0.252-0.057 c0.09-0.014,0.184-0.022,0.282-0.022c0.285,0,0.539,0.045,0.761,0.136c0.224,0.091,0.413,0.221,0.567,0.392 c0.154,0.17,0.272,0.379,0.353,0.625S21,19.71,21,20.022C21,20.285,20.959,20.535,20.878,20.773z" fill="#FFFFFF" />
  <path d="M12.08,20H5V5h14v7c0.695,0,1.366,0.105,2,0.294V2h-2c0,0.552-0.448,1-1,1s-1-0.448-1-1h-2c0,0.552-0.448,1-1,1 s-1-0.448-1-1h-2c0,0.552-0.448,1-1,1S9,2.552,9,2H7c0,0.552-0.448,1-1,1S5,2.552,5,2H3v18c0,1.105,0.895,2,2,2h7.683 C12.387,21.378,12.181,20.707,12.08,20z" fill="#FFFFFF" />
  <path d="M7 16v2h5.08c.101-.707.307-1.378.603-2H7zM7 12H13V14H7zM7 7H17V9H7z" fill="#FFFFFF" />
  <path d="M12,19c0-3.866,3.134-7,7-7c0.34,0,0.673,0.033,1,0.08V4H4v17h8.294C12.105,20.366,12,19.695,12,19z" opacity=".3" fill="#FFFFFF" />
</svg>