<svg xmlns="http://www.w3.org/2000/svg" width="39.979" height="40" viewBox="0 0 39.979 40">
  <g id="receiveTransfer" transform="translate(-76 -288.05)">
    <path id="icons8_initiate_money_transfer_2-2" data-name="icons8 initiate money transfer 2-2" d="M45.664,37.28a2,2,0,1,0,2.1,2A2.06,2.06,0,0,0,45.664,37.28Zm-25.25,0a2,2,0,1,0,2.1,2A2.06,2.06,0,0,0,20.414,37.28Zm17.454-2.66a6.142,6.142,0,0,0-9.647,0,8.03,8.03,0,0,0,0,9.33,6.173,6.173,0,0,0,8.332,1.25,5.858,5.858,0,0,0,1.315-1.25,8.077,8.077,0,0,0,0-9.33Zm-2.546,7.56a2.908,2.908,0,0,1-4.555,0,5.2,5.2,0,0,1,0-5.8,2.908,2.908,0,0,1,4.555,0A5.2,5.2,0,0,1,35.322,42.18Zm10.342-4.9a2,2,0,1,0,2.1,2A2.06,2.06,0,0,0,45.664,37.28Zm-12.625-5a6.05,6.05,0,0,0-4.818,2.34,8.03,8.03,0,0,0,0,9.33,6.173,6.173,0,0,0,8.332,1.25,5.858,5.858,0,0,0,1.315-1.25,8.077,8.077,0,0,0,0-9.33A6.055,6.055,0,0,0,33.039,32.28Zm2.283,9.9a2.908,2.908,0,0,1-4.555,0,5.2,5.2,0,0,1,0-5.8,2.908,2.908,0,0,1,4.555,0A5.2,5.2,0,0,1,35.322,42.18Zm-14.908-4.9a2,2,0,1,0,2.1,2A2.06,2.06,0,0,0,20.414,37.28Zm28.932-10H16.732a3.625,3.625,0,0,0-3.682,3.5v17a3.625,3.625,0,0,0,3.682,3.5H49.346a3.612,3.612,0,0,0,3.682-3.5v-17A3.612,3.612,0,0,0,49.346,27.28Zm.526,18a3.084,3.084,0,0,0-3.156,3H19.362a3.077,3.077,0,0,0-3.156-3v-12a3.077,3.077,0,0,0,3.156-3H46.716a3.084,3.084,0,0,0,3.156,3Zm-4.208-8a2,2,0,1,0,2.1,2A2.06,2.06,0,0,0,45.664,37.28Zm-12.625-5a6.05,6.05,0,0,0-4.818,2.34,8.03,8.03,0,0,0,0,9.33,6.173,6.173,0,0,0,8.332,1.25,5.858,5.858,0,0,0,1.315-1.25,8.077,8.077,0,0,0,0-9.33A6.055,6.055,0,0,0,33.039,32.28Zm2.283,9.9a2.908,2.908,0,0,1-4.555,0,5.2,5.2,0,0,1,0-5.8,2.908,2.908,0,0,1,4.555,0A5.2,5.2,0,0,1,35.322,42.18Zm-14.908-4.9a2,2,0,1,0,2.1,2A2.06,2.06,0,0,0,20.414,37.28Z" transform="translate(62.95 276.77)" fill="#370053"/>
    <path id="Path_459" data-name="Path 459" d="M37.12,18.66a1.512,1.512,0,0,0-2.13.04l-1.44,1.44V14.76a1.5,1.5,0,1,0-3,0v5.38L29.12,18.7c-.02-.01-.03-.03-.04-.04a1.5,1.5,0,0,0-2.09,2.16l3.87,3.86a1.507,1.507,0,0,0,1.17.6,1.461,1.461,0,0,0,1.21-.59l3.88-3.87c.01-.01.02-.03.03-.04A1.5,1.5,0,0,0,37.12,18.66Z" transform="translate(63.94 274.79)" fill="#6b2dd4"/>
  </g>
</svg>
