<?xml version="1.0" encoding="utf-8"?>
<svg xmlns="http://www.w3.org/2000/svg" viewBox="0 0 24 24" width="96" height="96">
  <path d="M3 3H21V13H3z" opacity=".3" fill="#FFFFFF" />
  <path d="M7 7C6.4 7 6 7.4 6 8s.4 1 1 1 1-.4 1-1S7.6 7 7 7zM17 7c-.6 0-1 .4-1 1s.4 1 1 1 1-.4 1-1S17.6 7 17 7z" fill="#FFFFFF" />
  <path d="M22,3v10c0,0.6-0.4,1-1,1H3c-0.6,0-1-0.4-1-1V3c0-0.6,0.4-1,1-1h18C21.6,2,22,2.4,22,3z M4,12h16V4H4V12z" fill="#FFFFFF" />
  <path d="M20.5 11A1.5 1.5 0 1 0 20.5 14 1.5 1.5 0 1 0 20.5 11zM20.5 2A1.5 1.5 0 1 0 20.5 5 1.5 1.5 0 1 0 20.5 2zM3.5 11A1.5 1.5 0 1 0 3.5 14 1.5 1.5 0 1 0 3.5 11zM3.5 2A1.5 1.5 0 1 0 3.5 5 1.5 1.5 0 1 0 3.5 2zM12 5A3 3 0 1 0 12 11 3 3 0 1 0 12 5zM8 18L12 22 16 18z" fill="#FFFFFF" />
  <path d="M11 16H13V19H11z" fill="#FFFFFF" />
</svg>