<?xml version="1.0" encoding="utf-8"?>
<svg xmlns="http://www.w3.org/2000/svg" viewBox="0 0 24 24" width="96" height="96">
  <path fill="none" stroke="#FFFFFF" stroke-width="2" d="M14 10A2 2 0 1 0 14 14 2 2 0 1 0 14 10zM10.75 15.25L12.375 13.625M15.625 10.375L17.25 8.75M10.75 8.75L12.375 10.375M15.625 13.625L17.25 15.25M19 21L19 19M5 21L5 19" />
  <path d="M2 8L6 12 2 16z" fill="#FFFFFF" />
  <path d="M20,4H4C3.143,4,2.416,4.545,2.132,5.304L4,7.172V6h2v3.172l2,2V6h12v12.001L8,18v-5.172l-2,2V18l-2,0v-1.172l-1.868,1.868 C2.416,19.455,3.143,20,4,20h16c1.103,0,2-0.897,2-2V6C22,4.897,21.103,4,20,4z" fill="#FFFFFF" />
  <path d="M8 5H21V19H8z" opacity=".3" fill="#FFFFFF" />
</svg>