<svg xmlns="http://www.w3.org/2000/svg" xmlns:xlink="http://www.w3.org/1999/xlink" width="44.834" height="38" viewBox="0 0 44.834 38">
  <defs>
    <linearGradient id="linear-gradient" x1="0.5" y1="1" x2="0.5" gradientUnits="objectBoundingBox">
      <stop offset="0" stop-color="#92a3b0"/>
      <stop offset="0.015" stop-color="#a3b5c4"/>
      <stop offset="0.032" stop-color="#aec2d1"/>
      <stop offset="0.046" stop-color="#b2c6d6"/>
    </linearGradient>
    <linearGradient id="linear-gradient-2" x1="0.5" y1="1" x2="0.5" xlink:href="#linear-gradient"/>
    <linearGradient id="linear-gradient-3" x1="0.189" y1="0.189" x2="0.846" y2="0.846" gradientUnits="objectBoundingBox">
      <stop offset="0" stop-color="#e0ab19"/>
      <stop offset="1" stop-color="#f3dc07"/>
    </linearGradient>
    <linearGradient id="linear-gradient-4" y1="0.5" x2="1" y2="0.5" gradientUnits="objectBoundingBox">
      <stop offset="0" stop-color="#f94c30"/>
      <stop offset="1" stop-color="#db1616"/>
    </linearGradient>
    <linearGradient id="linear-gradient-5" y1="0.5" x2="1" y2="0.5" gradientUnits="objectBoundingBox">
      <stop offset="0" stop-color="#f27242"/>
      <stop offset="1" stop-color="#eb5942"/>
    </linearGradient>
  </defs>
  <g id="sales" transform="translate(0 -6)">
    <path id="Path_1" data-name="Path 1" d="M9.466,24.877a1,1,0,0,1-.979-.8L5.712,10.6A2.007,2.007,0,0,0,3.753,9H2A1,1,0,0,1,2,7H3.753a4.015,4.015,0,0,1,3.918,3.193l2.775,13.482a1,1,0,0,1-.778,1.181A.924.924,0,0,1,9.466,24.877Z" fill="url(#linear-gradient)"/>
    <circle id="Ellipse_1" data-name="Ellipse 1" cx="3" cy="3" r="3" transform="translate(34 38)" fill="#5c5f61"/>
    <circle id="Ellipse_2" data-name="Ellipse 2" cx="1" cy="1" r="1" transform="translate(36 40)" opacity="0.15"/>
    <circle id="Ellipse_3" data-name="Ellipse 3" cx="3" cy="3" r="3" transform="translate(12 38)" fill="#5c5f61"/>
    <circle id="Ellipse_4" data-name="Ellipse 4" cx="1" cy="1" r="1" transform="translate(14 40)" opacity="0.15"/>
    <path id="Path_2" data-name="Path 2" d="M41,39H13a4,4,0,0,1,0-8H38a1,1,0,0,1,0,2H13a2,2,0,0,0,0,4H41a1,1,0,0,1,0,2Z" fill="url(#linear-gradient-2)"/>
    <path id="Path_3" data-name="Path 3" d="M4,8A2,2,0,1,1,2,6,2,2,0,0,1,4,8Z" fill="url(#linear-gradient-3)"/>
    <path id="Path_4" data-name="Path 4" d="M9.69,31.374A2,2,0,0,0,11.655,33H40.306a2,2,0,0,0,1.973-1.671L44.342,18.95,6.773,16.06Z" fill="url(#linear-gradient-4)"/>
    <path id="Path_5" data-name="Path 5" d="M43.911,14.916,6,12l.773,4.06,37.568,2.89.479-2.872A1,1,0,0,0,43.911,14.916Z" fill="url(#linear-gradient-5)"/>
  </g>
</svg>
