<svg id="shoping" xmlns="http://www.w3.org/2000/svg" width="40" height="40" viewBox="0 0 40 40">
  <path id="Path_484" data-name="Path 484" d="M39.508,6.56,33.017.406A1.509,1.509,0,0,0,32,0H8A1.509,1.509,0,0,0,6.983.406L.492,6.56A1.558,1.558,0,0,0,0,7.692v4.1a7.677,7.677,0,0,0,2,5.157V38.462A1.519,1.519,0,0,0,3.5,40H36.5A1.519,1.519,0,0,0,38,38.462V16.948a7.653,7.653,0,0,0,2-5.157v-4.1A1.558,1.558,0,0,0,39.508,6.56ZM8.59,3.077H31.41l3.251,3.077H5.339ZM24.667,9.231v2.56a4.667,4.667,0,0,1-9.334.012V9.231ZM3,11.791V9.231h9.335V11.8a4.625,4.625,0,0,1-4.668,4.6A4.619,4.619,0,0,1,3,11.791ZM35,36.923H5V18.991a7.569,7.569,0,0,0,8.83-2.659A7.658,7.658,0,0,0,20,19.483a7.567,7.567,0,0,0,6.167-3.372,7.565,7.565,0,0,0,6.167,3.372A7.666,7.666,0,0,0,35,18.991Zm2-25.132a4.668,4.668,0,0,1-9.335,0V9.231H37Z" fill="#370053"/>
  <path id="Path_485" data-name="Path 485" d="M30.5,22.56H23.5A1.519,1.519,0,0,0,22,24.1v7.176a1.519,1.519,0,0,0,1.5,1.538H30.5A1.52,1.52,0,0,0,32,31.274V24.1A1.52,1.52,0,0,0,30.5,22.56ZM29,29.735H25v-4.1H29Z" fill="#6b2dd4"/>
  <path id="Path_486" data-name="Path 486" d="M19,24.1V36.923H16V25.637H11V36.923H8V24.1A1.52,1.52,0,0,1,9.5,22.56h8A1.52,1.52,0,0,1,19,24.1Z" fill="#6b2dd4"/>
</svg>
