<svg xmlns="http://www.w3.org/2000/svg" width="37.035" height="39.959" viewBox="0 0 37.035 39.959">
  <g id="shoppingBag" transform="translate(-184.951 -265.18)">
    <path id="Path_474" data-name="Path 474" d="M221.986,344.168a4.384,4.384,0,0,1-4.386,4.379H189.338c-.154,0-.306-.009-.458-.024a4.385,4.385,0,0,1-3.9-4.818l2.436-23.389a4.376,4.376,0,0,1,4.363-3.937h1.937v2.929h-1.937a1.46,1.46,0,0,0-1.455,1.312l-2.436,23.39c0,.05-.008.1-.008.152a1.462,1.462,0,0,0,1.462,1.461H217.6c.05,0,.1,0,.152-.008a1.462,1.462,0,0,0,1.3-1.605l-2.436-23.39a1.46,1.46,0,0,0-1.458-1.316h-2.949v-1.949q0-.491-.046-.975h3a4.378,4.378,0,0,1,4.363,3.937l2.435,23.389C221.977,343.859,221.986,344.014,221.986,344.168Z" transform="translate(0 -43.409)" fill="#370053"/>
    <path id="Path_475" data-name="Path 475" d="M260.074,273.951v5.356a1.462,1.462,0,0,1-2.925,0V275.9H257v-2.925h.067a5.846,5.846,0,0,0-11.611.98v5.361a1.462,1.462,0,1,1-2.923,0V275.9h-.012v-2.929h.07a8.77,8.77,0,0,1,17.484.98Z" transform="translate(-48.809)" fill="#6b2dd4"/>
    <path id="Path_476" data-name="Path 476" d="M284.214,316.38V319.3l-10.974-.028v-1.949a3.841,3.841,0,0,1,.129-.975Z" transform="translate(-76.024 -43.409)" fill="#370053"/>
  </g>
</svg>
