<?xml version="1.0" encoding="utf-8"?>
<svg xmlns="http://www.w3.org/2000/svg" viewBox="0 0 24 24" width="96" height="96">
  <path d="M11 2H13V4H11zM14 13.414l-3-3-2 2L6.293 9.707l1.414-1.414L9 9.586l2-2 3 3 2.293-2.293 1.414 1.414L14 13.414zM10 21L12 16 10 16 8 21zM14 21L12 16 14 16 16 21z" fill="#FFFFFF" />
  <path d="M2 3H22V5H2z" fill="#FFFFFF" />
  <path d="M19,4v11H5V4H3v11c0,1.105,0.895,2,2,2h14c1.105,0,2-0.895,2-2V4H19z" fill="#FFFFFF" />
  <path d="M4 4H20V16H4z" opacity=".3" fill="#FFFFFF" />
</svg>