<?xml version="1.0" encoding="utf-8"?>
<svg xmlns="http://www.w3.org/2000/svg" viewBox="0 0 24 24" width="96" height="96">
  <path d="M12 4A3 3 0 1 0 12 10 3 3 0 1 0 12 4zM13 13v2c-.3 0-.7 0-1 0-3.2 0-8 1.6-8 3.5V20h9v3h10V13H13z" opacity=".3" fill="#FFFFFF" />
  <path d="M12 11c-2.2 0-4-1.8-4-4 0-2.2 1.8-4 4-4 2.2 0 4 1.8 4 4C16 9.2 14.2 11 12 11zM12 5c-1.1 0-2 .9-2 2 0 1.1.9 2 2 2 1.1 0 2-.9 2-2C14 5.9 13.1 5 12 5zM13 21H3v-2.5c0-3 5.9-4.5 9-4.5.3 0 .7 0 1.1.1l-.2 2c-.3 0-.6 0-.9 0-3.3 0-7 1.6-7 2.5V19h8V21z" fill="#FFFFFF" />
  <path d="M22,24h-8c-1.1,0-2-0.9-2-2v-8c0-1.1,0.9-2,2-2h8c1.1,0,2,0.9,2,2v8C24,23.1,23.1,24,22,24z M14,14v8h8l0-8H14z" fill="#FFFFFF" />
  <path d="M16 16H20V18H16z" fill="#FFFFFF" />
</svg>