<svg xmlns="http://www.w3.org/2000/svg" xmlns:xlink="http://www.w3.org/1999/xlink" width="40" height="37.075" viewBox="0 0 40 37.075">
  <defs>
    <clipPath id="clip-path">
      <rect id="Rectangle_69" data-name="Rectangle 69" width="40" height="37.075" transform="translate(0 0)" fill="#6b2dd4"/>
    </clipPath>
  </defs>
  <g id="telephone" transform="translate(0 0)">
    <g id="Group_25" data-name="Group 25" clip-path="url(#clip-path)">
      <path id="Path_529" data-name="Path 529" d="M37.466,7.153C33.872,3.935,27.333,2.687,20.552,2.687S7.232,3.935,3.635,7.153a6.507,6.507,0,0,0-2.1,5.954l.012.07.3,1.044a4.939,4.939,0,0,0,5.3,3.724h.019l2.372-.305h0a4.906,4.906,0,0,0,4.292-3.683l.627-1.92.012-.061a.355.355,0,0,1,.125-.165,5.749,5.749,0,0,1,.63-.163c.433-.079,1.009-.149,1.633-.2,1.248-.109,2.69-.156,3.693-.156s2.445.047,3.693.156c.621.054,1.2.124,1.633.2a5.551,5.551,0,0,1,.63.163.341.341,0,0,1,.121.165l.016.061.624,1.916a4.907,4.907,0,0,0,4.3,3.687l2.375.305h.019a4.932,4.932,0,0,0,5.3-3.724l.3-1.044.01-.07a6.507,6.507,0,0,0-2.1-5.954m-.723,5.438-.264.939-.006.029A2.076,2.076,0,0,1,34.244,15.1l-2.375-.3-.019,0a2.033,2.033,0,0,1-1.8-1.531l-.012-.06-.644-1.977,0-.01a3.14,3.14,0,0,0-1.423-1.878,3.07,3.07,0,0,0-.8-.344c-.251-.07-.5-.108-.786-.159-.57-.1-1.213-.178-1.891-.236-1.359-.117-2.843-.168-3.941-.168s-2.582.051-3.941.168c-.678.058-1.321.134-1.891.236a3.966,3.966,0,0,0-1.579.5,3.144,3.144,0,0,0-1.427,1.881l0,.01L11.068,13.2l-.016.06a2.025,2.025,0,0,1-1.8,1.531l-.019,0-2.371.3a2.076,2.076,0,0,1-2.229-1.537l-.006-.029-.268-.939a3.613,3.613,0,0,1,1.188-3.3h0c2.477-2.218,8.624-3.737,15-3.737s12.527,1.519,15,3.737a3.61,3.61,0,0,1,1.187,3.3m-8.006,6.2-4.365-2.184V14.631a1.433,1.433,0,1,0-2.865-.041v1.474H19.6V14.631a1.433,1.433,0,0,0-1.414-1.454h-.041a1.431,1.431,0,0,0-1.41,1.454v1.977l-4.365,2.184v0A14.579,14.579,0,0,0,4.316,31.822a5.274,5.274,0,0,0,5.253,5.253H31.535a5.274,5.274,0,0,0,5.253-5.253,14.574,14.574,0,0,0-8.051-13.03m2.8,15.418H9.569a2.369,2.369,0,0,1-2.388-2.388,11.7,11.7,0,0,1,6.469-10.47L18.5,18.929H22.6l4.849,2.423a11.7,11.7,0,0,1,6.469,10.47,2.369,2.369,0,0,1-2.388,2.388" fill="#370053"/>
      <path id="Path_530" data-name="Path 530" d="M39.742,4a1.434,1.434,0,0,1-2,.35,17.029,17.029,0,0,0-2.951-1.588A1.433,1.433,0,0,1,35.361,0a1.381,1.381,0,0,1,.554.124,19.8,19.8,0,0,1,3.448,1.862A.122.122,0,0,1,39.389,2a1.434,1.434,0,0,1,.353,2" fill="#6b2dd4"/>
      <path id="Path_531" data-name="Path 531" d="M6.235,21.96a1.435,1.435,0,0,1-1.748,1.031A10.283,10.283,0,0,1,.6,21.241a1.434,1.434,0,0,1,.755-2.6H1.5a1.444,1.444,0,0,1,.8.289,7.463,7.463,0,0,0,2.8,1.264c.035.007.071.013.106.022A1.435,1.435,0,0,1,6.235,21.96" fill="#6b2dd4"/>
      <path id="Path_532" data-name="Path 532" d="M27.237,29.912A1.432,1.432,0,1,1,25.8,28.479a1.433,1.433,0,0,1,1.433,1.433" fill="#6b2dd4"/>
      <path id="Path_533" data-name="Path 533" d="M21.984,29.912a1.432,1.432,0,1,1-1.433-1.433,1.433,1.433,0,0,1,1.433,1.433" fill="#6b2dd4"/>
      <path id="Path_534" data-name="Path 534" d="M16.731,29.912A1.433,1.433,0,1,1,15.3,28.479a1.433,1.433,0,0,1,1.433,1.433" fill="#6b2dd4"/>
      <path id="Path_535" data-name="Path 535" d="M16.731,25.137A1.433,1.433,0,1,1,15.3,23.7a1.433,1.433,0,0,1,1.433,1.433" fill="#6b2dd4"/>
      <path id="Path_536" data-name="Path 536" d="M21.984,25.137A1.432,1.432,0,1,1,20.551,23.7a1.433,1.433,0,0,1,1.433,1.433" fill="#6b2dd4"/>
      <path id="Path_537" data-name="Path 537" d="M27.237,25.137A1.432,1.432,0,1,1,25.8,23.7a1.433,1.433,0,0,1,1.433,1.433" fill="#6b2dd4"/>
    </g>
  </g>
</svg>
