<svg xmlns="http://www.w3.org/2000/svg" width="40" height="37.016" viewBox="0 0 40 37.016">
  <g id="transferUser" transform="translate(-566 -293.028)">
    <path id="icons8_exchange_1" data-name="icons8 exchange 1" d="M541.62,48.68l-4-4a1.482,1.482,0,0,0-1.08-.46,1.5,1.5,0,0,0-1.05,2.57l1.44,1.45h-9.38a1.5,1.5,0,0,0,0,3h9.38l-1.44,1.44a1.5,1.5,0,0,0,2.09,2.15.138.138,0,0,1,.04-.03l4-4A1.509,1.509,0,0,0,541.62,48.68ZM518.78,32.22H506.33a3.3,3.3,0,0,0-3.28,3.26v.22a5.311,5.311,0,0,0,1.65,3.84,12.762,12.762,0,0,0,15.7,0,5.234,5.234,0,0,0,1.65-3.84v-.22A3.282,3.282,0,0,0,518.78,32.22Zm.27,3.26v.22a2.208,2.208,0,0,1-.7,1.65c-.88.83-2.54,1.89-5.8,1.89s-4.91-1.06-5.8-1.89a2.284,2.284,0,0,1-.7-1.65v-.22a.248.248,0,0,1,.24-.26h12.49a.24.24,0,0,1,.27.22C519.05,35.45,519.06,35.46,519.05,35.48Zm-2.01-15.34a6.255,6.255,0,0,0-8.98,0,6.312,6.312,0,0,0,0,8.17,6.232,6.232,0,0,0,8.98,0,6.312,6.312,0,0,0,0-8.17Zm-2.24,6.18a3.25,3.25,0,0,1-4.49,0,3.313,3.313,0,0,1,0-4.18,3.25,3.25,0,0,1,4.49,0A3.313,3.313,0,0,1,514.8,26.32Z" transform="translate(62.95 274.79)" fill="#370053"/>
    <path id="Path_467" data-name="Path 467" d="M538.04,20.14a6.255,6.255,0,0,0-8.98,0,6.067,6.067,0,0,0,8.82,8.33,1.209,1.209,0,0,0,.16-.16,6.312,6.312,0,0,0,0-8.17Zm-2.24,6.18a3.25,3.25,0,0,1-4.49,0,3.313,3.313,0,0,1,0-4.18,3.25,3.25,0,0,1,4.49,0A3.313,3.313,0,0,1,535.8,26.32Z" transform="translate(62.95 274.79)" fill="#6b2dd4"/>
    <path id="Path_468" data-name="Path 468" d="M539.78,32.22H527.33a3.3,3.3,0,0,0-3.28,3.26v.22a5.311,5.311,0,0,0,1.65,3.84,12.762,12.762,0,0,0,15.7,0,5.234,5.234,0,0,0,1.65-3.84v-.22A3.282,3.282,0,0,0,539.78,32.22Zm.27,3.26v.22a2.208,2.208,0,0,1-.7,1.65c-.88.83-2.54,1.89-5.8,1.89s-4.91-1.06-5.8-1.89a2.284,2.284,0,0,1-.7-1.65v-.22a.248.248,0,0,1,.24-.26h12.49a.24.24,0,0,1,.27.22C540.05,35.45,540.06,35.46,540.05,35.48Z" transform="translate(62.95 274.79)" fill="#6b2dd4"/>
    <path id="Path_469" data-name="Path 469" d="M520.05,49.74a1.5,1.5,0,0,1-1.5,1.5h-9.37l1.43,1.43c.02.01.03.03.04.04a1.5,1.5,0,0,1-2.16,2.08l-4-4a1.509,1.509,0,0,1,0-2.12l4-4a1.5,1.5,0,0,1,2.15.01,1.491,1.491,0,0,1-.03,2.12l-1.43,1.44h9.37A1.5,1.5,0,0,1,520.05,49.74Z" transform="translate(62.95 274.79)" fill="#6b2dd4"/>
  </g>
</svg>
