<svg id="transfers" xmlns="http://www.w3.org/2000/svg" width="40" height="40" viewBox="0 0 40 40">
  <path id="Path_482" data-name="Path 482" d="M31.223,21.294v-7.47a.991.991,0,1,0-1.982,0l.006,5.079L14.6,4.261A1,1,0,0,0,13.2,4.244a.983.983,0,0,0-.017,1.394L27.846,20.3H22.762a.988.988,0,0,0-.04,1.977.063.063,0,0,0,.045,0l7.464.006A.989.989,0,0,0,31.223,21.294Z" transform="translate(1.478 3.337)" fill="#370053"/>
  <path id="Path_483" data-name="Path 483" d="M21.989,30.94a1,1,0,0,1-1.406-.017L5.941,16.28l.006,5.078a.114.114,0,0,1-.006.04.988.988,0,0,1-1.977-.04v-7.47a.989.989,0,0,1,.991-.991l7.464.006a.967.967,0,0,1,.694.268.99.99,0,0,1-.689,1.708H7.341L22.006,29.545A.984.984,0,0,1,21.989,30.94Z" transform="translate(3.338 1.478)" fill="#6b2dd4"/>
  <g id="Path_487" data-name="Path 487" transform="translate(0 0)" fill="none">
    <path d="M20,0A20,20,0,1,1,0,20,20,20,0,0,1,20,0Z" stroke="none"/>
    <path d="M 20 2 C 15.19202041625977 2 10.67182922363281 3.872329711914062 7.272079467773438 7.272079467773438 C 3.872329711914062 10.67182922363281 2 15.19202041625977 2 20 C 2 24.80797958374023 3.872329711914062 29.32817077636719 7.272079467773438 32.72792053222656 C 10.67182922363281 36.12767028808594 15.19202041625977 38 20 38 C 24.80797958374023 38 29.32817077636719 36.12767028808594 32.72792053222656 32.72792053222656 C 36.12767028808594 29.32817077636719 38 24.80797958374023 38 20 C 38 15.19202041625977 36.12767028808594 10.67182922363281 32.72792053222656 7.272079467773438 C 29.32817077636719 3.872329711914062 24.80797958374023 2 20 2 M 20 0 C 31.04570007324219 0 40 8.954299926757812 40 20 C 40 31.04570007324219 31.04570007324219 40 20 40 C 8.954299926757812 40 0 31.04570007324219 0 20 C 0 8.954299926757812 8.954299926757812 0 20 0 Z" stroke="none" fill="#370053"/>
  </g>
</svg>
