<svg xmlns="http://www.w3.org/2000/svg" width="40" height="32.709" viewBox="0 0 40 32.709">
  <g id="update" transform="translate(-160 -61.645)">
    <path id="icons8_available_updates_1" d="M7.432,18.72a1.363,1.363,0,0,0-.944.4l-.311.311a1.363,1.363,0,0,0-.27.27L2.4,23.208a1.363,1.363,0,1,0,1.927,1.927l1.379-1.379a16.339,16.339,0,0,0,29.643,8.016A1.363,1.363,0,1,0,33.121,30.2,13.609,13.609,0,0,1,8.39,22.949l2.186,2.186A1.363,1.363,0,1,0,12.5,23.208L8.415,19.12a1.363,1.363,0,0,0-.983-.4Z" transform="translate(158 55.645)" fill="#6b2dd4"/>
    <path id="icons8_available_updates_1-2" data-name="icons8_available_updates_1" d="M21.989,6A16.339,16.339,0,0,0,8.63,12.937a1.363,1.363,0,1,0,2.227,1.572A13.609,13.609,0,0,1,35.588,21.76L33.4,19.574A1.363,1.363,0,1,0,31.474,21.5l4.089,4.089a1.363,1.363,0,0,0,1.927,0l.316-.316a1.363,1.363,0,0,0,.263-.263l3.51-3.51a1.363,1.363,0,1,0-1.927-1.927l-1.379,1.379A16.371,16.371,0,0,0,21.989,6Z" transform="translate(158 55.645)" fill="#370053"/>
  </g>
</svg>
