<svg xmlns="http://www.w3.org/2000/svg" width="40" height="39.136" viewBox="0 0 40 39.136">
  <g id="water" transform="translate(-446.05 -285)">
    <path id="icons8_thirst_1" data-name="icons8 thirst 1" d="M412.428,21.1a75.058,75.058,0,0,0-7.035-9.8v-.009a2.979,2.979,0,0,0-4.594,0,74.266,74.266,0,0,0-7.035,9.782c-2.5,4.236-4.664,9.082-4.664,13.727a14.01,14.01,0,1,0,28,0C417.1,30.174,414.93,25.337,412.428,21.1ZM403.1,46.619A11.6,11.6,0,0,1,391.725,34.8c0-3.727,1.9-8.273,4.279-12.3a72.223,72.223,0,0,1,6.764-9.409.479.479,0,0,1,.332-.155.444.444,0,0,1,.324.155,73.127,73.127,0,0,1,6.764,9.436c2.38,4.027,4.287,8.564,4.287,12.273A11.6,11.6,0,0,1,403.1,46.619Z" transform="translate(62.95 274.79)" fill="#370053"/>
    <circle id="Ellipse_56" data-name="Ellipse 56" cx="2" cy="2" r="2" transform="translate(448.05 318.136)" fill="#6b2dd4"/>
    <circle id="Ellipse_57" data-name="Ellipse 57" cx="2" cy="2" r="2" transform="translate(446.05 309.339)" fill="#6b2dd4"/>
    <circle id="Ellipse_58" data-name="Ellipse 58" cx="2" cy="2" r="2" transform="translate(448.05 299.441)" fill="#6b2dd4"/>
    <circle id="Ellipse_59" data-name="Ellipse 59" cx="2" cy="2" r="2" transform="translate(480.05 299.441)" fill="#6b2dd4"/>
    <circle id="Ellipse_60" data-name="Ellipse 60" cx="2" cy="2" r="2" transform="translate(482.05 309.339)" fill="#6b2dd4"/>
    <circle id="Ellipse_61" data-name="Ellipse 61" cx="2" cy="2" r="2" transform="translate(480.05 318.136)" fill="#6b2dd4"/>
  </g>
</svg>
