<?xml version="1.0" encoding="utf-8"?>
<svg xmlns="http://www.w3.org/2000/svg" viewBox="0 0 24 24" width="96" height="96">
  <path d="M12,10c-0.552,0-1,0.448-1,1s0.448,1,1,1s1-0.448,1-1S12.552,10,12,10z" fill="#FFFFFF" />
  <path d="M12,16c-0.552,0-1,0.448-1,1s0.448,1,1,1s1-0.448,1-1S12.552,16,12,16z" fill="#FFFFFF" />
  <polygon points="21.043,5 21.043,11.824 10.807,22.06 3.983,15.236 14.219,5" opacity=".3" fill="#FFFFFF" />
  <path d="M11,23c-0.534,0-1.036-0.208-1.414-0.586l-6-6C3.208,16.036,3,15.534,3,15s0.208-1.036,0.586-1.414L13.172,4H22v8.828l-9.586,9.586C12.036,22.792,11.534,23,11,23z M14,6l-9,9l6,6l9-9V6H14z" fill="#FFFFFF" />
  <path d="M17,8c-0.552,0-1,0.448-1,1s0.448,1,1,1s1-0.448,1-1S17.552,8,17,8z" fill="#FFFFFF" />
  <line x1="15" x2="9" y1="14" y2="14" fill="none" stroke="#FFFFFF" stroke-width="2" />
  <line x1="6.402" x2="6.402" y1="9" y2="3" fill="none" stroke="#FFFFFF" stroke-linecap="square" stroke-width="2" />
  <line x1="3.804" x2="9" y1="7.449" y2="4.449" fill="none" stroke="#FFFFFF" stroke-linecap="square" stroke-width="2" />
  <line x1="3.804" x2="9" y1="4.449" y2="7.449" fill="none" stroke="#FFFFFF" stroke-linecap="square" stroke-width="2" />
</svg>