<?xml version="1.0" encoding="utf-8"?>
<svg xmlns="http://www.w3.org/2000/svg" viewBox="0 0 24 24" width="96" height="96">
  <path d="M19,24l-4-4h8L19,24z" fill="#FFFFFF" />
  <path d="M18 16H20V21H18zM18.5 8L14 8 14 3.5z" fill="#FFFFFF" />
  <path d="M19 10V8.4L13.6 3H6C5.4 3 5 3.5 5 4v6H19zM5 17v3c0 .5.4 1 1 1h6v-2c0-.6.4-1 1-1h3v-1H5z" opacity=".3" fill="#FFFFFF" />
  <path d="M12.2,20H6v-2h10v-3c0-0.6,0.4-1,1-1h3V7l-5-5H6C4.9,2,4,2.9,4,4v5H3c-1.1,0-2,0.9-2,2v5c0,1.1,0.9,2,2,2h1v2 c0,1.1,0.9,2,2,2h8.2L12.2,20z M11,16H8v-5h1v4h2V16z M14,12.5c0-0.1,0-0.7-0.6-0.7c-0.2,0-0.6,0.1-0.5,0.6c0,0.4,0.6,0.6,0.7,0.7 c0.2,0.1,1.3,0.6,1.3,1.6c0,0.2-0.1,1.3-1.5,1.4c-1.6,0-1.7-1.3-1.7-1.6h1c0,0.1,0,0.9,0.7,0.8c0.4,0,0.5-0.3,0.5-0.5 c0-0.4-0.3-0.6-0.7-0.8c-0.5-0.3-1.3-0.6-1.4-1.5c0-0.9,0.6-1.4,1.5-1.4c1.4,0,1.5,1.3,1.5,1.5L14,12.5L14,12.5z M6,4h8.2L18,7.8V9 H6V4z M5.7,16L5,14.3L4.3,16H3l1.3-2.5L3,11h1.2L5,12.7L5.7,11H7l-1.3,2.5L7,16H5.7z" fill="#FFFFFF" />
</svg>